Monda-LightItalic.ufo
<glyph name="exclam" format="1">
  <advance width="576"/>
  <unicode hex="0021"/>
  <outline>
    <contour>
      <point x="74" y="0" type="line"/>
      <point x="250" y="0" type="line"/>
      <point x="282" y="183" type="line"/>
      <point x="106" y="183" type="line"/>
    </contour>
    <contour>
      <point x="200" y="348" type="curve"/>
      <point x="244" y="348" type="line"/>
      <point x="244" y="348"/>
      <point x="404" y="881"/>
      <point x="500" y="1427" type="curve"/>
      <point x="332" y="1427" type="line"/>
      <point x="236" y="881"/>
      <point x="200" y="348"/>
    </contour>
  </outline>
</glyph>
<glyph name="quotedbl" format="1">
  <advance width="810"/>
  <unicode hex="0022"/>
  <outline>
    <contour>
      <point x="139" y="965" type="line"/>
      <point x="247" y="965" type="line"/>
      <point x="386" y="1500" type="line"/>
      <point x="210" y="1500" type="line"/>
    </contour>
    <contour>
      <point x="460" y="965" type="line"/>
      <point x="568" y="965" type="line"/>
      <point x="694" y="1500" type="line"/>
      <point x="518" y="1500" type="line"/>
    </contour>
  </outline>
</glyph>
<glyph name="numbersign" format="1">
  <advance width="1231"/>
  <unicode hex="0023"/>
  <outline>
    <contour>
      <point x="61" y="0" type="line"/>
      <point x="182" y="0" type="line"/>
      <point x="351" y="473" type="line"/>
      <point x="681" y="473" type="line"/>
      <point x="509" y="0" type="line"/>
      <point x="630" y="0" type="line"/>
      <point x="799" y="473" type="line"/>
      <point x="1090" y="473" type="line"/>
      <point x="1108" y="580" type="line"/>
      <point x="836" y="580" type="line"/>
      <point x="957" y="918" type="line"/>
      <point x="1192" y="918" type="line"/>
      <point x="1211" y="1025" type="line"/>
      <point x="994" y="1025" type="line"/>
      <point x="1138" y="1427" type="line"/>
      <point x="1025" y="1427" type="line"/>
      <point x="880" y="1025" type="line"/>
      <point x="547" y="1025" type="line"/>
      <point x="690" y="1427" type="line"/>
      <point x="577" y="1427" type="line"/>
      <point x="432" y="1025" type="line"/>
      <point x="154" y="1025" type="line"/>
      <point x="135" y="918" type="line"/>
      <point x="392" y="918" type="line"/>
      <point x="271" y="580" type="line"/>
      <point x="51" y="580" type="line"/>
      <point x="33" y="473" type="line"/>
      <point x="233" y="473" type="line"/>
    </contour>
    <contour>
      <point x="388" y="580" type="line"/>
      <point x="509" y="918" type="line"/>
      <point x="841" y="918" type="line"/>
      <point x="719" y="580" type="line"/>
    </contour>
  </outline>
</glyph>
<glyph name="dollar" format="1">
  <advance width="1316"/>
  <unicode hex="0024"/>
  <outline>
    <component base="S"/>
    <contour>
      <point x="432" y="-408" type="line"/>
      <point x="542" y="-408" type="line"/>
      <point x="924" y="1758" type="line"/>
      <point x="814" y="1758" type="line"/>
    </contour>
  </outline>
</glyph>
<glyph name="percent" format="1">
  <advance width="2008"/>
  <unicode hex="0025"/>
  <outline>
    <contour>
      <point x="464" y="794" type="curve" smooth="yes"/>
      <point x="362" y="794"/>
      <point x="332" y="847"/>
      <point x="332" y="930" type="curve" smooth="yes"/>
      <point x="332" y="964"/>
      <point x="337" y="1004"/>
      <point x="345" y="1047" type="curve" smooth="yes"/>
      <point x="362" y="1145" type="line" smooth="yes"/>
      <point x="387" y="1285"/>
      <point x="418" y="1382"/>
      <point x="568" y="1382" type="curve" smooth="yes"/>
      <point x="674" y="1382"/>
      <point x="705" y="1334"/>
      <point x="705" y="1256" type="curve" smooth="yes"/>
      <point x="705" y="1223"/>
      <point x="699" y="1185"/>
      <point x="692" y="1143" type="curve" smooth="yes"/>
      <point x="675" y="1047" type="line" smooth="yes"/>
      <point x="649" y="902"/>
      <point x="609" y="794"/>
    </contour>
    <contour>
      <point x="445" y="686" type="curve" smooth="yes"/>
      <point x="675" y="686"/>
      <point x="773" y="836"/>
      <point x="813" y="1065" type="curve"/>
      <point x="823" y="1119" type="line" smooth="yes"/>
      <point x="831" y="1167"/>
      <point x="836" y="1211"/>
      <point x="836" y="1251" type="curve" smooth="yes"/>
      <point x="836" y="1403"/>
      <point x="770" y="1489"/>
      <point x="587" y="1489" type="curve" smooth="yes"/>
      <point x="356" y="1489"/>
      <point x="267" y="1351"/>
      <point x="226" y="1118" type="curve"/>
      <point x="216" y="1065" type="line" smooth="yes"/>
      <point x="207" y="1015"/>
      <point x="202" y="969"/>
      <point x="202" y="927" type="curve" smooth="yes"/>
      <point x="202" y="778"/>
      <point x="265" y="686"/>
    </contour>
    <contour>
      <point x="1436" y="89" type="curve" smooth="yes"/>
      <point x="1335" y="89"/>
      <point x="1305" y="143"/>
      <point x="1305" y="224" type="curve" smooth="yes"/>
      <point x="1305" y="259"/>
      <point x="1310" y="298"/>
      <point x="1318" y="341" type="curve" smooth="yes"/>
      <point x="1335" y="440" type="line" smooth="yes"/>
      <point x="1359" y="579"/>
      <point x="1390" y="676"/>
      <point x="1540" y="676" type="curve" smooth="yes"/>
      <point x="1647" y="676"/>
      <point x="1677" y="627"/>
      <point x="1677" y="549" type="curve" smooth="yes"/>
      <point x="1677" y="517"/>
      <point x="1672" y="479"/>
      <point x="1665" y="438" type="curve" smooth="yes"/>
      <point x="1648" y="341" type="line" smooth="yes"/>
      <point x="1622" y="197"/>
      <point x="1581" y="89"/>
    </contour>
    <contour>
      <point x="1417" y="-19" type="curve" smooth="yes"/>
      <point x="1647" y="-19"/>
      <point x="1744" y="131"/>
      <point x="1785" y="360" type="curve"/>
      <point x="1794" y="414" type="line" smooth="yes"/>
      <point x="1802" y="462"/>
      <point x="1807" y="507"/>
      <point x="1807" y="547" type="curve" smooth="yes"/>
      <point x="1807" y="698"/>
      <point x="1741" y="784"/>
      <point x="1559" y="784" type="curve" smooth="yes"/>
      <point x="1328" y="784"/>
      <point x="1238" y="646"/>
      <point x="1197" y="413" type="curve"/>
      <point x="1188" y="360" type="line" smooth="yes"/>
      <point x="1179" y="310"/>
      <point x="1174" y="264"/>
      <point x="1174" y="222" type="curve" smooth="yes"/>
      <point x="1174" y="73"/>
      <point x="1237" y="-19"/>
    </contour>
    <contour>
      <point x="522" y="0" type="line"/>
      <point x="662" y="0" type="line"/>
      <point x="1455" y="1446" type="line"/>
      <point x="1320" y="1446" type="line"/>
    </contour>
  </outline>
</glyph>
<glyph name="ampersand" format="1">
  <advance width="1432"/>
  <unicode hex="0026"/>
  <outline>
    <contour>
      <point x="554" y="-20" type="curve" smooth="yes"/>
      <point x="853" y="-20"/>
      <point x="980" y="45"/>
      <point x="1050" y="131" type="curve"/>
      <point x="1184" y="-17" type="line"/>
      <point x="1269" y="60" type="line"/>
      <point x="1120" y="232" type="line"/>
      <point x="1145" y="296"/>
      <point x="1157" y="356"/>
      <point x="1169" y="423" type="curve" smooth="yes"/>
      <point x="1188" y="533"/>
      <point x="1208" y="642"/>
      <point x="1227" y="752" type="curve"/>
      <point x="1111" y="752" type="line"/>
      <point x="1051" y="415" type="line" smooth="yes"/>
      <point x="1049" y="399"/>
      <point x="1039" y="346"/>
      <point x="1036" y="332" type="curve"/>
      <point x="540" y="891" type="line" smooth="yes"/>
      <point x="479" y="961"/>
      <point x="452" y="1002"/>
      <point x="452" y="1068" type="curve" smooth="yes"/>
      <point x="452" y="1087"/>
      <point x="454" y="1108"/>
      <point x="458" y="1132" type="curve" smooth="yes"/>
      <point x="481" y="1261"/>
      <point x="576" y="1347"/>
      <point x="771" y="1347" type="curve" smooth="yes"/>
      <point x="937" y="1347"/>
      <point x="997" y="1320"/>
      <point x="997" y="1228" type="curve" smooth="yes"/>
      <point x="997" y="1211"/>
      <point x="995" y="1192"/>
      <point x="991" y="1171" type="curve" smooth="yes"/>
      <point x="978" y="1100" type="line"/>
      <point x="1101" y="1100" type="line"/>
      <point x="1117" y="1192" type="line" smooth="yes"/>
      <point x="1122" y="1220"/>
      <point x="1124" y="1246"/>
      <point x="1124" y="1269" type="curve" smooth="yes"/>
      <point x="1124" y="1437"/>
      <point x="993" y="1469"/>
      <point x="792" y="1469" type="curve" smooth="yes"/>
      <point x="494" y="1469"/>
      <point x="352" y="1320"/>
      <point x="318" y="1128" type="curve" smooth="yes"/>
      <point x="313" y="1102"/>
      <point x="311" y="1078"/>
      <point x="311" y="1057" type="curve" smooth="yes"/>
      <point x="311" y="951"/>
      <point x="364" y="892"/>
      <point x="437" y="811" type="curve"/>
      <point x="234" y="754"/>
      <point x="155" y="627"/>
      <point x="119" y="426" type="curve" smooth="yes"/>
      <point x="114" y="396"/>
      <point x="110" y="364"/>
      <point x="110" y="330" type="curve" smooth="yes"/>
      <point x="110" y="167"/>
      <point x="192" y="-20"/>
    </contour>
    <contour>
      <point x="575" y="99" type="curve" smooth="yes"/>
      <point x="349" y="99"/>
      <point x="252" y="193"/>
      <point x="252" y="350" type="curve" smooth="yes"/>
      <point x="252" y="376"/>
      <point x="255" y="403"/>
      <point x="260" y="432" type="curve" smooth="yes"/>
      <point x="282" y="554"/>
      <point x="339" y="687"/>
      <point x="506" y="734" type="curve"/>
      <point x="977" y="210" type="line"/>
      <point x="899" y="108"/>
      <point x="800" y="99"/>
    </contour>
  </outline>
</glyph>
<glyph name="quotesingle" format="1">
  <advance width="972"/>
  <unicode hex="0027"/>
  <outline>
    <contour>
      <point x="108" y="965" type="line"/>
      <point x="215" y="965" type="line"/>
      <point x="355" y="1500" type="line"/>
      <point x="179" y="1500" type="line"/>
    </contour>
  </outline>
</glyph>
<glyph name="parenleft" format="1">
  <advance width="661"/>
  <unicode hex="0028"/>
  <outline>
    <contour>
      <point x="411" y="-145" type="curve"/>
      <point x="430" y="-34" type="line"/>
      <point x="244" y="-34"/>
      <point x="195" y="35"/>
      <point x="195" y="142" type="curve" smooth="yes"/>
      <point x="195" y="239"/>
      <point x="223" y="328"/>
      <point x="239" y="420" type="curve" smooth="yes"/>
      <point x="338" y="982" type="line"/>
      <point x="384" y="1228"/>
      <point x="368" y="1450"/>
      <point x="692" y="1450" type="curve"/>
      <point x="711" y="1562" type="line"/>
      <point x="340" y="1562"/>
      <point x="261" y="1365"/>
      <point x="223" y="1149" type="curve" smooth="yes"/>
      <point x="211" y="1080"/>
      <point x="203" y="1010"/>
      <point x="191" y="943" type="curve" smooth="yes"/>
      <point x="105" y="452" type="line" smooth="yes"/>
      <point x="86" y="348"/>
      <point x="50" y="235"/>
      <point x="50" y="117" type="curve" smooth="yes"/>
      <point x="50" y="-31"/>
      <point x="122" y="-144"/>
    </contour>
  </outline>
</glyph>
<glyph name="parenright" format="1">
  <advance width="661"/>
  <unicode hex="0029"/>
  <outline>
    <contour>
      <point x="-60" y="-145" type="line"/>
      <point x="311" y="-144"/>
      <point x="390" y="53"/>
      <point x="429" y="269" type="curve" smooth="yes"/>
      <point x="441" y="338"/>
      <point x="448" y="408"/>
      <point x="460" y="475" type="curve" smooth="yes"/>
      <point x="546" y="966" type="line" smooth="yes"/>
      <point x="565" y="1070"/>
      <point x="601" y="1182"/>
      <point x="601" y="1300" type="curve" smooth="yes"/>
      <point x="601" y="1448"/>
      <point x="529" y="1562"/>
      <point x="240" y="1562" type="curve"/>
      <point x="221" y="1452" type="line"/>
      <point x="407" y="1452"/>
      <point x="456" y="1383"/>
      <point x="456" y="1276" type="curve" smooth="yes"/>
      <point x="456" y="1179"/>
      <point x="428" y="1090"/>
      <point x="412" y="998" type="curve" smooth="yes"/>
      <point x="313" y="437" type="line"/>
      <point x="271" y="189"/>
      <point x="281" y="-33"/>
      <point x="-41" y="-33" type="curve"/>
    </contour>
  </outline>
</glyph>
<glyph name="asterisk" format="1">
  <advance width="1040"/>
  <unicode hex="002A"/>
  <outline>
    <contour>
      <point x="356" y="599" type="line"/>
      <point x="534" y="599" type="line"/>
      <point x="561" y="912" type="line"/>
      <point x="774" y="722" type="line"/>
      <point x="896" y="875" type="line"/>
      <point x="641" y="1017" type="line"/>
      <point x="953" y="1134" type="line"/>
      <point x="900" y="1295" type="line"/>
      <point x="596" y="1121" type="line"/>
      <point x="684" y="1446" type="line"/>
      <point x="506" y="1446" type="line"/>
      <point x="478" y="1133" type="line"/>
      <point x="265" y="1323" type="line"/>
      <point x="143" y="1170" type="line"/>
      <point x="398" y="1028" type="line"/>
      <point x="87" y="911" type="line"/>
      <point x="139" y="750" type="line"/>
      <point x="443" y="924" type="line"/>
    </contour>
  </outline>
</glyph>
<glyph name="plus" format="1">
  <advance width="1059"/>
  <unicode hex="002B"/>
  <outline>
    <contour>
      <point x="397" y="156" type="line"/>
      <point x="520" y="156" type="line"/>
      <point x="583" y="511" type="line"/>
      <point x="870" y="511" type="line"/>
      <point x="889" y="618" type="line"/>
      <point x="602" y="618" type="line"/>
      <point x="664" y="968" type="line"/>
      <point x="541" y="968" type="line"/>
      <point x="479" y="618" type="line"/>
      <point x="190" y="618" type="line"/>
      <point x="171" y="511" type="line"/>
      <point x="460" y="511" type="line"/>
    </contour>
  </outline>
</glyph>
<glyph name="comma" format="1">
  <advance width="565"/>
  <unicode hex="002C"/>
  <outline>
    <contour>
      <point x="189" y="-307" type="line"/>
      <point x="253" y="-255"/>
      <point x="376" y="-137"/>
      <point x="408" y="48" type="curve" smooth="yes"/>
      <point x="436" y="207" type="line"/>
      <point x="218" y="207" type="line"/>
      <point x="182" y="0" type="line"/>
      <point x="309" y="0" type="line"/>
      <point x="286" y="-128"/>
      <point x="185" y="-211"/>
      <point x="130" y="-265" type="curve"/>
    </contour>
  </outline>
</glyph>
<glyph name="hyphen" format="1">
  <advance width="1058"/>
  <unicode hex="002D"/>
  <outline>
    <contour>
      <point x="188" y="521" type="line"/>
      <point x="802" y="521" type="line"/>
      <point x="820" y="622" type="line"/>
      <point x="206" y="622" type="line"/>
    </contour>
    <contour>
      <point x="507" y="566" type="move" name="_mid"/>
    </contour>
  </outline>
</glyph>
<glyph name="period" format="1">
  <advance width="624"/>
  <unicode hex="002E"/>
  <outline>
    <contour>
      <point x="180" y="0" type="line"/>
      <point x="411" y="0" type="line"/>
      <point x="449" y="217" type="line"/>
      <point x="218" y="217" type="line"/>
    </contour>
  </outline>
</glyph>
<glyph name="slash" format="1">
  <advance width="614"/>
  <unicode hex="002F"/>
  <outline>
    <contour>
      <point x="-93" y="0" type="line"/>
      <point x="60" y="0" type="line"/>
      <point x="708" y="1500" type="line"/>
      <point x="561" y="1500" type="line"/>
    </contour>
  </outline>
</glyph>
<glyph name="zero" format="1">
  <advance width="1148"/>
  <unicode hex="0030"/>
  <outline>
    <contour>
      <point x="461" y="100" type="curve" smooth="yes"/>
      <point x="287" y="100"/>
      <point x="211" y="174"/>
      <point x="211" y="381" type="curve" smooth="yes"/>
      <point x="211" y="462"/>
      <point x="223" y="564"/>
      <point x="245" y="690" type="curve"/>
      <point x="250" y="722" type="line"/>
      <point x="332" y="1182"/>
      <point x="435" y="1329"/>
      <point x="677" y="1329" type="curve" smooth="yes"/>
      <point x="851" y="1329"/>
      <point x="928" y="1254"/>
      <point x="928" y="1044" type="curve" smooth="yes"/>
      <point x="928" y="960"/>
      <point x="916" y="854"/>
      <point x="892" y="722" type="curve"/>
      <point x="887" y="690" type="line"/>
      <point x="808" y="243"/>
      <point x="705" y="100"/>
    </contour>
    <contour>
      <point x="440" y="-20" type="curve" smooth="yes"/>
      <point x="793" y="-20"/>
      <point x="940" y="153"/>
      <point x="1037" y="688" type="curve" smooth="yes"/>
      <point x="1063" y="837"/>
      <point x="1077" y="960"/>
      <point x="1077" y="1060" type="curve" smooth="yes"/>
      <point x="1077" y="1346"/>
      <point x="831" y="1313"/>
      <point x="698" y="1448" type="curve"/>
      <point x="354" y="1448"/>
      <point x="208" y="1269"/>
      <point x="106" y="715" type="curve"/>
      <point x="81" y="573"/>
      <point x="68" y="455"/>
      <point x="68" y="359" type="curve" smooth="yes"/>
      <point x="68" y="79"/>
      <point x="180" y="-20"/>
    </contour>
  </outline>
</glyph>
<glyph name="one" format="1">
  <advance width="1148"/>
  <unicode hex="0031"/>
  <outline>
    <contour>
      <point x="51" y="0" type="line"/>
      <point x="930" y="0" type="line"/>
      <point x="952" y="123" type="line"/>
      <point x="612" y="123" type="line"/>
      <point x="842" y="1428" type="line"/>
      <point x="702" y="1428" type="line"/>
      <point x="343" y="1391" type="line"/>
      <point x="335" y="1267" type="line"/>
      <point x="675" y="1299" type="line"/>
      <point x="468" y="123" type="line"/>
      <point x="73" y="123" type="line"/>
    </contour>
  </outline>
</glyph>
<glyph name="two" format="1">
  <advance width="1148"/>
  <unicode hex="0032"/>
  <outline>
    <contour>
      <point x="53" y="0" type="line"/>
      <point x="890" y="0" type="line"/>
      <point x="911" y="116" type="line"/>
      <point x="230" y="116" type="line"/>
      <point x="757" y="603" type="line"/>
      <point x="909" y="742"/>
      <point x="1041" y="829"/>
      <point x="1082" y="1058" type="curve" smooth="yes"/>
      <point x="1088" y="1095"/>
      <point x="1092" y="1131"/>
      <point x="1092" y="1165" type="curve" smooth="yes"/>
      <point x="1092" y="1330"/>
      <point x="1004" y="1451"/>
      <point x="710" y="1451" type="curve" smooth="yes"/>
      <point x="400" y="1451"/>
      <point x="228" y="1345"/>
      <point x="175" y="1043" type="curve"/>
      <point x="312" y="1043" type="line"/>
      <point x="351" y="1267"/>
      <point x="451" y="1323"/>
      <point x="687" y="1323" type="curve" smooth="yes"/>
      <point x="877" y="1323"/>
      <point x="952" y="1267"/>
      <point x="952" y="1139" type="curve" smooth="yes"/>
      <point x="952" y="1114"/>
      <point x="949" y="1087"/>
      <point x="944" y="1056" type="curve" smooth="yes"/>
      <point x="915" y="890"/>
      <point x="834" y="837"/>
      <point x="643" y="660" type="curve" smooth="yes"/>
      <point x="67" y="124" type="line"/>
    </contour>
  </outline>
</glyph>
<glyph name="three" format="1">
  <advance width="1148"/>
  <unicode hex="0033"/>
  <outline>
    <contour>
      <point x="488" y="-20" type="curve" smooth="yes"/>
      <point x="751" y="-20"/>
      <point x="913" y="112"/>
      <point x="960" y="381" type="curve" smooth="yes"/>
      <point x="970" y="435"/>
      <point x="974" y="482"/>
      <point x="974" y="522" type="curve" smooth="yes"/>
      <point x="974" y="687"/>
      <point x="895" y="738"/>
      <point x="759" y="761" type="curve"/>
      <point x="946" y="785"/>
      <point x="1010" y="886"/>
      <point x="1045" y="1085" type="curve" smooth="yes"/>
      <point x="1052" y="1123"/>
      <point x="1055" y="1158"/>
      <point x="1055" y="1189" type="curve" smooth="yes"/>
      <point x="1055" y="1396"/>
      <point x="913" y="1451"/>
      <point x="733" y="1451" type="curve" smooth="yes"/>
      <point x="488" y="1451"/>
      <point x="288" y="1430"/>
      <point x="217" y="1020" type="curve"/>
      <point x="357" y="1020" type="line"/>
      <point x="411" y="1321"/>
      <point x="503" y="1323"/>
      <point x="701" y="1323" type="curve" smooth="yes"/>
      <point x="709" y="1323" type="line" smooth="yes"/>
      <point x="870" y="1323"/>
      <point x="916" y="1269"/>
      <point x="916" y="1175" type="curve" smooth="yes"/>
      <point x="916" y="1149"/>
      <point x="913" y="1121"/>
      <point x="907" y="1089" type="curve" smooth="yes"/>
      <point x="900" y="1048" type="line"/>
      <point x="872" y="894"/>
      <point x="846" y="818"/>
      <point x="522" y="818" type="curve"/>
      <point x="501" y="699" type="line"/>
      <point x="759" y="699"/>
      <point x="836" y="663"/>
      <point x="836" y="526" type="curve" smooth="yes"/>
      <point x="836" y="485"/>
      <point x="829" y="436"/>
      <point x="818" y="375" type="curve" smooth="yes"/>
      <point x="787" y="202"/>
      <point x="709" y="104"/>
      <point x="510" y="104" type="curve" smooth="yes"/>
      <point x="322" y="104"/>
      <point x="230" y="116"/>
      <point x="230" y="303" type="curve" smooth="yes"/>
      <point x="230" y="338"/>
      <point x="234" y="379"/>
      <point x="240" y="428" type="curve"/>
      <point x="100" y="428" type="line"/>
      <point x="95" y="376"/>
      <point x="92" y="330"/>
      <point x="92" y="289" type="curve" smooth="yes"/>
      <point x="92" y="39"/>
      <point x="194" y="-20"/>
    </contour>
  </outline>
</glyph>
<glyph name="four" format="1">
  <advance width="1148"/>
  <unicode hex="0034"/>
  <outline>
    <contour>
      <point x="597" y="0" type="line"/>
      <point x="722" y="0" type="line"/>
      <point x="790" y="384" type="line"/>
      <point x="998" y="384" type="line"/>
      <point x="1017" y="493" type="line"/>
      <point x="809" y="493" type="line"/>
      <point x="867" y="822" type="line"/>
      <point x="742" y="822" type="line"/>
      <point x="684" y="493" type="line"/>
      <point x="215" y="493" type="line"/>
      <point x="865" y="1428" type="line"/>
      <point x="724" y="1428" type="line"/>
      <point x="62" y="494" type="line"/>
      <point x="43" y="384" type="line"/>
      <point x="665" y="384" type="line"/>
    </contour>
  </outline>
</glyph>
<glyph name="five" format="1">
  <advance width="1148"/>
  <unicode hex="0035"/>
  <outline>
    <contour>
      <point x="832" y="519" type="curve" smooth="yes"/>
      <point x="832" y="267"/>
      <point x="684" y="103"/>
      <point x="440" y="103" type="curve" smooth="yes"/>
      <point x="270" y="103"/>
      <point x="163" y="170"/>
      <point x="93" y="221" type="curve"/>
      <point x="35" y="96" type="line"/>
      <point x="136" y="37"/>
      <point x="241" y="-20"/>
      <point x="418" y="-20" type="curve" smooth="yes"/>
      <point x="716" y="-20"/>
      <point x="904" y="158"/>
      <point x="952" y="434" type="curve" smooth="yes"/>
      <point x="960" y="478"/>
      <point x="964" y="518"/>
      <point x="964" y="555" type="curve" smooth="yes"/>
      <point x="964" y="791"/>
      <point x="812" y="883"/>
      <point x="629" y="883" type="curve" smooth="yes"/>
      <point x="537" y="883"/>
      <point x="429" y="856"/>
      <point x="340" y="790" type="curve"/>
      <point x="475" y="1312" type="line"/>
      <point x="1026" y="1312" type="line"/>
      <point x="1047" y="1428" type="line"/>
      <point x="373" y="1428" type="line"/>
      <point x="210" y="693" type="line"/>
      <point x="309" y="661" type="line"/>
      <point x="403" y="730"/>
      <point x="509" y="760"/>
      <point x="607" y="760" type="curve" smooth="yes"/>
      <point x="731" y="760"/>
      <point x="832" y="693"/>
    </contour>
  </outline>
</glyph>
<glyph name="six" format="1">
  <advance width="1148"/>
  <unicode hex="0036"/>
  <outline>
    <contour>
      <point x="456" y="-20" type="curve"/>
      <point x="767" y="-20"/>
      <point x="933" y="113"/>
      <point x="984" y="404" type="curve" smooth="yes"/>
      <point x="991" y="445"/>
      <point x="995" y="483"/>
      <point x="995" y="518" type="curve" smooth="yes"/>
      <point x="995" y="727"/>
      <point x="864" y="822"/>
      <point x="611" y="822" type="curve"/>
      <point x="447" y="822"/>
      <point x="371" y="769"/>
      <point x="318" y="715" type="curve"/>
      <point x="363" y="721" type="line"/>
      <point x="911" y="1428" type="line"/>
      <point x="750" y="1428" type="line"/>
      <point x="317" y="856" type="line" smooth="yes"/>
      <point x="185" y="682"/>
      <point x="116" y="541"/>
      <point x="92" y="404" type="curve" smooth="yes"/>
      <point x="84" y="359"/>
      <point x="80" y="318"/>
      <point x="80" y="281" type="curve" smooth="yes"/>
      <point x="80" y="75"/>
      <point x="201" y="-20"/>
    </contour>
    <contour>
      <point x="477" y="100" type="curve" smooth="yes"/>
      <point x="288" y="100"/>
      <point x="215" y="164"/>
      <point x="215" y="302" type="curve" smooth="yes"/>
      <point x="215" y="332"/>
      <point x="218" y="367"/>
      <point x="225" y="404" type="curve" smooth="yes"/>
      <point x="262" y="613"/>
      <point x="375" y="708"/>
      <point x="591" y="708" type="curve" smooth="yes"/>
      <point x="771" y="708"/>
      <point x="858" y="638"/>
      <point x="858" y="491" type="curve" smooth="yes"/>
      <point x="858" y="464"/>
      <point x="855" y="436"/>
      <point x="849" y="404" type="curve" smooth="yes"/>
      <point x="812" y="196"/>
      <point x="715" y="100"/>
    </contour>
  </outline>
</glyph>
<glyph name="seven" format="1">
  <advance width="1148"/>
  <unicode hex="0037"/>
  <outline>
    <contour>
      <point x="252" y="0" type="line"/>
      <point x="401" y="0" type="line"/>
      <point x="1082" y="1300" type="line"/>
      <point x="1105" y="1428" type="line"/>
      <point x="294" y="1428" type="line"/>
      <point x="275" y="1319" type="line"/>
      <point x="959" y="1319" type="line"/>
    </contour>
  </outline>
</glyph>
<glyph name="eight" format="1">
  <advance width="1148"/>
  <unicode hex="0038"/>
  <outline>
    <contour>
      <point x="424" y="767" type="curve"/>
      <point x="257" y="698"/>
      <point x="42" y="553"/>
      <point x="42" y="270" type="curve" smooth="yes"/>
      <point x="42" y="64"/>
      <point x="190" y="-20"/>
      <point x="443" y="-20" type="curve" smooth="yes"/>
      <point x="738" y="-20"/>
      <point x="925" y="93"/>
      <point x="973" y="363" type="curve" smooth="yes"/>
      <point x="977" y="389"/>
      <point x="980" y="412"/>
      <point x="980" y="435" type="curve" smooth="yes"/>
      <point x="980" y="620"/>
      <point x="842" y="714"/>
      <point x="752" y="767" type="curve"/>
      <point x="883" y="838"/>
      <point x="1043" y="886"/>
      <point x="1080" y="1096" type="curve" smooth="yes"/>
      <point x="1085" y="1125"/>
      <point x="1088" y="1152"/>
      <point x="1088" y="1176" type="curve" smooth="yes"/>
      <point x="1088" y="1409"/>
      <point x="869" y="1451"/>
      <point x="706" y="1451" type="curve" smooth="yes"/>
      <point x="520" y="1451"/>
      <point x="262" y="1399"/>
      <point x="207" y="1092" type="curve" smooth="yes"/>
      <point x="203" y="1071"/>
      <point x="202" y="1051"/>
      <point x="202" y="1033" type="curve" smooth="yes"/>
      <point x="202" y="879"/>
      <point x="326" y="831"/>
    </contour>
    <contour>
      <point x="464" y="100" type="curve" smooth="yes"/>
      <point x="307" y="100"/>
      <point x="185" y="132"/>
      <point x="185" y="291" type="curve" smooth="yes"/>
      <point x="185" y="312"/>
      <point x="188" y="335"/>
      <point x="192" y="361" type="curve" smooth="yes"/>
      <point x="225" y="545"/>
      <point x="412" y="641"/>
      <point x="576" y="719" type="curve"/>
      <point x="698" y="648"/>
      <point x="837" y="563"/>
      <point x="837" y="410" type="curve" smooth="yes"/>
      <point x="837" y="395"/>
      <point x="836" y="378"/>
      <point x="833" y="361" type="curve" smooth="yes"/>
      <point x="795" y="141"/>
      <point x="644" y="100"/>
    </contour>
    <contour>
      <point x="592" y="812" type="curve"/>
      <point x="480" y="871"/>
      <point x="350" y="945"/>
      <point x="350" y="1068" type="curve" smooth="yes"/>
      <point x="350" y="1078"/>
      <point x="351" y="1089"/>
      <point x="353" y="1100" type="curve" smooth="yes"/>
      <point x="377" y="1238"/>
      <point x="472" y="1323"/>
      <point x="683" y="1323" type="curve" smooth="yes"/>
      <point x="864" y="1323"/>
      <point x="939" y="1260"/>
      <point x="939" y="1151" type="curve" smooth="yes"/>
      <point x="939" y="1135"/>
      <point x="937" y="1118"/>
      <point x="934" y="1100" type="curve" smooth="yes"/>
      <point x="908" y="954"/>
      <point x="740" y="877"/>
    </contour>
  </outline>
</glyph>
<glyph name="nine" format="1">
  <advance width="1148"/>
  <unicode hex="0039"/>
  <outline>
    <contour>
      <point x="714" y="1448" type="curve" smooth="yes"/>
      <point x="403" y="1448"/>
      <point x="237" y="1315"/>
      <point x="186" y="1024" type="curve" smooth="yes"/>
      <point x="179" y="983"/>
      <point x="175" y="945"/>
      <point x="175" y="910" type="curve" smooth="yes"/>
      <point x="175" y="701"/>
      <point x="306" y="606"/>
      <point x="559" y="606" type="curve"/>
      <point x="723" y="606"/>
      <point x="799" y="659"/>
      <point x="852" y="713" type="curve"/>
      <point x="807" y="707" type="line"/>
      <point x="259" y="0" type="line"/>
      <point x="420" y="0" type="line"/>
      <point x="853" y="572" type="line" smooth="yes"/>
      <point x="985" y="746"/>
      <point x="1054" y="887"/>
      <point x="1078" y="1024" type="curve" smooth="yes"/>
      <point x="1086" y="1069"/>
      <point x="1090" y="1110"/>
      <point x="1090" y="1147" type="curve" smooth="yes"/>
      <point x="1090" y="1353"/>
      <point x="969" y="1448"/>
    </contour>
    <contour>
      <point x="693" y="1328" type="curve" smooth="yes"/>
      <point x="882" y="1328"/>
      <point x="955" y="1264"/>
      <point x="955" y="1126" type="curve" smooth="yes"/>
      <point x="955" y="1096"/>
      <point x="952" y="1061"/>
      <point x="945" y="1024" type="curve" smooth="yes"/>
      <point x="908" y="815"/>
      <point x="795" y="720"/>
      <point x="579" y="720" type="curve" smooth="yes"/>
      <point x="399" y="720"/>
      <point x="312" y="790"/>
      <point x="312" y="937" type="curve" smooth="yes"/>
      <point x="312" y="964"/>
      <point x="315" y="992"/>
      <point x="321" y="1024" type="curve" smooth="yes"/>
      <point x="358" y="1232"/>
      <point x="455" y="1328"/>
    </contour>
  </outline>
</glyph>
<glyph name="equal" format="1">
  <advance width="1472"/>
  <unicode hex="003D"/>
  <outline>
    <contour>
      <point x="251" y="525" type="line"/>
      <point x="1141" y="525" type="line"/>
      <point x="1165" y="658" type="line"/>
      <point x="275" y="658" type="line"/>
    </contour>
    <contour>
      <point x="307" y="844" type="line"/>
      <point x="1197" y="844" type="line"/>
      <point x="1221" y="977" type="line"/>
      <point x="331" y="977" type="line"/>
    </contour>
  </outline>
</glyph>
<glyph name="greater" format="1">
  <advance width="1386"/>
  <unicode hex="003E"/>
  <outline>
    <contour>
      <point x="136" y="-19" type="line"/>
      <point x="1197" y="488" type="line"/>
      <point x="1230" y="678" type="line"/>
      <point x="348" y="1182" type="line"/>
      <point x="314" y="987" type="line"/>
      <point x="1073" y="580" type="line"/>
      <point x="169" y="169" type="line"/>
    </contour>
  </outline>
</glyph>
<glyph name="question" format="1">
  <advance width="1083"/>
  <unicode hex="003F"/>
  <outline>
    <contour>
      <point x="348" y="431" type="line"/>
      <point x="466" y="431" type="line"/>
      <point x="686" y="651" type="line" smooth="yes"/>
      <point x="855" y="820"/>
      <point x="994" y="972"/>
      <point x="1024" y="1142" type="curve" smooth="yes"/>
      <point x="1028" y="1162"/>
      <point x="1029" y="1182"/>
      <point x="1029" y="1202" type="curve" smooth="yes"/>
      <point x="1029" y="1330"/>
      <point x="950" y="1448"/>
      <point x="688" y="1448" type="curve" smooth="yes"/>
      <point x="400" y="1448"/>
      <point x="261" y="1326"/>
      <point x="226" y="1128" type="curve"/>
      <point x="219" y="1085" type="line"/>
      <point x="352" y="1085" type="line"/>
      <point x="358" y="1119" type="line" smooth="yes"/>
      <point x="380" y="1247"/>
      <point x="462" y="1322"/>
      <point x="665" y="1322" type="curve" smooth="yes"/>
      <point x="820" y="1322"/>
      <point x="884" y="1272"/>
      <point x="884" y="1177" type="curve" smooth="yes"/>
      <point x="884" y="1163"/>
      <point x="883" y="1147"/>
      <point x="880" y="1131" type="curve" smooth="yes"/>
      <point x="859" y="1016"/>
      <point x="753" y="898"/>
      <point x="657" y="788" type="curve" smooth="yes"/>
    </contour>
    <contour>
      <point x="228" y="0" type="line"/>
      <point x="405" y="0" type="line"/>
      <point x="438" y="183" type="line"/>
      <point x="261" y="183" type="line"/>
    </contour>
  </outline>
</glyph>
<glyph name="at" format="1">
  <advance width="2048"/>
  <unicode hex="0040"/>
  <outline>
    <contour>
      <point x="976" y="-127" type="curve" smooth="yes"/>
      <point x="1186" y="-127"/>
      <point x="1409" y="-77"/>
      <point x="1493" y="-28" type="curve"/>
      <point x="1465" y="76" type="line"/>
      <point x="1392" y="26"/>
      <point x="1195" y="-24"/>
      <point x="979" y="-24" type="curve" smooth="yes"/>
      <point x="674" y="-24"/>
      <point x="511" y="79"/>
      <point x="511" y="223" type="curve" smooth="yes"/>
      <point x="511" y="235"/>
      <point x="512" y="247"/>
      <point x="514" y="259" type="curve" smooth="yes"/>
      <point x="654" y="1053" type="line" smooth="yes"/>
      <point x="682" y="1208"/>
      <point x="872" y="1338"/>
      <point x="1181" y="1338" type="curve" smooth="yes"/>
      <point x="1502" y="1338"/>
      <point x="1572" y="1242"/>
      <point x="1572" y="1113" type="curve" smooth="yes"/>
      <point x="1572" y="1075"/>
      <point x="1566" y="1033"/>
      <point x="1558" y="991" type="curve"/>
      <point x="1556" y="991"/>
      <point x="1473" y="973"/>
      <point x="1277" y="927" type="curve" smooth="yes"/>
      <point x="861" y="836"/>
      <point x="768" y="753"/>
      <point x="741" y="596" type="curve" smooth="yes"/>
      <point x="737" y="576"/>
      <point x="735" y="555"/>
      <point x="735" y="535" type="curve" smooth="yes"/>
      <point x="735" y="407"/>
      <point x="812" y="280"/>
      <point x="1044" y="280" type="curve" smooth="yes"/>
      <point x="1296" y="280"/>
      <point x="1431" y="402"/>
      <point x="1491" y="477" type="curve"/>
      <point x="1494" y="394"/>
      <point x="1504" y="304"/>
      <point x="1662" y="304" type="curve"/>
      <point x="1703" y="421" type="line"/>
      <point x="1616" y="421"/>
      <point x="1594" y="437"/>
      <point x="1594" y="477" type="curve" smooth="yes"/>
      <point x="1594" y="484"/>
      <point x="1595" y="492"/>
      <point x="1596" y="501" type="curve" smooth="yes"/>
      <point x="1596" y="501"/>
      <point x="1612" y="586"/>
      <point x="1692" y="1038" type="curve" smooth="yes"/>
      <point x="1693" y="1045"/>
      <point x="1702" y="1071"/>
      <point x="1709" y="1106" type="curve" smooth="yes"/>
      <point x="1712" y="1124"/>
      <point x="1715" y="1146"/>
      <point x="1715" y="1168" type="curve" smooth="yes"/>
      <point x="1715" y="1292"/>
      <point x="1642" y="1459"/>
      <point x="1231" y="1459" type="curve"/>
      <point x="698" y="1459"/>
      <point x="533" y="1222"/>
      <point x="489" y="970" type="curve" smooth="yes"/>
      <point x="374" y="322" type="line" smooth="yes"/>
      <point x="370" y="302"/>
      <point x="368" y="279"/>
      <point x="368" y="256" type="curve" smooth="yes"/>
      <point x="368" y="92"/>
      <point x="478" y="-127"/>
    </contour>
    <contour>
      <point x="1084" y="389" type="curve" smooth="yes"/>
      <point x="969" y="389"/>
      <point x="907" y="440"/>
      <point x="907" y="541" type="curve" smooth="yes"/>
      <point x="907" y="558"/>
      <point x="908" y="576"/>
      <point x="912" y="596" type="curve" smooth="yes"/>
      <point x="928" y="688"/>
      <point x="984" y="737"/>
      <point x="1238" y="799" type="curve" smooth="yes"/>
      <point x="1463" y="854"/>
      <point x="1508" y="861"/>
      <point x="1537" y="874" type="curve"/>
      <point x="1490" y="609" type="line"/>
      <point x="1417" y="464"/>
      <point x="1213" y="389"/>
    </contour>
  </outline>
</glyph>
<glyph name="A" format="1">
  <advance width="1361"/>
  <unicode hex="0041"/>
  <outline>
    <contour>
      <point x="1087" y="0" type="move" name="ogonek"/>
    </contour>
    <contour>
      <point x="803" y="1428" type="move" name="top"/>
    </contour>
    <contour>
      <point x="-39" y="0" type="line"/>
      <point x="111" y="0" type="line"/>
      <point x="268" y="283" type="line"/>
      <point x="950" y="283" type="line"/>
      <point x="1007" y="0" type="line"/>
      <point x="1148" y="0" type="line"/>
      <point x="861" y="1428" type="line"/>
      <point x="754" y="1428" type="line"/>
    </contour>
    <contour>
      <point x="323" y="393" type="line"/>
      <point x="777" y="1229" type="line"/>
      <point x="935" y="393" type="line"/>
    </contour>
  </outline>
</glyph>
<glyph name="B" format="1">
  <advance width="1377"/>
  <unicode hex="0042"/>
  <outline>
    <contour>
      <point x="96" y="0" type="line"/>
      <point x="620" y="0" type="line" smooth="yes"/>
      <point x="964" y="0"/>
      <point x="1137" y="115"/>
      <point x="1191" y="389" type="curve" smooth="yes"/>
      <point x="1195" y="415"/>
      <point x="1198" y="440"/>
      <point x="1198" y="464" type="curve" smooth="yes"/>
      <point x="1198" y="606"/>
      <point x="1122" y="716"/>
      <point x="1003" y="754" type="curve"/>
      <point x="1134" y="805"/>
      <point x="1204" y="912"/>
      <point x="1228" y="1026" type="curve"/>
      <point x="1237" y="1076"/>
      <point x="1243" y="1123"/>
      <point x="1243" y="1165" type="curve" smooth="yes"/>
      <point x="1243" y="1328"/>
      <point x="1158" y="1428"/>
      <point x="845" y="1428" type="curve" smooth="yes"/>
      <point x="348" y="1428" type="line"/>
    </contour>
    <contour>
      <point x="261" y="114" type="line"/>
      <point x="363" y="692" type="line"/>
      <point x="812" y="692" type="line" smooth="yes"/>
      <point x="1000" y="692"/>
      <point x="1061" y="583"/>
      <point x="1061" y="475" type="curve" smooth="yes"/>
      <point x="1061" y="457"/>
      <point x="1059" y="438"/>
      <point x="1056" y="420" type="curve" smooth="yes"/>
      <point x="1011" y="165"/>
      <point x="869" y="114"/>
      <point x="649" y="114" type="curve" smooth="yes"/>
    </contour>
    <contour>
      <point x="1100" y="1131" type="curve" smooth="yes"/>
      <point x="1100" y="935"/>
      <point x="1020" y="804"/>
      <point x="792" y="804" type="curve" smooth="yes"/>
      <point x="383" y="804" type="line"/>
      <point x="472" y="1308" type="line"/>
      <point x="786" y="1308" type="line" smooth="yes"/>
      <point x="1010" y="1308"/>
      <point x="1100" y="1279"/>
    </contour>
    <contour>
      <point x="790" y="1428" type="move" name="top"/>
    </contour>
  </outline>
</glyph>
<glyph name="C" format="1">
  <advance width="1424"/>
  <unicode hex="0043"/>
  <outline>
    <contour>
      <point x="639" y="0" type="move" name="bot"/>
    </contour>
    <contour>
      <point x="877" y="1428" type="move" name="top"/>
    </contour>
    <contour>
      <point x="1194" y="1143" type="curve" smooth="yes"/>
      <point x="1194" y="1107"/>
      <point x="1188" y="1056"/>
      <point x="1179" y="1009" type="curve"/>
      <point x="1311" y="1016" type="line"/>
      <point x="1321" y="1066"/>
      <point x="1327" y="1121"/>
      <point x="1327" y="1163" type="curve" smooth="yes"/>
      <point x="1327" y="1369"/>
      <point x="1204" y="1448"/>
      <point x="871" y="1448" type="curve" smooth="yes"/>
      <point x="412" y="1448"/>
      <point x="281" y="1229"/>
      <point x="226" y="918" type="curve" smooth="yes"/>
      <point x="150" y="487" type="line" smooth="yes"/>
      <point x="140" y="429"/>
      <point x="134" y="375"/>
      <point x="134" y="325" type="curve" smooth="yes"/>
      <point x="134" y="111"/>
      <point x="245" y="-20"/>
      <point x="616" y="-20" type="curve" smooth="yes"/>
      <point x="1055" y="-20"/>
      <point x="1145" y="115"/>
      <point x="1205" y="413" type="curve"/>
      <point x="1074" y="413" type="line"/>
      <point x="1021" y="124"/>
      <point x="917" y="100"/>
      <point x="643" y="100" type="curve" smooth="yes"/>
      <point x="406" y="100"/>
      <point x="279" y="149"/>
      <point x="279" y="344" type="curve" smooth="yes"/>
      <point x="279" y="377"/>
      <point x="283" y="414"/>
      <point x="290" y="456" type="curve" smooth="yes"/>
      <point x="378" y="956" type="line" smooth="yes"/>
      <point x="429" y="1245"/>
      <point x="575" y="1329"/>
      <point x="850" y="1329" type="curve" smooth="yes"/>
      <point x="1082" y="1329"/>
      <point x="1194" y="1319"/>
    </contour>
  </outline>
</glyph>
<glyph name="D" format="1">
  <advance width="1497"/>
  <unicode hex="0044"/>
  <outline>
    <contour>
      <point x="259" y="101" type="line"/>
      <point x="475" y="1325" type="line"/>
      <point x="850" y="1325" type="line" smooth="yes"/>
      <point x="1032" y="1325"/>
      <point x="1215" y="1294"/>
      <point x="1215" y="1059" type="curve" smooth="yes"/>
      <point x="1215" y="1028"/>
      <point x="1212" y="993"/>
      <point x="1205" y="954" type="curve" smooth="yes"/>
      <point x="1118" y="457" type="line" smooth="yes"/>
      <point x="1060" y="130"/>
      <point x="842" y="101"/>
      <point x="634" y="101" type="curve" smooth="yes"/>
    </contour>
    <contour>
      <point x="96" y="0" type="line"/>
      <point x="633" y="0" type="line" smooth="yes"/>
      <point x="991" y="0"/>
      <point x="1205" y="143"/>
      <point x="1262" y="466" type="curve" smooth="yes"/>
      <point x="1349" y="958" type="line" smooth="yes"/>
      <point x="1356" y="996"/>
      <point x="1359" y="1033"/>
      <point x="1359" y="1068" type="curve" smooth="yes"/>
      <point x="1359" y="1280"/>
      <point x="1230" y="1428"/>
      <point x="882" y="1428" type="curve" smooth="yes"/>
      <point x="348" y="1428" type="line"/>
    </contour>
    <contour>
      <point x="353" y="751" type="move" name="mid"/>
    </contour>
    <contour>
      <point x="804" y="1428" type="move" name="top"/>
    </contour>
  </outline>
</glyph>
<glyph name="E" format="1">
  <advance width="1218"/>
  <unicode hex="0045"/>
  <outline>
    <contour>
      <point x="543" y="0" type="move" name="bot"/>
    </contour>
    <contour>
      <point x="729" y="0" type="move" name="ogonek"/>
    </contour>
    <contour>
      <point x="812" y="1428" type="move" name="top"/>
    </contour>
    <contour>
      <point x="96" y="0" type="line"/>
      <point x="973" y="0" type="line"/>
      <point x="992" y="106" type="line"/>
      <point x="259" y="106" type="line"/>
      <point x="361" y="684" type="line"/>
      <point x="996" y="684" type="line"/>
      <point x="1015" y="796" type="line"/>
      <point x="380" y="796" type="line"/>
      <point x="473" y="1322" type="line"/>
      <point x="1193" y="1322" type="line"/>
      <point x="1212" y="1428" type="line"/>
      <point x="348" y="1428" type="line"/>
    </contour>
  </outline>
</glyph>
<glyph name="F" format="1">
  <advance width="1137"/>
  <unicode hex="0046"/>
  <outline>
    <contour>
      <point x="96" y="0" type="line"/>
      <point x="239" y="0" type="line"/>
      <point x="359" y="682" type="line"/>
      <point x="960" y="682" type="line"/>
      <point x="980" y="794" type="line"/>
      <point x="379" y="794" type="line"/>
      <point x="473" y="1324" type="line"/>
      <point x="1107" y="1324" type="line"/>
      <point x="1125" y="1428" type="line"/>
      <point x="348" y="1428" type="line"/>
    </contour>
    <contour>
      <point x="757" y="1428" type="move" name="top"/>
    </contour>
  </outline>
</glyph>
<glyph name="G" format="1">
  <advance width="1516"/>
  <unicode hex="0047"/>
  <outline>
    <contour>
      <point x="658" y="0" type="move" name="bot"/>
    </contour>
    <contour>
      <point x="874" y="1428" type="move" name="top"/>
    </contour>
    <contour>
      <point x="639" y="-20" type="curve" smooth="yes"/>
      <point x="905" y="-20"/>
      <point x="1083" y="69"/>
      <point x="1152" y="292" type="curve"/>
      <point x="1112" y="0" type="line"/>
      <point x="1194" y="0" type="line"/>
      <point x="1321" y="722" type="line"/>
      <point x="788" y="722" type="line"/>
      <point x="768" y="604" type="line"/>
      <point x="1138" y="604" type="line"/>
      <point x="1112" y="456" type="line" smooth="yes"/>
      <point x="1061" y="167"/>
      <point x="938" y="100"/>
      <point x="660" y="100" type="curve" smooth="yes"/>
      <point x="422" y="100"/>
      <point x="286" y="149"/>
      <point x="286" y="349" type="curve" smooth="yes"/>
      <point x="286" y="381"/>
      <point x="289" y="416"/>
      <point x="296" y="456" type="curve" smooth="yes"/>
      <point x="384" y="956" type="line" smooth="yes"/>
      <point x="435" y="1245"/>
      <point x="602" y="1329"/>
      <point x="876" y="1329" type="curve" smooth="yes"/>
      <point x="1133" y="1329"/>
      <point x="1241" y="1319"/>
      <point x="1241" y="1138" type="curve" smooth="yes"/>
      <point x="1241" y="1112"/>
      <point x="1238" y="1081"/>
      <point x="1234" y="1047" type="curve" smooth="yes"/>
      <point x="1231" y="1024" type="line"/>
      <point x="1352" y="1035" type="line"/>
      <point x="1356" y="1065" type="line" smooth="yes"/>
      <point x="1361" y="1100"/>
      <point x="1364" y="1133"/>
      <point x="1364" y="1163" type="curve" smooth="yes"/>
      <point x="1364" y="1342"/>
      <point x="1264" y="1448"/>
      <point x="897" y="1448" type="curve" smooth="yes"/>
      <point x="439" y="1448"/>
      <point x="288" y="1229"/>
      <point x="233" y="918" type="curve" smooth="yes"/>
      <point x="157" y="487" type="line" smooth="yes"/>
      <point x="148" y="433"/>
      <point x="142" y="383"/>
      <point x="142" y="336" type="curve" smooth="yes"/>
      <point x="142" y="116"/>
      <point x="262" y="-20"/>
    </contour>
  </outline>
</glyph>
<glyph name="H" format="1">
  <advance width="1444"/>
  <unicode hex="0048"/>
  <outline>
    <contour>
      <point x="86" y="0" type="line"/>
      <point x="229" y="0" type="line"/>
      <point x="350" y="685" type="line"/>
      <point x="1084" y="685" type="line"/>
      <point x="963" y="0" type="line"/>
      <point x="1106" y="0" type="line"/>
      <point x="1358" y="1428" type="line"/>
      <point x="1215" y="1428" type="line"/>
      <point x="1101" y="782" type="line"/>
      <point x="367" y="782" type="line"/>
      <point x="481" y="1428" type="line"/>
      <point x="338" y="1428" type="line"/>
    </contour>
    <contour>
      <point x="824" y="1428" type="move" name="top"/>
    </contour>
  </outline>
</glyph>
<glyph name="I" format="1">
  <advance width="1122"/>
  <unicode hex="0049"/>
  <outline>
    <contour>
      <point x="83" y="0" type="line"/>
      <point x="787" y="0" type="line"/>
      <point x="806" y="107" type="line"/>
      <point x="526" y="107" type="line"/>
      <point x="740" y="1322" type="line"/>
      <point x="1020" y="1322" type="line"/>
      <point x="1039" y="1428" type="line"/>
      <point x="335" y="1428" type="line"/>
      <point x="316" y="1322" type="line"/>
      <point x="596" y="1322" type="line"/>
      <point x="382" y="107" type="line"/>
      <point x="102" y="107" type="line"/>
    </contour>
    <contour>
      <point x="550" y="0" type="move" name="ogonek"/>
    </contour>
    <contour>
      <point x="677" y="1428" type="move" name="top"/>
    </contour>
  </outline>
</glyph>
<glyph name="J" format="1">
  <advance width="1196"/>
  <unicode hex="004A"/>
  <outline>
    <contour>
      <point x="406" y="-12" type="curve" smooth="yes"/>
      <point x="727" y="-12"/>
      <point x="864" y="168"/>
      <point x="911" y="436" type="curve" smooth="yes"/>
      <point x="1086" y="1428" type="line"/>
      <point x="363" y="1428" type="line"/>
      <point x="340" y="1300" type="line"/>
      <point x="920" y="1300" type="line"/>
      <point x="767" y="431" type="line" smooth="yes"/>
      <point x="728" y="209"/>
      <point x="624" y="111"/>
      <point x="430" y="111" type="curve" smooth="yes"/>
      <point x="258" y="111"/>
      <point x="92" y="180"/>
      <point x="76" y="188" type="curve"/>
      <point x="9" y="72" type="line"/>
      <point x="32" y="54"/>
      <point x="223" y="-12"/>
    </contour>
    <contour>
      <point x="777" y="1428" type="move" name="top"/>
    </contour>
  </outline>
</glyph>
<glyph name="K" format="1">
  <advance width="1387"/>
  <unicode hex="004B"/>
  <outline>
    <contour>
      <point x="539" y="0" type="move" name="bot"/>
    </contour>
    <contour>
      <point x="845" y="1428" type="move" name="top"/>
    </contour>
    <contour>
      <point x="96" y="0" type="line"/>
      <point x="239" y="0" type="line"/>
      <point x="320" y="457" type="line"/>
      <point x="619" y="726" type="line"/>
      <point x="1009" y="0" type="line"/>
      <point x="1165" y="0" type="line"/>
      <point x="722" y="794" type="line"/>
      <point x="1393" y="1428" type="line"/>
      <point x="1241" y="1428" type="line"/>
      <point x="344" y="595" type="line"/>
      <point x="491" y="1428" type="line"/>
      <point x="348" y="1428" type="line"/>
    </contour>
  </outline>
</glyph>
<glyph name="L" format="1">
  <advance width="1116"/>
  <unicode hex="004C"/>
  <outline>
    <contour>
      <point x="229" y="673" type="move" name="mid"/>
    </contour>
    <contour>
      <point x="477" y="0" type="move" name="bot"/>
    </contour>
    <contour>
      <point x="812" y="1428" type="move" name="top"/>
    </contour>
    <contour>
      <point x="96" y="0" type="line"/>
      <point x="907" y="0" type="line"/>
      <point x="926" y="109" type="line"/>
      <point x="258" y="109" type="line"/>
      <point x="491" y="1428" type="line"/>
      <point x="348" y="1428" type="line"/>
    </contour>
  </outline>
</glyph>
<glyph name="M" format="1">
  <advance width="1694"/>
  <unicode hex="004D"/>
  <outline>
    <contour>
      <point x="96" y="0" type="line"/>
      <point x="236" y="0" type="line"/>
      <point x="436" y="1135" type="line"/>
      <point x="754" y="452" type="line"/>
      <point x="853" y="452" type="line"/>
      <point x="1410" y="1139" type="line"/>
      <point x="1209" y="0" type="line"/>
      <point x="1346" y="0" type="line"/>
      <point x="1598" y="1428" type="line"/>
      <point x="1513" y="1428" type="line"/>
      <point x="828" y="594" type="line"/>
      <point x="447" y="1428" type="line"/>
      <point x="348" y="1428" type="line"/>
    </contour>
    <contour>
      <point x="953" y="1428" type="move" name="top"/>
    </contour>
  </outline>
</glyph>
<glyph name="N" format="1">
  <advance width="1544"/>
  <unicode hex="004E"/>
  <outline>
    <contour>
      <point x="608" y="0" type="move" name="bot"/>
    </contour>
    <contour>
      <point x="883" y="1428" type="move" name="top"/>
    </contour>
    <contour>
      <point x="96" y="0" type="line"/>
      <point x="219" y="0" type="line"/>
      <point x="425" y="1169" type="line"/>
      <point x="1043" y="0" type="line"/>
      <point x="1196" y="0" type="line"/>
      <point x="1448" y="1428" type="line"/>
      <point x="1323" y="1428" type="line"/>
      <point x="1104" y="186" type="line"/>
      <point x="459" y="1428" type="line"/>
      <point x="348" y="1428" type="line"/>
    </contour>
  </outline>
</glyph>
<glyph name="O" format="1">
  <advance width="1500"/>
  <unicode hex="004F"/>
  <outline>
    <contour>
      <point x="650" y="100" type="curve" smooth="yes"/>
      <point x="413" y="100"/>
      <point x="283" y="144"/>
      <point x="283" y="338" type="curve" smooth="yes"/>
      <point x="283" y="370"/>
      <point x="287" y="406"/>
      <point x="294" y="447" type="curve" smooth="yes"/>
      <point x="385" y="963" type="line" smooth="yes"/>
      <point x="436" y="1253"/>
      <point x="592" y="1329"/>
      <point x="866" y="1329" type="curve" smooth="yes"/>
      <point x="1099" y="1329"/>
      <point x="1217" y="1276"/>
      <point x="1217" y="1083" type="curve" smooth="yes"/>
      <point x="1217" y="1048"/>
      <point x="1213" y="1008"/>
      <point x="1205" y="963" type="curve" smooth="yes"/>
      <point x="1114" y="447" type="line" smooth="yes"/>
      <point x="1063" y="159"/>
      <point x="928" y="100"/>
    </contour>
    <contour>
      <point x="629" y="-20" type="curve" smooth="yes"/>
      <point x="1068" y="-20"/>
      <point x="1211" y="189"/>
      <point x="1265" y="490" type="curve" smooth="yes"/>
      <point x="1340" y="916" type="line" smooth="yes"/>
      <point x="1350" y="974"/>
      <point x="1356" y="1029"/>
      <point x="1356" y="1080" type="curve" smooth="yes"/>
      <point x="1356" y="1301"/>
      <point x="1245" y="1448"/>
      <point x="887" y="1448" type="curve" smooth="yes"/>
      <point x="431" y="1448"/>
      <point x="289" y="1238"/>
      <point x="235" y="928" type="curve" smooth="yes"/>
      <point x="155" y="477" type="line" smooth="yes"/>
      <point x="145" y="422"/>
      <point x="140" y="371"/>
      <point x="140" y="324" type="curve" smooth="yes"/>
      <point x="140" y="109"/>
      <point x="256" y="-20"/>
    </contour>
    <contour>
      <point x="653" y="0" type="move" name="ogonek"/>
    </contour>
    <contour>
      <point x="884" y="1428" type="move" name="top"/>
    </contour>
  </outline>
</glyph>
<glyph name="P" format="1">
  <advance width="1277"/>
  <unicode hex="0050"/>
  <outline>
    <contour>
      <point x="96" y="0" type="line"/>
      <point x="241" y="0" type="line"/>
      <point x="336" y="541" type="line"/>
      <point x="781" y="541" type="line" smooth="yes"/>
      <point x="943" y="541"/>
      <point x="1140" y="634"/>
      <point x="1201" y="983" type="curve" smooth="yes"/>
      <point x="1210" y="1034"/>
      <point x="1214" y="1079"/>
      <point x="1214" y="1120" type="curve" smooth="yes"/>
      <point x="1214" y="1344"/>
      <point x="1088" y="1428"/>
      <point x="925" y="1428" type="curve" smooth="yes"/>
      <point x="348" y="1428" type="line"/>
    </contour>
    <contour>
      <point x="357" y="656" type="line"/>
      <point x="472" y="1310" type="line"/>
      <point x="897" y="1310" type="line" smooth="yes"/>
      <point x="1028" y="1310"/>
      <point x="1060" y="1224"/>
      <point x="1060" y="1128" type="curve" smooth="yes"/>
      <point x="1060" y="1074"/>
      <point x="1050" y="1017"/>
      <point x="1042" y="969" type="curve" smooth="yes"/>
      <point x="1019" y="837"/>
      <point x="970" y="656"/>
      <point x="780" y="656" type="curve" smooth="yes"/>
    </contour>
    <contour>
      <point x="835" y="1428" type="move" name="top"/>
    </contour>
  </outline>
</glyph>
<glyph name="Q" format="1">
  <advance width="1494"/>
  <unicode hex="0051"/>
  <outline>
    <contour>
      <point x="811" y="-394" type="line"/>
      <point x="923" y="-317" type="line"/>
      <point x="779" y="-16" type="line"/>
      <point x="1132" y="15"/>
      <point x="1248" y="212"/>
      <point x="1297" y="490" type="curve" smooth="yes"/>
      <point x="1373" y="916" type="line" smooth="yes"/>
      <point x="1383" y="974"/>
      <point x="1389" y="1029"/>
      <point x="1389" y="1080" type="curve" smooth="yes"/>
      <point x="1389" y="1301"/>
      <point x="1278" y="1448"/>
      <point x="920" y="1448" type="curve" smooth="yes"/>
      <point x="464" y="1448"/>
      <point x="322" y="1238"/>
      <point x="268" y="928" type="curve" smooth="yes"/>
      <point x="188" y="477" type="line" smooth="yes"/>
      <point x="178" y="422"/>
      <point x="173" y="371"/>
      <point x="173" y="324" type="curve" smooth="yes"/>
      <point x="173" y="115"/>
      <point x="282" y="-14"/>
      <point x="628" y="-21" type="curve"/>
    </contour>
    <contour>
      <point x="683" y="100" type="curve" smooth="yes"/>
      <point x="446" y="100"/>
      <point x="316" y="144"/>
      <point x="316" y="338" type="curve" smooth="yes"/>
      <point x="316" y="370"/>
      <point x="320" y="406"/>
      <point x="327" y="447" type="curve" smooth="yes"/>
      <point x="418" y="963" type="line" smooth="yes"/>
      <point x="469" y="1253"/>
      <point x="625" y="1329"/>
      <point x="899" y="1329" type="curve" smooth="yes"/>
      <point x="1132" y="1329"/>
      <point x="1250" y="1276"/>
      <point x="1250" y="1083" type="curve" smooth="yes"/>
      <point x="1250" y="1048"/>
      <point x="1246" y="1008"/>
      <point x="1238" y="963" type="curve" smooth="yes"/>
      <point x="1147" y="447" type="line" smooth="yes"/>
      <point x="1096" y="159"/>
      <point x="961" y="100"/>
    </contour>
  </outline>
</glyph>
<glyph name="R" format="1">
  <advance width="1428"/>
  <unicode hex="0052"/>
  <outline>
    <contour>
      <point x="96" y="0" type="line"/>
      <point x="241" y="0" type="line"/>
      <point x="348" y="609" type="line"/>
      <point x="348" y="609"/>
      <point x="860" y="610"/>
      <point x="878" y="610" type="curve"/>
      <point x="1074" y="0" type="line"/>
      <point x="1220" y="0" type="line"/>
      <point x="1013" y="642" type="line"/>
      <point x="1105" y="680"/>
      <point x="1231" y="763"/>
      <point x="1276" y="1018" type="curve" smooth="yes"/>
      <point x="1286" y="1074"/>
      <point x="1290" y="1122"/>
      <point x="1290" y="1164" type="curve" smooth="yes"/>
      <point x="1290" y="1397"/>
      <point x="1149" y="1428"/>
      <point x="971" y="1428" type="curve" smooth="yes"/>
      <point x="348" y="1428" type="line"/>
    </contour>
    <contour>
      <point x="369" y="726" type="line"/>
      <point x="472" y="1310" type="line"/>
      <point x="950" y="1310" type="line" smooth="yes"/>
      <point x="1094" y="1310"/>
      <point x="1137" y="1248"/>
      <point x="1137" y="1144" type="curve" smooth="yes"/>
      <point x="1137" y="1107"/>
      <point x="1131" y="1065"/>
      <point x="1123" y="1018" type="curve" smooth="yes"/>
      <point x="1086" y="810"/>
      <point x="1020" y="726"/>
      <point x="831" y="726" type="curve" smooth="yes"/>
    </contour>
    <contour>
      <point x="563" y="0" type="move" name="bot"/>
    </contour>
    <contour>
      <point x="841" y="1428" type="move" name="top"/>
    </contour>
  </outline>
</glyph>
<glyph name="S" format="1">
  <advance width="1318"/>
  <unicode hex="0053"/>
  <outline>
    <contour>
      <point x="512" y="0" type="move" name="bot"/>
    </contour>
    <contour>
      <point x="806" y="1428" type="move" name="top"/>
    </contour>
    <contour>
      <point x="563" y="-20" type="curve" smooth="yes"/>
      <point x="900" y="-20"/>
      <point x="1057" y="118"/>
      <point x="1106" y="396" type="curve" smooth="yes"/>
      <point x="1114" y="440"/>
      <point x="1118" y="479"/>
      <point x="1118" y="512" type="curve" smooth="yes"/>
      <point x="1118" y="649"/>
      <point x="1050" y="702"/>
      <point x="903" y="757" type="curve" smooth="yes"/>
      <point x="515" y="900" type="line" smooth="yes"/>
      <point x="426" y="933"/>
      <point x="394" y="958"/>
      <point x="394" y="1026" type="curve" smooth="yes"/>
      <point x="394" y="1047"/>
      <point x="398" y="1072"/>
      <point x="403" y="1103" type="curve" smooth="yes"/>
      <point x="430" y="1256"/>
      <point x="503" y="1329"/>
      <point x="789" y="1329" type="curve" smooth="yes"/>
      <point x="1043" y="1329"/>
      <point x="1138" y="1288"/>
      <point x="1207" y="1250" type="curve"/>
      <point x="1262" y="1359" type="line"/>
      <point x="1200" y="1398"/>
      <point x="1067" y="1448"/>
      <point x="810" y="1448" type="curve" smooth="yes"/>
      <point x="521" y="1448"/>
      <point x="310" y="1377"/>
      <point x="262" y="1103" type="curve" smooth="yes"/>
      <point x="255" y="1064"/>
      <point x="252" y="1031"/>
      <point x="252" y="1002" type="curve" smooth="yes"/>
      <point x="252" y="860"/>
      <point x="332" y="820"/>
      <point x="470" y="769" type="curve" smooth="yes"/>
      <point x="852" y="628" type="line" smooth="yes"/>
      <point x="950" y="591"/>
      <point x="981" y="552"/>
      <point x="981" y="484" type="curve" smooth="yes"/>
      <point x="981" y="461"/>
      <point x="977" y="436"/>
      <point x="972" y="406" type="curve" smooth="yes"/>
      <point x="932" y="182"/>
      <point x="836" y="100"/>
      <point x="584" y="100" type="curve" smooth="yes"/>
      <point x="359" y="100"/>
      <point x="226" y="148"/>
      <point x="125" y="225" type="curve"/>
      <point x="53" y="116" type="line"/>
      <point x="173" y="37"/>
      <point x="290" y="-20"/>
    </contour>
  </outline>
</glyph>
<glyph name="T" format="1">
  <advance width="1210"/>
  <unicode hex="0054"/>
  <outline>
    <contour>
      <point x="406" y="0" type="line"/>
      <point x="550" y="0" type="line"/>
      <point x="779" y="1300" type="line"/>
      <point x="1201" y="1300" type="line"/>
      <point x="1224" y="1428" type="line"/>
      <point x="238" y="1428" type="line"/>
      <point x="215" y="1300" type="line"/>
      <point x="635" y="1300" type="line"/>
    </contour>
    <contour>
      <point x="609" y="748" type="move" name="mid"/>
    </contour>
    <contour>
      <point x="492" y="0" type="move" name="bot"/>
    </contour>
    <contour>
      <point x="748" y="1428" type="move" name="top"/>
    </contour>
  </outline>
</glyph>
<glyph name="U" format="1">
  <advance width="1497"/>
  <unicode hex="0055"/>
  <outline>
    <contour>
      <point x="631" y="-20" type="curve" smooth="yes"/>
      <point x="1057" y="-20"/>
      <point x="1205" y="209"/>
      <point x="1251" y="469" type="curve" smooth="yes"/>
      <point x="1420" y="1427" type="line"/>
      <point x="1275" y="1427" type="line"/>
      <point x="1102" y="450" type="line" smooth="yes"/>
      <point x="1048" y="140"/>
      <point x="853" y="100"/>
      <point x="653" y="100" type="curve" smooth="yes"/>
      <point x="477" y="100"/>
      <point x="296" y="133"/>
      <point x="296" y="357" type="curve" smooth="yes"/>
      <point x="296" y="385"/>
      <point x="299" y="416"/>
      <point x="305" y="450" type="curve" smooth="yes"/>
      <point x="478" y="1427" type="line"/>
      <point x="333" y="1427" type="line"/>
      <point x="165" y="476" type="line" smooth="yes"/>
      <point x="157" y="429"/>
      <point x="152" y="383"/>
      <point x="152" y="339" type="curve" smooth="yes"/>
      <point x="152" y="137"/>
      <point x="258" y="-20"/>
    </contour>
    <contour>
      <point x="688" y="0" type="move" name="ogonek"/>
    </contour>
    <contour>
      <point x="879" y="1428" type="move" name="top"/>
    </contour>
  </outline>
</glyph>
<glyph name="V" format="1">
  <advance width="1327"/>
  <unicode hex="0056"/>
  <outline>
    <contour>
      <point x="499" y="0" type="line"/>
      <point x="566" y="0" type="line"/>
      <point x="1340" y="1428" type="line"/>
      <point x="1194" y="1428" type="line"/>
      <point x="585" y="298" type="line"/>
      <point x="382" y="1428" type="line"/>
      <point x="240" y="1428" type="line"/>
    </contour>
  </outline>
</glyph>
<glyph name="W" format="1">
  <advance width="2068"/>
  <unicode hex="0057"/>
  <outline>
    <contour>
      <point x="1188" y="1428" type="move" name="top"/>
    </contour>
    <contour>
      <point x="441" y="0" type="line"/>
      <point x="525" y="0" type="line"/>
      <point x="1167" y="1339" type="line"/>
      <point x="1307" y="0" type="line"/>
      <point x="1400" y="0" type="line"/>
      <point x="2057" y="1428" type="line"/>
      <point x="1934" y="1428" type="line"/>
      <point x="1401" y="274" type="line"/>
      <point x="1266" y="1428" type="line"/>
      <point x="1072" y="1428" type="line"/>
      <point x="529" y="281" type="line"/>
      <point x="389" y="1428" type="line"/>
      <point x="263" y="1428" type="line"/>
    </contour>
  </outline>
</glyph>
<glyph name="X" format="1">
  <advance width="1326"/>
  <unicode hex="0058"/>
  <outline>
    <contour>
      <point x="2" y="0" type="line"/>
      <point x="155" y="0" type="line"/>
      <point x="647" y="608" type="line"/>
      <point x="920" y="0" type="line"/>
      <point x="1073" y="0" type="line"/>
      <point x="741" y="725" type="line"/>
      <point x="1311" y="1428" type="line"/>
      <point x="1161" y="1428" type="line"/>
      <point x="691" y="839" type="line"/>
      <point x="421" y="1428" type="line"/>
      <point x="282" y="1428" type="line"/>
      <point x="597" y="721" type="line"/>
    </contour>
  </outline>
</glyph>
<glyph name="Y" format="1">
  <advance width="1305"/>
  <unicode hex="0059"/>
  <outline>
    <contour>
      <point x="454" y="0" type="line"/>
      <point x="598" y="0" type="line"/>
      <point x="698" y="569" type="line"/>
      <point x="1365" y="1428" type="line"/>
      <point x="1214" y="1428" type="line"/>
      <point x="644" y="675" type="line"/>
      <point x="345" y="1428" type="line"/>
      <point x="192" y="1428" type="line"/>
      <point x="554" y="569" type="line"/>
    </contour>
    <contour>
      <point x="796" y="1428" type="move" name="top"/>
    </contour>
  </outline>
</glyph>
<glyph name="Z" format="1">
  <advance width="1254"/>
  <unicode hex="005A"/>
  <outline>
    <contour>
      <point x="89" y="0" type="line"/>
      <point x="944" y="0" type="line"/>
      <point x="967" y="132" type="line"/>
      <point x="275" y="132" type="line"/>
      <point x="1163" y="1319" type="line"/>
      <point x="1182" y="1428" type="line"/>
      <point x="375" y="1428" type="line"/>
      <point x="352" y="1300" type="line"/>
      <point x="995" y="1300" type="line"/>
      <point x="111" y="125" type="line"/>
    </contour>
    <contour>
      <point x="770" y="1428" type="move" name="top"/>
    </contour>
  </outline>
</glyph>
<glyph name="bracketleft" format="1">
  <advance width="724"/>
  <unicode hex="005B"/>
  <outline>
    <contour>
      <point x="145" y="-68" type="line"/>
      <point x="461" y="-68" type="line"/>
      <point x="481" y="50" type="line"/>
      <point x="302" y="50" type="line"/>
      <point x="536" y="1375" type="line"/>
      <point x="715" y="1375" type="line"/>
      <point x="735" y="1491" type="line"/>
      <point x="419" y="1491" type="line"/>
    </contour>
  </outline>
</glyph>
<glyph name="backslash" format="1">
  <advance width="614"/>
  <unicode hex="005C"/>
  <outline>
    <contour>
      <point x="297" y="0" type="line"/>
      <point x="444" y="0" type="line"/>
      <point x="324" y="1500" type="line"/>
      <point x="171" y="1500" type="line"/>
    </contour>
  </outline>
</glyph>
<glyph name="bracketright" format="1">
  <advance width="724"/>
  <unicode hex="005D"/>
  <outline>
    <contour>
      <point x="87" y="-68" type="line"/>
      <point x="403" y="-68" type="line"/>
      <point x="677" y="1491" type="line"/>
      <point x="361" y="1491" type="line"/>
      <point x="341" y="1373" type="line"/>
      <point x="519" y="1373" type="line"/>
      <point x="285" y="48" type="line"/>
      <point x="107" y="48" type="line"/>
    </contour>
  </outline>
</glyph>
<glyph name="asciicircum" format="1">
  <advance width="1257"/>
  <unicode hex="005E"/>
  <outline>
    <contour>
      <point x="146" y="695" type="line"/>
      <point x="315" y="695" type="line"/>
      <point x="667" y="1190" type="line"/>
      <point x="848" y="695" type="line"/>
      <point x="1021" y="695" type="line"/>
      <point x="781" y="1283" type="line"/>
      <point x="581" y="1283" type="line"/>
    </contour>
  </outline>
</glyph>
<glyph name="grave" format="1">
  <advance width="652"/>
  <unicode hex="0060"/>
  <outline>
    <contour>
      <point x="28" y="1586" type="line"/>
      <point x="197" y="1196" type="line"/>
      <point x="312" y="1196" type="line"/>
      <point x="228" y="1586" type="line"/>
    </contour>
    <contour>
      <point x="244" y="1052" type="move" name="_top"/>
    </contour>
  </outline>
</glyph>
<glyph name="a" format="1">
  <advance width="1171"/>
  <unicode hex="0061"/>
  <outline>
    <contour>
      <point x="905" y="0" type="move" name="ogonek"/>
    </contour>
    <contour>
      <point x="671" y="1052" type="move" name="top"/>
    </contour>
    <contour>
      <point x="116" y="264" type="curve" smooth="yes"/>
      <point x="111" y="233"/>
      <point x="107" y="205"/>
      <point x="107" y="178" type="curve" smooth="yes"/>
      <point x="107" y="57"/>
      <point x="171" y="-21"/>
      <point x="372" y="-21" type="curve"/>
      <point x="589" y="-21"/>
      <point x="709" y="104"/>
      <point x="755" y="162" type="curve"/>
      <point x="768" y="54"/>
      <point x="800" y="-8"/>
      <point x="930" y="-8" type="curve" smooth="yes"/>
      <point x="936" y="-8" type="line"/>
      <point x="984" y="104" type="line"/>
      <point x="919" y="104"/>
      <point x="891" y="116"/>
      <point x="891" y="174" type="curve" smooth="yes"/>
      <point x="891" y="192"/>
      <point x="894" y="215"/>
      <point x="899" y="244" type="curve" smooth="yes"/>
      <point x="981" y="712" type="line" smooth="yes"/>
      <point x="988" y="749"/>
      <point x="991" y="784"/>
      <point x="991" y="817" type="curve" smooth="yes"/>
      <point x="991" y="973"/>
      <point x="911" y="1070"/>
      <point x="700" y="1070" type="curve" smooth="yes"/>
      <point x="431" y="1070"/>
      <point x="276" y="1003"/>
      <point x="239" y="793" type="curve" smooth="yes"/>
      <point x="229" y="736" type="line"/>
      <point x="365" y="736" type="line"/>
      <point x="374" y="786" type="line" smooth="yes"/>
      <point x="389" y="872"/>
      <point x="415" y="953"/>
      <point x="674" y="953" type="curve" smooth="yes"/>
      <point x="825" y="953"/>
      <point x="859" y="896"/>
      <point x="859" y="831" type="curve" smooth="yes"/>
      <point x="859" y="811"/>
      <point x="856" y="791"/>
      <point x="852" y="771" type="curve" smooth="yes"/>
      <point x="841" y="707"/>
      <point x="834" y="675"/>
      <point x="797" y="663" type="curve" smooth="yes"/>
      <point x="547" y="576" type="line" smooth="yes"/>
      <point x="229" y="465"/>
      <point x="141" y="408"/>
    </contour>
    <contour>
      <point x="407" y="92" type="curve" smooth="yes"/>
      <point x="275" y="92"/>
      <point x="238" y="118"/>
      <point x="238" y="187" type="curve" smooth="yes"/>
      <point x="238" y="208"/>
      <point x="242" y="233"/>
      <point x="247" y="262" type="curve" smooth="yes"/>
      <point x="265" y="365"/>
      <point x="346" y="404"/>
      <point x="546" y="476" type="curve"/>
      <point x="817" y="571" type="line"/>
      <point x="770" y="302" type="line"/>
      <point x="734" y="194"/>
      <point x="549" y="92"/>
    </contour>
  </outline>
</glyph>
<glyph name="b" format="1">
  <advance width="1187"/>
  <unicode hex="0062"/>
  <outline>
    <contour>
      <point x="696" y="1052" type="move" name="top"/>
    </contour>
    <contour>
      <point x="469" y="-21" type="curve" smooth="yes"/>
      <point x="754" y="-21"/>
      <point x="930" y="150"/>
      <point x="968" y="366" type="curve" smooth="yes"/>
      <point x="1032" y="726" type="line" smooth="yes"/>
      <point x="1036" y="751"/>
      <point x="1039" y="775"/>
      <point x="1039" y="798" type="curve" smooth="yes"/>
      <point x="1039" y="972"/>
      <point x="912" y="1070"/>
      <point x="689" y="1070" type="curve" smooth="yes"/>
      <point x="584" y="1070"/>
      <point x="455" y="1034"/>
      <point x="378" y="992" type="curve"/>
      <point x="467" y="1500" type="line"/>
      <point x="330" y="1500" type="line"/>
      <point x="66" y="0" type="line"/>
      <point x="176" y="0" type="line"/>
      <point x="211" y="75" type="line"/>
      <point x="254" y="46"/>
      <point x="337" y="-21"/>
    </contour>
    <contour>
      <point x="472" y="101" type="curve" smooth="yes"/>
      <point x="373" y="101"/>
      <point x="291" y="140"/>
      <point x="233" y="171" type="curve"/>
      <point x="357" y="878" type="line"/>
      <point x="465" y="923"/>
      <point x="602" y="953"/>
      <point x="684" y="953" type="curve" smooth="yes"/>
      <point x="816" y="953"/>
      <point x="902" y="898"/>
      <point x="902" y="788" type="curve" smooth="yes"/>
      <point x="902" y="775"/>
      <point x="901" y="760"/>
      <point x="898" y="745" type="curve" smooth="yes"/>
      <point x="826" y="337" type="line" smooth="yes"/>
      <point x="801" y="194"/>
      <point x="638" y="101"/>
    </contour>
  </outline>
</glyph>
<glyph name="c" format="1">
  <advance width="1075"/>
  <unicode hex="0063"/>
  <outline>
    <contour>
      <point x="448" y="0" type="move" name="bot"/>
    </contour>
    <contour>
      <point x="676" y="1052" type="move" name="top"/>
    </contour>
    <contour>
      <point x="477" y="-21" type="curve" smooth="yes"/>
      <point x="731" y="-21"/>
      <point x="856" y="59"/>
      <point x="923" y="268" type="curve"/>
      <point x="797" y="268" type="line"/>
      <point x="748" y="122"/>
      <point x="704" y="94"/>
      <point x="493" y="94" type="curve" smooth="yes"/>
      <point x="345" y="94"/>
      <point x="250" y="143"/>
      <point x="250" y="273" type="curve" smooth="yes"/>
      <point x="250" y="291"/>
      <point x="252" y="311"/>
      <point x="256" y="332" type="curve" smooth="yes"/>
      <point x="327" y="735" type="line" smooth="yes"/>
      <point x="355" y="894"/>
      <point x="456" y="953"/>
      <point x="645" y="953" type="curve" smooth="yes"/>
      <point x="809" y="953"/>
      <point x="881" y="928"/>
      <point x="881" y="807" type="curve" smooth="yes"/>
      <point x="881" y="783"/>
      <point x="878" y="756"/>
      <point x="873" y="724" type="curve"/>
      <point x="1008" y="739" type="line"/>
      <point x="1014" y="771"/>
      <point x="1016" y="800"/>
      <point x="1016" y="827" type="curve" smooth="yes"/>
      <point x="1016" y="1023"/>
      <point x="867" y="1070"/>
      <point x="663" y="1070" type="curve" smooth="yes"/>
      <point x="411" y="1070"/>
      <point x="225" y="934"/>
      <point x="192" y="743" type="curve" smooth="yes"/>
      <point x="123" y="354" type="line" smooth="yes"/>
      <point x="118" y="329"/>
      <point x="116" y="304"/>
      <point x="116" y="280" type="curve" smooth="yes"/>
      <point x="116" y="112"/>
      <point x="228" y="-21"/>
    </contour>
  </outline>
</glyph>
<glyph name="d" format="1">
  <advance width="1183"/>
  <unicode hex="0064"/>
  <outline>
    <contour>
      <point x="435" y="-21" type="curve" smooth="yes"/>
      <point x="543" y="-21"/>
      <point x="678" y="27"/>
      <point x="744" y="74" type="curve"/>
      <point x="763" y="0" type="line"/>
      <point x="858" y="0" type="line"/>
      <point x="1122" y="1500" type="line"/>
      <point x="984" y="1500" type="line"/>
      <point x="901" y="1029" type="line"/>
      <point x="837" y="1053"/>
      <point x="723" y="1070"/>
      <point x="652" y="1070" type="curve" smooth="yes"/>
      <point x="347" y="1070"/>
      <point x="189" y="946"/>
      <point x="150" y="724" type="curve" smooth="yes"/>
      <point x="83" y="342" type="line" smooth="yes"/>
      <point x="78" y="313"/>
      <point x="75" y="284"/>
      <point x="75" y="257" type="curve" smooth="yes"/>
      <point x="75" y="100"/>
      <point x="168" y="-21"/>
    </contour>
    <contour>
      <point x="456" y="101" type="curve" smooth="yes"/>
      <point x="321" y="101"/>
      <point x="213" y="163"/>
      <point x="213" y="284" type="curve" smooth="yes"/>
      <point x="213" y="296"/>
      <point x="214" y="309"/>
      <point x="216" y="322" type="curve" smooth="yes"/>
      <point x="293" y="754" type="line" smooth="yes"/>
      <point x="318" y="897"/>
      <point x="459" y="953"/>
      <point x="621" y="953" type="curve" smooth="yes"/>
      <point x="717" y="953"/>
      <point x="817" y="938"/>
      <point x="879" y="905" type="curve"/>
      <point x="751" y="176" type="line"/>
      <point x="702" y="149"/>
      <point x="582" y="101"/>
    </contour>
    <contour>
      <point x="1005" y="1269" type="move" name="mid"/>
    </contour>
    <contour>
      <point x="801" y="1052" type="move" name="caron.alt"/>
    </contour>
    <contour>
      <point x="661" y="1052" type="move" name="top"/>
    </contour>
  </outline>
</glyph>
<glyph name="e" format="1">
  <advance width="1112"/>
  <unicode hex="0065"/>
  <outline>
    <contour>
      <point x="469" y="-21" type="curve" smooth="yes"/>
      <point x="769" y="-21"/>
      <point x="859" y="42"/>
      <point x="919" y="253" type="curve"/>
      <point x="802" y="253" type="line"/>
      <point x="758" y="104"/>
      <point x="691" y="96"/>
      <point x="486" y="96" type="curve" smooth="yes"/>
      <point x="304" y="96"/>
      <point x="251" y="148"/>
      <point x="251" y="258" type="curve" smooth="yes"/>
      <point x="251" y="294"/>
      <point x="256" y="336"/>
      <point x="265" y="385" type="curve" smooth="yes"/>
      <point x="289" y="519" type="line"/>
      <point x="976" y="519" type="line"/>
      <point x="1020" y="766" type="line" smooth="yes"/>
      <point x="1024" y="787"/>
      <point x="1025" y="807"/>
      <point x="1025" y="826" type="curve" smooth="yes"/>
      <point x="1025" y="981"/>
      <point x="906" y="1070"/>
      <point x="668" y="1070" type="curve" smooth="yes"/>
      <point x="349" y="1070"/>
      <point x="223" y="924"/>
      <point x="190" y="736" type="curve" smooth="yes"/>
      <point x="131" y="397" type="line" smooth="yes"/>
      <point x="121" y="339"/>
      <point x="114" y="287"/>
      <point x="114" y="240" type="curve" smooth="yes"/>
      <point x="114" y="72"/>
      <point x="197" y="-21"/>
    </contour>
    <contour>
      <point x="307" y="622" type="line"/>
      <point x="330" y="753" type="line" smooth="yes"/>
      <point x="355" y="894"/>
      <point x="470" y="953"/>
      <point x="644" y="953" type="curve" smooth="yes"/>
      <point x="795" y="953"/>
      <point x="888" y="919"/>
      <point x="888" y="815" type="curve" smooth="yes"/>
      <point x="888" y="804"/>
      <point x="887" y="792"/>
      <point x="885" y="779" type="curve" smooth="yes"/>
      <point x="857" y="622" type="line"/>
    </contour>
    <contour>
      <point x="489" y="0" type="move" name="bot"/>
    </contour>
    <contour>
      <point x="601" y="0" type="move" name="ogonek"/>
    </contour>
    <contour>
      <point x="657" y="1052" type="move" name="top"/>
    </contour>
  </outline>
</glyph>
<glyph name="f" format="1">
  <advance width="784"/>
  <unicode hex="0066"/>
  <outline>
    <contour>
      <point x="177" y="0" type="line"/>
      <point x="315" y="0" type="line"/>
      <point x="481" y="940" type="line"/>
      <point x="763" y="940" type="line"/>
      <point x="782" y="1052" type="line"/>
      <point x="500" y="1052" type="line"/>
      <point x="539" y="1271" type="line" smooth="yes"/>
      <point x="553" y="1349"/>
      <point x="610" y="1399"/>
      <point x="723" y="1399" type="curve" smooth="yes"/>
      <point x="858" y="1399" type="line"/>
      <point x="860" y="1498" type="line"/>
      <point x="745" y="1498" type="line" smooth="yes"/>
      <point x="550" y="1498"/>
      <point x="431" y="1442"/>
      <point x="402" y="1279" type="curve" smooth="yes"/>
      <point x="362" y="1052" type="line"/>
      <point x="165" y="1052" type="line"/>
      <point x="146" y="940" type="line"/>
      <point x="343" y="940" type="line"/>
    </contour>
    <contour>
      <point x="488" y="1428" type="move" name="top"/>
    </contour>
  </outline>
</glyph>
<glyph name="g" format="1">
  <advance width="1145"/>
  <unicode hex="0067"/>
  <outline>
    <contour>
      <point x="482" y="-388" type="curve" smooth="yes"/>
      <point x="723" y="-388"/>
      <point x="877" y="-191"/>
      <point x="919" y="47" type="curve" smooth="yes"/>
      <point x="1096" y="1051" type="line"/>
      <point x="976" y="1051" type="line"/>
      <point x="946" y="971" type="line"/>
      <point x="916" y="1018"/>
      <point x="841" y="1070"/>
      <point x="680" y="1070" type="curve" smooth="yes"/>
      <point x="420" y="1070"/>
      <point x="260" y="945"/>
      <point x="219" y="714" type="curve" smooth="yes"/>
      <point x="161" y="387" type="line" smooth="yes"/>
      <point x="155" y="354"/>
      <point x="152" y="323"/>
      <point x="152" y="295" type="curve" smooth="yes"/>
      <point x="152" y="130"/>
      <point x="255" y="45"/>
      <point x="493" y="45" type="curve" smooth="yes"/>
      <point x="560" y="45"/>
      <point x="728" y="66"/>
      <point x="796" y="133" type="curve"/>
      <point x="767" y="-32" type="line" smooth="yes"/>
      <point x="739" y="-194"/>
      <point x="648" y="-279"/>
      <point x="446" y="-279" type="curve" smooth="yes"/>
      <point x="336" y="-279"/>
      <point x="223" y="-260"/>
      <point x="194" y="-243" type="curve"/>
      <point x="141" y="-358" type="line"/>
      <point x="216" y="-383"/>
      <point x="333" y="-388"/>
    </contour>
    <contour>
      <point x="533" y="167" type="curve" smooth="yes"/>
      <point x="394" y="167"/>
      <point x="288" y="201"/>
      <point x="288" y="311" type="curve" smooth="yes"/>
      <point x="288" y="322"/>
      <point x="289" y="334"/>
      <point x="291" y="346" type="curve" smooth="yes"/>
      <point x="361" y="743" type="line" smooth="yes"/>
      <point x="386" y="886"/>
      <point x="508" y="953"/>
      <point x="670" y="953" type="curve" smooth="yes"/>
      <point x="840" y="953"/>
      <point x="912" y="908"/>
      <point x="912" y="810" type="curve" smooth="yes"/>
      <point x="912" y="796"/>
      <point x="911" y="781"/>
      <point x="908" y="765" type="curve" smooth="yes"/>
      <point x="820" y="266" type="line"/>
      <point x="791" y="244"/>
      <point x="702" y="167"/>
    </contour>
    <contour>
      <point x="682" y="1052" type="move" name="top"/>
    </contour>
  </outline>
</glyph>
<glyph name="h" format="1">
  <advance width="1195"/>
  <unicode hex="0068"/>
  <outline>
    <contour>
      <point x="64" y="0" type="line"/>
      <point x="201" y="0" type="line"/>
      <point x="336" y="764" type="line" smooth="yes"/>
      <point x="353" y="865"/>
      <point x="459" y="961"/>
      <point x="694" y="961" type="curve" smooth="yes"/>
      <point x="833" y="961"/>
      <point x="888" y="913"/>
      <point x="888" y="834" type="curve" smooth="yes"/>
      <point x="888" y="823"/>
      <point x="887" y="811"/>
      <point x="885" y="799" type="curve" smooth="yes"/>
      <point x="744" y="0" type="line"/>
      <point x="882" y="0" type="line"/>
      <point x="1016" y="760" type="line" smooth="yes"/>
      <point x="1021" y="788"/>
      <point x="1024" y="817"/>
      <point x="1024" y="844" type="curve" smooth="yes"/>
      <point x="1024" y="969"/>
      <point x="959" y="1070"/>
      <point x="717" y="1070" type="curve" smooth="yes"/>
      <point x="540" y="1070"/>
      <point x="432" y="1014"/>
      <point x="367" y="944" type="curve"/>
      <point x="465" y="1499" type="line"/>
      <point x="328" y="1499" type="line"/>
    </contour>
    <contour>
      <point x="773" y="1332" type="move" name="top"/>
    </contour>
  </outline>
</glyph>
<glyph name="k" format="1">
  <advance width="1105"/>
  <unicode hex="006B"/>
  <outline>
    <contour>
      <point x="64" y="0" type="line"/>
      <point x="201" y="0" type="line"/>
      <point x="262" y="350" type="line"/>
      <point x="454" y="514" type="line"/>
      <point x="790" y="0" type="line"/>
      <point x="959" y="0" type="line"/>
      <point x="557" y="584" type="line"/>
      <point x="1086" y="1052" type="line"/>
      <point x="942" y="1052" type="line"/>
      <point x="286" y="486" type="line"/>
      <point x="465" y="1500" type="line"/>
      <point x="328" y="1500" type="line"/>
    </contour>
    <contour>
      <point x="471" y="0" type="move" name="bot"/>
    </contour>
    <contour>
      <point x="722" y="1052" type="move" name="top"/>
    </contour>
  </outline>
</glyph>
<glyph name="l" format="1">
  <advance width="667"/>
  <unicode hex="006C"/>
  <outline>
    <contour>
      <point x="395" y="-6" type="curve" smooth="yes"/>
      <point x="413" y="-6" type="line"/>
      <point x="460" y="126" type="line"/>
      <point x="427" y="126" type="line" smooth="yes"/>
      <point x="304" y="126"/>
      <point x="257" y="139"/>
      <point x="257" y="234" type="curve" smooth="yes"/>
      <point x="257" y="265"/>
      <point x="262" y="305"/>
      <point x="271" y="355" type="curve" smooth="yes"/>
      <point x="473" y="1499" type="line"/>
      <point x="335" y="1499" type="line"/>
      <point x="134" y="361" type="line" smooth="yes"/>
      <point x="122" y="295"/>
      <point x="117" y="241"/>
      <point x="117" y="197" type="curve" smooth="yes"/>
      <point x="117" y="16"/>
      <point x="212" y="-6"/>
    </contour>
    <contour>
      <point x="233" y="1052" type="move" name="caron.alt"/>
    </contour>
    <contour>
      <point x="212" y="815" type="move" name="mid"/>
    </contour>
    <contour>
      <point x="414" y="1502" type="move" name="top"/>
    </contour>
    <contour>
      <point x="193" y="0" type="move" name="bot"/>
    </contour>
  </outline>
</glyph>
<glyph name="m" format="1">
  <advance width="1829"/>
  <unicode hex="006D"/>
  <outline>
    <contour>
      <point x="103" y="0" type="line"/>
      <point x="240" y="0" type="line"/>
      <point x="375" y="765" type="line" smooth="yes"/>
      <point x="392" y="865"/>
      <point x="463" y="959"/>
      <point x="710" y="959" type="curve" smooth="yes"/>
      <point x="841" y="959"/>
      <point x="903" y="907"/>
      <point x="903" y="825" type="curve" smooth="yes"/>
      <point x="903" y="814"/>
      <point x="902" y="804"/>
      <point x="900" y="792" type="curve" smooth="yes"/>
      <point x="761" y="0" type="line"/>
      <point x="899" y="0" type="line"/>
      <point x="944" y="257"/>
      <point x="989" y="513"/>
      <point x="1034" y="770" type="curve" smooth="yes"/>
      <point x="1052" y="871"/>
      <point x="1130" y="959"/>
      <point x="1369" y="959" type="curve" smooth="yes"/>
      <point x="1497" y="959"/>
      <point x="1555" y="908"/>
      <point x="1555" y="827" type="curve" smooth="yes"/>
      <point x="1555" y="816"/>
      <point x="1554" y="804"/>
      <point x="1552" y="792" type="curve" smooth="yes"/>
      <point x="1413" y="0" type="line"/>
      <point x="1550" y="0" type="line"/>
      <point x="1683" y="756" type="line" smooth="yes"/>
      <point x="1689" y="788"/>
      <point x="1693" y="820"/>
      <point x="1693" y="851" type="curve" smooth="yes"/>
      <point x="1693" y="972"/>
      <point x="1633" y="1070"/>
      <point x="1388" y="1070" type="curve" smooth="yes"/>
      <point x="1227" y="1070"/>
      <point x="1102" y="1034"/>
      <point x="1020" y="927" type="curve"/>
      <point x="987" y="1005"/>
      <point x="919" y="1070"/>
      <point x="729" y="1070" type="curve" smooth="yes"/>
      <point x="581" y="1070"/>
      <point x="484" y="1040"/>
      <point x="406" y="944" type="curve"/>
      <point x="425" y="1052" type="line"/>
      <point x="288" y="1052" type="line"/>
    </contour>
    <contour>
      <point x="1044" y="1052" type="move" name="top"/>
    </contour>
  </outline>
</glyph>
<glyph name="n" format="1">
  <advance width="1195"/>
  <unicode hex="006E"/>
  <outline>
    <contour>
      <point x="488" y="0" type="move" name="bot"/>
    </contour>
    <contour>
      <point x="711" y="1052" type="move" name="top"/>
    </contour>
    <contour>
      <point x="103" y="0" type="line"/>
      <point x="241" y="0" type="line"/>
      <point x="376" y="767" type="line" smooth="yes"/>
      <point x="394" y="867"/>
      <point x="505" y="961"/>
      <point x="733" y="961" type="curve" smooth="yes"/>
      <point x="875" y="961"/>
      <point x="926" y="914"/>
      <point x="926" y="837" type="curve" smooth="yes"/>
      <point x="926" y="825"/>
      <point x="925" y="811"/>
      <point x="922" y="797" type="curve" smooth="yes"/>
      <point x="782" y="0" type="line"/>
      <point x="920" y="0" type="line"/>
      <point x="1059" y="790" type="line" smooth="yes"/>
      <point x="1063" y="813"/>
      <point x="1065" y="836"/>
      <point x="1065" y="857" type="curve" smooth="yes"/>
      <point x="1065" y="982"/>
      <point x="988" y="1069"/>
      <point x="752" y="1069" type="curve" smooth="yes"/>
      <point x="600" y="1069"/>
      <point x="495" y="1035"/>
      <point x="407" y="944" type="curve"/>
      <point x="426" y="1052" type="line"/>
      <point x="288" y="1052" type="line"/>
    </contour>
  </outline>
</glyph>
<glyph name="o" format="1">
  <advance width="1140"/>
  <unicode hex="006F"/>
  <outline>
    <contour>
      <point x="518" y="0" type="move" name="ogonek"/>
    </contour>
    <contour>
      <point x="663" y="1052" type="move" name="top"/>
    </contour>
    <contour>
      <point x="191" y="739" type="curve" smooth="yes"/>
      <point x="121" y="343" type="line" smooth="yes"/>
      <point x="115" y="311"/>
      <point x="112" y="280"/>
      <point x="112" y="252" type="curve" smooth="yes"/>
      <point x="112" y="82"/>
      <point x="219" y="-21"/>
      <point x="474" y="-21" type="curve" smooth="yes"/>
      <point x="772" y="-21"/>
      <point x="915" y="119"/>
      <point x="955" y="343" type="curve" smooth="yes"/>
      <point x="1025" y="739" type="line" smooth="yes"/>
      <point x="1029" y="764"/>
      <point x="1032" y="789"/>
      <point x="1032" y="811" type="curve" smooth="yes"/>
      <point x="1032" y="981"/>
      <point x="905" y="1070"/>
      <point x="666" y="1070" type="curve" smooth="yes"/>
      <point x="395" y="1070"/>
      <point x="229" y="956"/>
    </contour>
    <contour>
      <point x="818" y="343" type="line" smooth="yes"/>
      <point x="785" y="157"/>
      <point x="693" y="94"/>
      <point x="494" y="94" type="curve" smooth="yes"/>
      <point x="326" y="94"/>
      <point x="250" y="139"/>
      <point x="250" y="264" type="curve" smooth="yes"/>
      <point x="250" y="287"/>
      <point x="253" y="314"/>
      <point x="258" y="343" type="curve" smooth="yes"/>
      <point x="328" y="739" type="line" smooth="yes"/>
      <point x="355" y="894"/>
      <point x="446" y="953"/>
      <point x="646" y="953" type="curve" smooth="yes"/>
      <point x="819" y="953"/>
      <point x="894" y="909"/>
      <point x="894" y="797" type="curve" smooth="yes"/>
      <point x="894" y="779"/>
      <point x="892" y="760"/>
      <point x="888" y="739" type="curve" smooth="yes"/>
    </contour>
  </outline>
</glyph>
<glyph name="p" format="1">
  <advance width="1191"/>
  <unicode hex="0070"/>
  <outline>
    <contour>
      <point x="744" y="1052" type="move" name="top"/>
    </contour>
    <contour>
      <point x="67" y="-407" type="line"/>
      <point x="204" y="-407" type="line"/>
      <point x="283" y="44" type="line"/>
      <point x="329" y="16"/>
      <point x="410" y="-21"/>
      <point x="549" y="-21" type="curve" smooth="yes"/>
      <point x="809" y="-21"/>
      <point x="991" y="124"/>
      <point x="1032" y="355" type="curve" smooth="yes"/>
      <point x="1096" y="716" type="line" smooth="yes"/>
      <point x="1101" y="743"/>
      <point x="1103" y="770"/>
      <point x="1103" y="795" type="curve" smooth="yes"/>
      <point x="1103" y="957"/>
      <point x="1001" y="1070"/>
      <point x="761" y="1070" type="curve" smooth="yes"/>
      <point x="637" y="1070"/>
      <point x="506" y="1014"/>
      <point x="451" y="966" type="curve"/>
      <point x="447" y="1052" type="line"/>
      <point x="324" y="1052" type="line"/>
    </contour>
    <contour>
      <point x="564" y="96" type="curve" smooth="yes"/>
      <point x="453" y="96"/>
      <point x="365" y="120"/>
      <point x="304" y="159" type="curve"/>
      <point x="419" y="814" type="line"/>
      <point x="432" y="837"/>
      <point x="561" y="953"/>
      <point x="722" y="953" type="curve" smooth="yes"/>
      <point x="860" y="953"/>
      <point x="966" y="889"/>
      <point x="966" y="773" type="curve" smooth="yes"/>
      <point x="966" y="761"/>
      <point x="965" y="750"/>
      <point x="963" y="737" type="curve" smooth="yes"/>
      <point x="890" y="326" type="line" smooth="yes"/>
      <point x="865" y="184"/>
      <point x="726" y="96"/>
    </contour>
  </outline>
</glyph>
<glyph name="q" format="1">
  <advance width="1194"/>
  <unicode hex="0071"/>
  <outline>
    <contour>
      <point x="730" y="-407" type="line"/>
      <point x="867" y="-407" type="line"/>
      <point x="1124" y="1052" type="line"/>
      <point x="945" y="1052" type="line"/>
      <point x="940" y="957" type="line"/>
      <point x="937" y="1006"/>
      <point x="806" y="1070"/>
      <point x="700" y="1070" type="curve" smooth="yes"/>
      <point x="415" y="1070"/>
      <point x="268" y="930"/>
      <point x="230" y="715" type="curve" smooth="yes"/>
      <point x="159" y="312" type="line" smooth="yes"/>
      <point x="155" y="290"/>
      <point x="153" y="269"/>
      <point x="153" y="249" type="curve" smooth="yes"/>
      <point x="153" y="72"/>
      <point x="305" y="-21"/>
      <point x="533" y="-21" type="curve" smooth="yes"/>
      <point x="600" y="-21"/>
      <point x="736" y="-2"/>
      <point x="811" y="55" type="curve"/>
    </contour>
    <contour>
      <point x="541" y="96" type="curve" smooth="yes"/>
      <point x="405" y="96"/>
      <point x="286" y="126"/>
      <point x="286" y="238" type="curve" smooth="yes"/>
      <point x="286" y="248"/>
      <point x="287" y="259"/>
      <point x="289" y="270" type="curve" smooth="yes"/>
      <point x="373" y="743" type="line" smooth="yes"/>
      <point x="398" y="886"/>
      <point x="531" y="953"/>
      <point x="698" y="953" type="curve" smooth="yes"/>
      <point x="876" y="953"/>
      <point x="947" y="888"/>
      <point x="947" y="825" type="curve" smooth="yes"/>
      <point x="947" y="812"/>
      <point x="944" y="803"/>
      <point x="941" y="793" type="curve"/>
      <point x="835" y="190" type="line"/>
      <point x="815" y="160"/>
      <point x="697" y="96"/>
    </contour>
  </outline>
</glyph>
<glyph name="r" format="1">
  <advance width="764"/>
  <unicode hex="0072"/>
  <outline>
    <contour>
      <point x="108" y="0" type="line"/>
      <point x="245" y="0" type="line"/>
      <point x="373" y="723" type="line" smooth="yes"/>
      <point x="373" y="727"/>
      <point x="373" y="731"/>
      <point x="374" y="735" type="curve" smooth="yes"/>
      <point x="393" y="846"/>
      <point x="563" y="947"/>
      <point x="757" y="947" type="curve" smooth="yes"/>
      <point x="768" y="947" type="line"/>
      <point x="795" y="1066" type="line"/>
      <point x="624" y="1060"/>
      <point x="475" y="1016"/>
      <point x="396" y="856" type="curve"/>
      <point x="431" y="1052" type="line"/>
      <point x="294" y="1052" type="line"/>
    </contour>
    <contour>
      <point x="183" y="0" type="move" name="bot"/>
    </contour>
    <contour>
      <point x="530" y="1052" type="move" name="top"/>
    </contour>
  </outline>
</glyph>
<glyph name="s" format="1">
  <advance width="929"/>
  <unicode hex="0073"/>
  <outline>
    <contour>
      <point x="610" y="1070" type="curve" smooth="yes"/>
      <point x="343" y="1070"/>
      <point x="231" y="969"/>
      <point x="202" y="804" type="curve" smooth="yes"/>
      <point x="197" y="773"/>
      <point x="194" y="747"/>
      <point x="194" y="723" type="curve" smooth="yes"/>
      <point x="194" y="622"/>
      <point x="244" y="579"/>
      <point x="358" y="536" type="curve" smooth="yes"/>
      <point x="565" y="457" type="line" smooth="yes"/>
      <point x="640" y="428"/>
      <point x="661" y="396"/>
      <point x="661" y="349" type="curve" smooth="yes"/>
      <point x="661" y="325"/>
      <point x="656" y="298"/>
      <point x="650" y="265" type="curve" smooth="yes"/>
      <point x="629" y="146"/>
      <point x="561" y="94"/>
      <point x="395" y="94" type="curve" smooth="yes"/>
      <point x="228" y="94"/>
      <point x="159" y="133"/>
      <point x="107" y="165" type="curve"/>
      <point x="48" y="58" type="line"/>
      <point x="106" y="20"/>
      <point x="189" y="-21"/>
      <point x="375" y="-21" type="curve" smooth="yes"/>
      <point x="668" y="-21"/>
      <point x="754" y="123"/>
      <point x="780" y="271" type="curve" smooth="yes"/>
      <point x="789" y="320"/>
      <point x="796" y="362"/>
      <point x="796" y="397" type="curve" smooth="yes"/>
      <point x="796" y="477"/>
      <point x="762" y="528"/>
      <point x="643" y="573" type="curve" smooth="yes"/>
      <point x="414" y="659" type="line"/>
      <point x="354" y="683"/>
      <point x="333" y="705"/>
      <point x="333" y="750" type="curve" smooth="yes"/>
      <point x="333" y="766"/>
      <point x="336" y="784"/>
      <point x="340" y="807" type="curve" smooth="yes"/>
      <point x="360" y="922"/>
      <point x="439" y="955"/>
      <point x="594" y="955" type="curve" smooth="yes"/>
      <point x="703" y="955"/>
      <point x="793" y="932"/>
      <point x="835" y="910" type="curve"/>
      <point x="891" y="1013" type="line"/>
      <point x="846" y="1037"/>
      <point x="764" y="1070"/>
    </contour>
    <contour>
      <point x="359" y="0" type="move" name="bot"/>
    </contour>
    <contour>
      <point x="600" y="1052" type="move" name="top"/>
    </contour>
  </outline>
</glyph>
<glyph name="t" format="1">
  <advance width="815"/>
  <unicode hex="0074"/>
  <outline>
    <contour>
      <point x="328" y="37" type="move" name="bot"/>
    </contour>
    <contour>
      <point x="361" y="583" type="move" name="mid"/>
    </contour>
    <contour>
      <point x="567" y="1203" type="move" name="top"/>
    </contour>
    <contour>
      <point x="221" y="1052" type="move" name="caron.alt"/>
    </contour>
    <contour>
      <point x="572" y="-6" type="curve" smooth="yes"/>
      <point x="591" y="-6" type="line"/>
      <point x="624" y="104" type="line"/>
      <point x="608" y="104" type="line" smooth="yes"/>
      <point x="425" y="104"/>
      <point x="343" y="135"/>
      <point x="343" y="239" type="curve" smooth="yes"/>
      <point x="343" y="254"/>
      <point x="345" y="270"/>
      <point x="348" y="288" type="curve" smooth="yes"/>
      <point x="463" y="940" type="line"/>
      <point x="735" y="940" type="line"/>
      <point x="754" y="1052" type="line"/>
      <point x="482" y="1052" type="line"/>
      <point x="538" y="1369" type="line"/>
      <point x="428" y="1369" type="line"/>
      <point x="351" y="1052" type="line"/>
      <point x="163" y="1052" type="line"/>
      <point x="144" y="940" type="line"/>
      <point x="325" y="940" type="line"/>
      <point x="208" y="280" type="line" smooth="yes"/>
      <point x="204" y="257"/>
      <point x="202" y="237"/>
      <point x="202" y="217" type="curve" smooth="yes"/>
      <point x="202" y="57"/>
      <point x="332" y="-6"/>
    </contour>
  </outline>
</glyph>
<glyph name="u" format="1">
  <advance width="1194"/>
  <unicode hex="0075"/>
  <outline>
    <contour>
      <point x="858" y="0" type="move" name="ogonek"/>
    </contour>
    <contour>
      <point x="704" y="1052" type="move" name="top"/>
    </contour>
    <contour>
      <point x="1092" y="1052" type="line"/>
      <point x="954" y="1052" type="line"/>
      <point x="817" y="277" type="line" smooth="yes"/>
      <point x="799" y="177"/>
      <point x="689" y="88"/>
      <point x="461" y="88" type="curve" smooth="yes"/>
      <point x="319" y="88"/>
      <point x="269" y="142"/>
      <point x="269" y="220" type="curve" smooth="yes"/>
      <point x="269" y="233"/>
      <point x="270" y="247"/>
      <point x="273" y="261" type="curve" smooth="yes"/>
      <point x="413" y="1052" type="line"/>
      <point x="275" y="1052" type="line"/>
      <point x="136" y="268" type="line" smooth="yes"/>
      <point x="132" y="244"/>
      <point x="130" y="222"/>
      <point x="130" y="200" type="curve" smooth="yes"/>
      <point x="130" y="73"/>
      <point x="206" y="-20"/>
      <point x="441" y="-20" type="curve" smooth="yes"/>
      <point x="603" y="-20"/>
      <point x="711" y="29"/>
      <point x="789" y="120" type="curve"/>
      <point x="790" y="12" type="line"/>
      <point x="908" y="12" type="line"/>
    </contour>
  </outline>
</glyph>
<glyph name="v" format="1">
  <advance width="1064"/>
  <unicode hex="0076"/>
  <outline>
    <contour>
      <point x="397" y="0" type="line"/>
      <point x="528" y="0" type="line"/>
      <point x="1095" y="1052" type="line"/>
      <point x="955" y="1052" type="line"/>
      <point x="493" y="160" type="line"/>
      <point x="294" y="1052" type="line"/>
      <point x="155" y="1052" type="line"/>
    </contour>
  </outline>
</glyph>
<glyph name="w" format="1">
  <advance width="1567"/>
  <unicode hex="0077"/>
  <outline>
    <contour>
      <point x="259" y="0" type="line"/>
      <point x="389" y="0" type="line"/>
      <point x="845" y="907" type="line"/>
      <point x="987" y="0" type="line"/>
      <point x="1107" y="0" type="line"/>
      <point x="1618" y="1052" type="line"/>
      <point x="1491" y="1052" type="line"/>
      <point x="1082" y="188" type="line"/>
      <point x="949" y="1052" type="line"/>
      <point x="792" y="1052" type="line"/>
      <point x="365" y="182" type="line"/>
      <point x="258" y="1052" type="line"/>
      <point x="135" y="1052" type="line"/>
    </contour>
    <contour>
      <point x="879" y="1052" type="move" name="top"/>
    </contour>
  </outline>
</glyph>
<glyph name="x" format="1">
  <advance width="1019"/>
  <unicode hex="0078"/>
  <outline>
    <contour>
      <point x="-23" y="0" type="line"/>
      <point x="103" y="0" type="line"/>
      <point x="499" y="442" type="line"/>
      <point x="738" y="0" type="line"/>
      <point x="869" y="0" type="line"/>
      <point x="581" y="534" type="line"/>
      <point x="1048" y="1052" type="line"/>
      <point x="924" y="1052" type="line"/>
      <point x="536" y="623" type="line"/>
      <point x="304" y="1052" type="line"/>
      <point x="172" y="1052" type="line"/>
      <point x="452" y="529" type="line"/>
    </contour>
  </outline>
</glyph>
<glyph name="y" format="1">
  <advance width="1117"/>
  <unicode hex="0079"/>
  <outline>
    <contour>
      <point x="90" y="-371" type="line"/>
      <point x="105" y="-372"/>
      <point x="120" y="-372"/>
      <point x="135" y="-372" type="curve" smooth="yes"/>
      <point x="396" y="-372"/>
      <point x="516" y="-223"/>
      <point x="622" y="-12" type="curve"/>
      <point x="1172" y="1052" type="line"/>
      <point x="1030" y="1052" type="line"/>
      <point x="568" y="134" type="line"/>
      <point x="379" y="1052" type="line"/>
      <point x="218" y="1052" type="line"/>
      <point x="485" y="-15" type="line"/>
      <point x="416" y="-173"/>
      <point x="277" y="-259"/>
      <point x="148" y="-259" type="curve" smooth="yes"/>
      <point x="139" y="-259"/>
      <point x="130" y="-259"/>
      <point x="122" y="-258" type="curve"/>
    </contour>
    <contour>
      <point x="715" y="1052" type="move" name="top"/>
    </contour>
  </outline>
</glyph>
<glyph name="z" format="1">
  <advance width="925"/>
  <unicode hex="007A"/>
  <outline>
    <contour>
      <point x="442" y="0" type="move" name="bot"/>
    </contour>
    <contour>
      <point x="592" y="1052" type="move" name="top"/>
    </contour>
    <contour>
      <point x="52" y="0" type="line"/>
      <point x="739" y="0" type="line"/>
      <point x="756" y="97" type="line"/>
      <point x="209" y="97" type="line"/>
      <point x="899" y="950" type="line"/>
      <point x="917" y="1052" type="line"/>
      <point x="265" y="1052" type="line"/>
      <point x="246" y="946" type="line"/>
      <point x="751" y="946" type="line"/>
      <point x="70" y="101" type="line"/>
    </contour>
  </outline>
</glyph>
<glyph name="braceleft" format="1">
  <advance width="928"/>
  <unicode hex="007B"/>
  <outline>
    <contour>
      <point x="421" y="224" type="curve" smooth="yes"/>
      <point x="447" y="374" type="line" smooth="yes"/>
      <point x="452" y="401"/>
      <point x="454" y="425"/>
      <point x="454" y="447" type="curve" smooth="yes"/>
      <point x="454" y="550"/>
      <point x="406" y="595"/>
      <point x="368" y="605" type="curve"/>
      <point x="422" y="623"/>
      <point x="499" y="670"/>
      <point x="528" y="835" type="curve"/>
      <point x="554" y="977" type="line"/>
      <point x="604" y="1266"/>
      <point x="618" y="1339"/>
      <point x="965" y="1339" type="curve"/>
      <point x="986" y="1456" type="line"/>
      <point x="537" y="1456"/>
      <point x="471" y="1307"/>
      <point x="437" y="1118" type="curve" smooth="yes"/>
      <point x="430" y="1076"/>
      <point x="425" y="1031"/>
      <point x="416" y="986" type="curve"/>
      <point x="361" y="673"/>
      <point x="331" y="660"/>
      <point x="108" y="660" type="curve"/>
      <point x="90" y="561" type="line"/>
      <point x="250" y="561"/>
      <point x="306" y="539"/>
      <point x="306" y="420" type="curve" smooth="yes"/>
      <point x="306" y="373"/>
      <point x="296" y="291"/>
      <point x="279" y="211" type="curve"/>
      <point x="266" y="137"/>
      <point x="245" y="55"/>
      <point x="245" y="-21" type="curve" smooth="yes"/>
      <point x="245" y="-156"/>
      <point x="327" y="-234"/>
      <point x="688" y="-234" type="curve"/>
      <point x="709" y="-117" type="line"/>
      <point x="462" y="-117"/>
      <point x="395" y="-87"/>
      <point x="395" y="31" type="curve" smooth="yes"/>
      <point x="395" y="79"/>
      <point x="406" y="142"/>
    </contour>
  </outline>
</glyph>
<glyph name="braceright" format="1">
  <advance width="929"/>
  <unicode hex="007D"/>
  <outline>
    <contour>
      <point x="-50" y="-234" type="line"/>
      <point x="404" y="-234"/>
      <point x="460" y="-110"/>
      <point x="496" y="94" type="curve" smooth="yes"/>
      <point x="503" y="135"/>
      <point x="509" y="182"/>
      <point x="518" y="225" type="curve"/>
      <point x="570" y="519"/>
      <point x="604" y="561"/>
      <point x="828" y="561" type="curve"/>
      <point x="846" y="660" type="line"/>
      <point x="686" y="660"/>
      <point x="627" y="667"/>
      <point x="627" y="786" type="curve" smooth="yes"/>
      <point x="627" y="861"/>
      <point x="662" y="1030"/>
      <point x="677" y="1118" type="curve" smooth="yes"/>
      <point x="684" y="1155"/>
      <point x="689" y="1191"/>
      <point x="689" y="1224" type="curve" smooth="yes"/>
      <point x="689" y="1360"/>
      <point x="608" y="1456"/>
      <point x="248" y="1456" type="curve"/>
      <point x="227" y="1339" type="line"/>
      <point x="472" y="1339"/>
      <point x="538" y="1302"/>
      <point x="538" y="1179" type="curve" smooth="yes"/>
      <point x="538" y="1128"/>
      <point x="527" y="1062"/>
      <point x="512" y="977" type="curve" smooth="yes"/>
      <point x="486" y="835" type="line" smooth="yes"/>
      <point x="481" y="805"/>
      <point x="478" y="780"/>
      <point x="478" y="757" type="curve" smooth="yes"/>
      <point x="478" y="654"/>
      <point x="527" y="620"/>
      <point x="566" y="605" type="curve"/>
      <point x="516" y="593"/>
      <point x="433" y="529"/>
      <point x="405" y="374" type="curve"/>
      <point x="379" y="224" type="line"/>
      <point x="329" y="-57"/>
      <point x="319" y="-117"/>
      <point x="-29" y="-117" type="curve"/>
    </contour>
  </outline>
</glyph>
<glyph name="asciitilde" format="1">
  <advance width="795"/>
  <unicode hex="007E"/>
  <outline>
    <contour>
      <point x="523" y="1198" type="curve" smooth="yes"/>
      <point x="634" y="1198"/>
      <point x="742" y="1302"/>
      <point x="768" y="1453" type="curve"/>
      <point x="678" y="1453" type="line"/>
      <point x="668" y="1397"/>
      <point x="630" y="1332"/>
      <point x="555" y="1332" type="curve" smooth="yes"/>
      <point x="489" y="1332"/>
      <point x="400" y="1466"/>
      <point x="273" y="1466" type="curve" smooth="yes"/>
      <point x="162" y="1466"/>
      <point x="53" y="1362"/>
      <point x="27" y="1211" type="curve"/>
      <point x="118" y="1211" type="line"/>
      <point x="128" y="1268"/>
      <point x="165" y="1332"/>
      <point x="240" y="1332" type="curve" smooth="yes"/>
      <point x="307" y="1332"/>
      <point x="396" y="1198"/>
    </contour>
  </outline>
</glyph>
<glyph name="cent" format="1">
  <advance width="1112"/>
  <unicode hex="00A2"/>
  <outline>
    <component base="c"/>
    <contour>
      <point x="626" y="1017" type="line"/>
      <point x="735" y="1017" type="line"/>
      <point x="780" y="1269" type="line"/>
      <point x="671" y="1269" type="line"/>
    </contour>
    <contour>
      <point x="411" y="-200" type="line"/>
      <point x="520" y="-200" type="line"/>
      <point x="565" y="52" type="line"/>
      <point x="456" y="52" type="line"/>
    </contour>
  </outline>
</glyph>
<glyph name="sterling" format="1">
  <advance width="1266"/>
  <unicode hex="00A3"/>
  <outline>
    <contour>
      <point x="165" y="0" type="line"/>
      <point x="854" y="0" type="line"/>
      <point x="876" y="124" type="line"/>
      <point x="323" y="124" type="line"/>
      <point x="486" y="696" type="line"/>
      <point x="987" y="696" type="line"/>
      <point x="1006" y="807" type="line"/>
      <point x="519" y="807" type="line"/>
      <point x="615" y="1140" type="line"/>
      <point x="672" y="1332"/>
      <point x="792" y="1355"/>
      <point x="865" y="1355" type="curve" smooth="yes"/>
      <point x="984" y="1355"/>
      <point x="1101" y="1288"/>
      <point x="1099" y="1286" type="curve" smooth="yes"/>
      <point x="1161" y="1388" type="line"/>
      <point x="1017" y="1454"/>
      <point x="926" y="1465"/>
      <point x="863" y="1465" type="curve" smooth="yes"/>
      <point x="687" y="1465"/>
      <point x="533" y="1304"/>
      <point x="489" y="1163" type="curve"/>
      <point x="388" y="807" type="line"/>
      <point x="198" y="807" type="line"/>
      <point x="179" y="696" type="line"/>
      <point x="357" y="696" type="line"/>
    </contour>
  </outline>
</glyph>
<glyph name="currency" format="1">
  <advance width="1163"/>
  <unicode hex="00A4"/>
  <outline>
    <contour>
      <point x="867" y="829" type="curve"/>
      <point x="1045" y="963" type="line"/>
      <point x="1016" y="1015" type="line"/>
      <point x="843" y="881" type="line"/>
      <point x="790" y="951"/>
      <point x="718" y="985"/>
      <point x="627" y="985" type="curve" smooth="yes"/>
      <point x="536" y="985"/>
      <point x="452" y="951"/>
      <point x="375" y="881" type="curve"/>
      <point x="250" y="1015" type="line"/>
      <point x="201" y="963" type="line"/>
      <point x="333" y="829" type="line"/>
      <point x="294" y="773"/>
      <point x="274" y="715"/>
      <point x="266" y="671" type="curve" smooth="yes"/>
      <point x="263" y="654"/>
      <point x="261" y="635"/>
      <point x="261" y="614" type="curve" smooth="yes"/>
      <point x="261" y="582"/>
      <point x="265" y="547"/>
      <point x="277" y="513" type="curve"/>
      <point x="109" y="379" type="line"/>
      <point x="138" y="327" type="line"/>
      <point x="301" y="461" type="line"/>
      <point x="354" y="391"/>
      <point x="426" y="357"/>
      <point x="517" y="357" type="curve" smooth="yes"/>
      <point x="608" y="357"/>
      <point x="692" y="391"/>
      <point x="769" y="461" type="curve"/>
      <point x="884" y="327" type="line"/>
      <point x="933" y="379" type="line"/>
      <point x="811" y="513" type="line"/>
      <point x="850" y="569"/>
      <point x="870" y="627"/>
      <point x="878" y="671" type="curve" smooth="yes"/>
      <point x="881" y="688"/>
      <point x="883" y="707"/>
      <point x="883" y="728" type="curve" smooth="yes"/>
      <point x="883" y="760"/>
      <point x="879" y="795"/>
    </contour>
    <contour>
      <point x="322" y="612" type="curve" smooth="yes"/>
      <point x="322" y="821"/>
      <point x="485" y="937"/>
      <point x="619" y="937" type="curve" smooth="yes"/>
      <point x="727" y="937"/>
      <point x="822" y="867"/>
      <point x="822" y="730" type="curve" smooth="yes"/>
      <point x="822" y="521"/>
      <point x="659" y="405"/>
      <point x="525" y="405" type="curve" smooth="yes"/>
      <point x="417" y="405"/>
      <point x="322" y="475"/>
    </contour>
  </outline>
</glyph>
<glyph name="yen" format="1">
  <advance width="1326"/>
  <unicode hex="00A5"/>
  <outline>
    <component base="Y"/>
    <contour>
      <point x="1040" y="529" type="line"/>
      <point x="1059" y="636" type="line"/>
      <point x="219" y="636" type="line"/>
      <point x="200" y="529" type="line"/>
    </contour>
    <contour>
      <point x="991" y="251" type="line"/>
      <point x="1010" y="357" type="line"/>
      <point x="170" y="357" type="line"/>
      <point x="151" y="251" type="line"/>
    </contour>
  </outline>
</glyph>
<glyph name="brokenbar" format="1">
  <advance width="617"/>
  <unicode hex="00A6"/>
  <outline>
    <contour>
      <point x="80" y="-195" type="line"/>
      <point x="240" y="-195" type="line"/>
      <point x="356" y="467" type="line"/>
      <point x="196" y="467" type="line"/>
    </contour>
    <contour>
      <point x="269" y="877" type="line"/>
      <point x="429" y="877" type="line"/>
      <point x="556" y="1602" type="line"/>
      <point x="396" y="1602" type="line"/>
    </contour>
  </outline>
</glyph>
<glyph name="section" format="1">
  <advance width="952"/>
  <unicode hex="00A7"/>
  <outline>
    <contour>
      <point x="35" y="35" type="line"/>
      <point x="57" y="26"/>
      <point x="185" y="-22"/>
      <point x="403" y="-22" type="curve" smooth="yes"/>
      <point x="670" y="-22"/>
      <point x="775" y="121"/>
      <point x="800" y="259" type="curve" smooth="yes"/>
      <point x="804" y="281"/>
      <point x="806" y="302"/>
      <point x="806" y="323" type="curve" smooth="yes"/>
      <point x="806" y="394"/>
      <point x="785" y="458"/>
      <point x="758" y="487" type="curve"/>
      <point x="796" y="575"/>
      <point x="834" y="658"/>
      <point x="847" y="731" type="curve" smooth="yes"/>
      <point x="850" y="747"/>
      <point x="852" y="763"/>
      <point x="852" y="779" type="curve" smooth="yes"/>
      <point x="852" y="858"/>
      <point x="810" y="923"/>
      <point x="686" y="968" type="curve"/>
      <point x="446" y="1051" type="line"/>
      <point x="384" y="1074"/>
      <point x="365" y="1092"/>
      <point x="365" y="1131" type="curve" smooth="yes"/>
      <point x="365" y="1142"/>
      <point x="366" y="1156"/>
      <point x="369" y="1171" type="curve" smooth="yes"/>
      <point x="392" y="1303"/>
      <point x="500" y="1348"/>
      <point x="630" y="1348" type="curve" smooth="yes"/>
      <point x="724" y="1348"/>
      <point x="829" y="1325"/>
      <point x="923" y="1295" type="curve"/>
      <point x="967" y="1417" type="line"/>
      <point x="873" y="1442"/>
      <point x="765" y="1461"/>
      <point x="659" y="1461" type="curve" smooth="yes"/>
      <point x="459" y="1461"/>
      <point x="271" y="1393"/>
      <point x="231" y="1170" type="curve" smooth="yes"/>
      <point x="227" y="1144"/>
      <point x="224" y="1121"/>
      <point x="224" y="1100" type="curve" smooth="yes"/>
      <point x="224" y="1058"/>
      <point x="234" y="1023"/>
      <point x="261" y="996" type="curve"/>
      <point x="221" y="921"/>
      <point x="195" y="856"/>
      <point x="185" y="801" type="curve" smooth="yes"/>
      <point x="182" y="783"/>
      <point x="180" y="765"/>
      <point x="180" y="749" type="curve" smooth="yes"/>
      <point x="180" y="659"/>
      <point x="229" y="599"/>
      <point x="321" y="565" type="curve" smooth="yes"/>
      <point x="601" y="462" type="line" smooth="yes"/>
      <point x="675" y="435"/>
      <point x="696" y="406"/>
      <point x="696" y="358" type="curve" smooth="yes"/>
      <point x="696" y="336"/>
      <point x="692" y="309"/>
      <point x="686" y="278" type="curve" smooth="yes"/>
      <point x="668" y="175"/>
      <point x="615" y="90"/>
      <point x="400" y="90" type="curve" smooth="yes"/>
      <point x="214" y="90"/>
      <point x="104" y="146"/>
      <point x="75" y="155" type="curve"/>
    </contour>
    <contour>
      <point x="731" y="753" type="curve" smooth="yes"/>
      <point x="731" y="680"/>
      <point x="689" y="615"/>
      <point x="660" y="561" type="curve"/>
      <point x="355" y="680" type="line" smooth="yes"/>
      <point x="318" y="694"/>
      <point x="304" y="727"/>
      <point x="304" y="769" type="curve" smooth="yes"/>
      <point x="304" y="838"/>
      <point x="329" y="893"/>
      <point x="363" y="950" type="curve"/>
      <point x="654" y="852" type="line" smooth="yes"/>
      <point x="711" y="833"/>
      <point x="731" y="796"/>
    </contour>
  </outline>
</glyph>
<glyph name="dieresis" format="1">
  <advance width="1060"/>
  <unicode hex="00A8"/>
  <outline>
    <contour>
      <point x="481" y="1052" type="move" name="_top"/>
    </contour>
    <contour>
      <point x="231" y="1222" type="line"/>
      <point x="402" y="1222" type="line"/>
      <point x="428" y="1372" type="line"/>
      <point x="257" y="1372" type="line"/>
    </contour>
    <contour>
      <point x="610" y="1222" type="line"/>
      <point x="781" y="1222" type="line"/>
      <point x="807" y="1372" type="line"/>
      <point x="636" y="1372" type="line"/>
    </contour>
  </outline>
</glyph>
<glyph name="copyright" format="1">
  <advance width="1789"/>
  <unicode hex="00A9"/>
  <outline>
    <contour>
      <point x="828" y="287" type="curve"/>
      <point x="1104" y="287"/>
      <point x="1177" y="422"/>
      <point x="1208" y="598" type="curve" smooth="yes"/>
      <point x="1214" y="632" type="line"/>
      <point x="1098" y="632" type="line"/>
      <point x="1088" y="571" type="line"/>
      <point x="1061" y="419"/>
      <point x="997" y="376"/>
      <point x="844" y="376" type="curve" smooth="yes"/>
      <point x="713" y="376"/>
      <point x="641" y="408"/>
      <point x="641" y="514" type="curve" smooth="yes"/>
      <point x="641" y="531"/>
      <point x="643" y="550"/>
      <point x="647" y="571" type="curve" smooth="yes"/>
      <point x="703" y="890" type="line" smooth="yes"/>
      <point x="730" y="1042"/>
      <point x="818" y="1091"/>
      <point x="969" y="1091" type="curve" smooth="yes"/>
      <point x="1095" y="1091"/>
      <point x="1151" y="1057"/>
      <point x="1151" y="959" type="curve" smooth="yes"/>
      <point x="1151" y="939"/>
      <point x="1149" y="916"/>
      <point x="1144" y="890" type="curve" smooth="yes"/>
      <point x="1133" y="826" type="line"/>
      <point x="1250" y="836" type="line"/>
      <point x="1255" y="861" type="line" smooth="yes"/>
      <point x="1262" y="899"/>
      <point x="1266" y="935"/>
      <point x="1266" y="968" type="curve" smooth="yes"/>
      <point x="1266" y="1095"/>
      <point x="1205" y="1182"/>
      <point x="985" y="1182" type="curve" smooth="yes"/>
      <point x="697" y="1182"/>
      <point x="611" y="1050"/>
      <point x="579" y="868" type="curve" smooth="yes"/>
      <point x="530" y="590" type="line" smooth="yes"/>
      <point x="524" y="558"/>
      <point x="521" y="528"/>
      <point x="521" y="500" type="curve" smooth="yes"/>
      <point x="521" y="371"/>
      <point x="592" y="287"/>
    </contour>
    <contour>
      <point x="783" y="82" type="curve" smooth="yes"/>
      <point x="462" y="82"/>
      <point x="256" y="296"/>
      <point x="256" y="597" type="curve" smooth="yes"/>
      <point x="256" y="637"/>
      <point x="259" y="679"/>
      <point x="267" y="722" type="curve" smooth="yes"/>
      <point x="331" y="1086"/>
      <point x="645" y="1361"/>
      <point x="1009" y="1361" type="curve" smooth="yes"/>
      <point x="1332" y="1361"/>
      <point x="1535" y="1148"/>
      <point x="1535" y="848" type="curve" smooth="yes"/>
      <point x="1535" y="808"/>
      <point x="1532" y="765"/>
      <point x="1524" y="722" type="curve" smooth="yes"/>
      <point x="1460" y="357"/>
      <point x="1149" y="82"/>
    </contour>
    <contour>
      <point x="764" y="-14" type="curve" smooth="yes"/>
      <point x="1180" y="-14"/>
      <point x="1556" y="303"/>
      <point x="1630" y="722" type="curve" smooth="yes"/>
      <point x="1638" y="769"/>
      <point x="1642" y="815"/>
      <point x="1642" y="859" type="curve" smooth="yes"/>
      <point x="1642" y="1206"/>
      <point x="1393" y="1456"/>
      <point x="1024" y="1456" type="curve" smooth="yes"/>
      <point x="611" y="1456"/>
      <point x="232" y="1139"/>
      <point x="158" y="722" type="curve" smooth="yes"/>
      <point x="150" y="675"/>
      <point x="146" y="629"/>
      <point x="146" y="585" type="curve" smooth="yes"/>
      <point x="146" y="236"/>
      <point x="397" y="-14"/>
    </contour>
  </outline>
</glyph>
<glyph name="guillemotleft" format="1">
  <advance width="1072"/>
  <unicode hex="00AB"/>
  <outline>
    <contour>
      <point x="721" y="80" type="line"/>
      <point x="819" y="130" type="line"/>
      <point x="683" y="530" type="line"/>
      <point x="961" y="930" type="line"/>
      <point x="872" y="980" type="line"/>
      <point x="530" y="530" type="line"/>
    </contour>
    <contour>
      <point x="365" y="80" type="line"/>
      <point x="463" y="130" type="line"/>
      <point x="327" y="530" type="line"/>
      <point x="605" y="930" type="line"/>
      <point x="516" y="980" type="line"/>
      <point x="174" y="530" type="line"/>
    </contour>
  </outline>
</glyph>
<glyph name="logicalnot" format="1">
  <advance width="768"/>
  <unicode hex="00AC"/>
  <outline>
    <contour>
      <point x="496" y="397" type="line"/>
      <point x="619" y="397" type="line"/>
      <point x="665" y="653" type="line"/>
      <point x="102" y="653" type="line"/>
      <point x="81" y="537" type="line"/>
      <point x="521" y="537" type="line"/>
    </contour>
  </outline>
</glyph>
<glyph name="registered" format="1">
  <advance width="1789"/>
  <unicode hex="00AE"/>
  <outline>
    <contour>
      <point x="1102" y="666" type="line"/>
      <point x="1213" y="695"/>
      <point x="1302" y="796"/>
      <point x="1302" y="966" type="curve" smooth="yes"/>
      <point x="1302" y="1098"/>
      <point x="1215" y="1153"/>
      <point x="1077" y="1153" type="curve" smooth="yes"/>
      <point x="674" y="1153" type="line"/>
      <point x="527" y="319" type="line"/>
      <point x="658" y="319" type="line"/>
      <point x="717" y="652" type="line"/>
      <point x="976" y="652" type="line"/>
      <point x="1097" y="319" type="line"/>
      <point x="1225" y="319" type="line"/>
    </contour>
    <contour>
      <point x="733" y="742" type="line"/>
      <point x="789" y="1062" type="line"/>
      <point x="1065" y="1062" type="line" smooth="yes"/>
      <point x="1151" y="1062"/>
      <point x="1169" y="1008"/>
      <point x="1169" y="956" type="curve" smooth="yes"/>
      <point x="1169" y="936"/>
      <point x="1167" y="917"/>
      <point x="1164" y="901" type="curve" smooth="yes"/>
      <point x="1160" y="877" type="line"/>
      <point x="1147" y="814"/>
      <point x="1114" y="742"/>
      <point x="1000" y="742" type="curve" smooth="yes"/>
    </contour>
    <contour>
      <point x="783" y="82" type="curve" smooth="yes"/>
      <point x="462" y="82"/>
      <point x="256" y="296"/>
      <point x="256" y="597" type="curve" smooth="yes"/>
      <point x="256" y="637"/>
      <point x="259" y="679"/>
      <point x="267" y="722" type="curve" smooth="yes"/>
      <point x="331" y="1086"/>
      <point x="645" y="1361"/>
      <point x="1009" y="1361" type="curve" smooth="yes"/>
      <point x="1332" y="1361"/>
      <point x="1535" y="1148"/>
      <point x="1535" y="848" type="curve" smooth="yes"/>
      <point x="1535" y="808"/>
      <point x="1532" y="765"/>
      <point x="1524" y="722" type="curve" smooth="yes"/>
      <point x="1460" y="357"/>
      <point x="1149" y="82"/>
    </contour>
    <contour>
      <point x="764" y="-14" type="curve" smooth="yes"/>
      <point x="1180" y="-14"/>
      <point x="1556" y="303"/>
      <point x="1630" y="722" type="curve" smooth="yes"/>
      <point x="1638" y="769"/>
      <point x="1642" y="815"/>
      <point x="1642" y="859" type="curve" smooth="yes"/>
      <point x="1642" y="1206"/>
      <point x="1393" y="1456"/>
      <point x="1024" y="1456" type="curve" smooth="yes"/>
      <point x="611" y="1456"/>
      <point x="232" y="1139"/>
      <point x="158" y="722" type="curve" smooth="yes"/>
      <point x="150" y="675"/>
      <point x="146" y="629"/>
      <point x="146" y="585" type="curve" smooth="yes"/>
      <point x="146" y="236"/>
      <point x="397" y="-14"/>
    </contour>
  </outline>
</glyph>
<glyph name="macron" format="1">
  <advance width="514"/>
  <unicode hex="00AF"/>
  <outline>
    <contour>
      <point x="210" y="1052" type="move" name="_top"/>
    </contour>
    <contour>
      <point x="257" y="1325" type="move" name="_mid"/>
    </contour>
    <contour>
      <point x="5" y="1265" type="line"/>
      <point x="489" y="1265" type="line"/>
      <point x="509" y="1376" type="line"/>
      <point x="25" y="1376" type="line"/>
    </contour>
  </outline>
</glyph>
<glyph name="degree" format="1">
  <advance width="1073"/>
  <unicode hex="00B0"/>
  <outline>
    <contour>
      <point x="787" y="1138" type="curve" smooth="yes"/>
      <point x="787" y="958"/>
      <point x="629" y="821"/>
      <point x="490" y="821" type="curve" smooth="yes"/>
      <point x="377" y="821"/>
      <point x="289" y="913"/>
      <point x="289" y="1039" type="curve" smooth="yes"/>
      <point x="289" y="1220"/>
      <point x="449" y="1356"/>
      <point x="584" y="1356" type="curve" smooth="yes"/>
      <point x="697" y="1356"/>
      <point x="787" y="1265"/>
    </contour>
    <contour>
      <point x="591" y="1407" type="curve" smooth="yes"/>
      <point x="441" y="1407"/>
      <point x="229" y="1249"/>
      <point x="229" y="1034" type="curve" smooth="yes"/>
      <point x="229" y="878"/>
      <point x="353" y="767"/>
      <point x="479" y="767" type="curve" smooth="yes"/>
      <point x="631" y="767"/>
      <point x="845" y="923"/>
      <point x="845" y="1140" type="curve" smooth="yes"/>
      <point x="845" y="1295"/>
      <point x="721" y="1407"/>
    </contour>
  </outline>
</glyph>
<glyph name="plusminus" format="1">
  <advance width="1051"/>
  <unicode hex="00B1"/>
  <outline>
    <contour>
      <point x="453" y="339" type="line"/>
      <point x="547" y="339" type="line"/>
      <point x="597" y="623" type="line"/>
      <point x="847" y="623" type="line"/>
      <point x="862" y="709" type="line"/>
      <point x="612" y="709" type="line"/>
      <point x="659" y="976" type="line"/>
      <point x="565" y="976" type="line"/>
      <point x="518" y="709" type="line"/>
      <point x="268" y="709" type="line"/>
      <point x="253" y="623" type="line"/>
      <point x="503" y="623" type="line"/>
    </contour>
    <contour>
      <point x="143" y="0" type="line"/>
      <point x="737" y="0" type="line"/>
      <point x="753" y="93" type="line"/>
      <point x="159" y="93" type="line"/>
    </contour>
  </outline>
</glyph>
<glyph name="uni00B2" format="1">
  <advance width="927"/>
  <unicode hex="00B2"/>
  <outline>
    <contour>
      <point x="158" y="762" type="line"/>
      <point x="662" y="762" type="line"/>
      <point x="676" y="838" type="line"/>
      <point x="300" y="838" type="line"/>
      <point x="575" y="1070" type="line" smooth="yes"/>
      <point x="669" y="1149"/>
      <point x="744" y="1220"/>
      <point x="767" y="1348" type="curve" smooth="yes"/>
      <point x="771" y="1370"/>
      <point x="773" y="1391"/>
      <point x="773" y="1412" type="curve" smooth="yes"/>
      <point x="773" y="1507"/>
      <point x="726" y="1585"/>
      <point x="568" y="1585" type="curve" smooth="yes"/>
      <point x="359" y="1585"/>
      <point x="275" y="1518"/>
      <point x="247" y="1359" type="curve"/>
      <point x="345" y="1359" type="line"/>
      <point x="369" y="1498"/>
      <point x="451" y="1505"/>
      <point x="555" y="1505" type="curve" smooth="yes"/>
      <point x="641" y="1505"/>
      <point x="678" y="1467"/>
      <point x="678" y="1395" type="curve" smooth="yes"/>
      <point x="678" y="1381"/>
      <point x="677" y="1365"/>
      <point x="674" y="1348" type="curve" smooth="yes"/>
      <point x="658" y="1261"/>
      <point x="636" y="1226"/>
      <point x="529" y="1133" type="curve"/>
      <point x="170" y="826" type="line"/>
    </contour>
  </outline>
</glyph>
<glyph name="threesuperior" format="1">
  <advance width="1124"/>
  <unicode hex="00B3"/>
  <outline>
    <contour>
      <point x="724" y="1036" type="curve" smooth="yes"/>
      <point x="724" y="887"/>
      <point x="640" y="824"/>
      <point x="487" y="824" type="curve" smooth="yes"/>
      <point x="352" y="824"/>
      <point x="296" y="851"/>
      <point x="296" y="978" type="curve" smooth="yes"/>
      <point x="296" y="991"/>
      <point x="297" y="1005"/>
      <point x="298" y="1020" type="curve"/>
      <point x="204" y="1020" type="line"/>
      <point x="204" y="1009"/>
      <point x="203" y="999"/>
      <point x="203" y="989" type="curve" smooth="yes"/>
      <point x="203" y="811"/>
      <point x="265" y="745"/>
      <point x="473" y="745" type="curve" smooth="yes"/>
      <point x="654" y="745"/>
      <point x="827" y="834"/>
      <point x="827" y="1037" type="curve" smooth="yes"/>
      <point x="827" y="1156"/>
      <point x="749" y="1183"/>
      <point x="674" y="1194" type="curve"/>
      <point x="763" y="1205"/>
      <point x="838" y="1245"/>
      <point x="862" y="1377" type="curve" smooth="yes"/>
      <point x="864" y="1390"/>
      <point x="865" y="1403"/>
      <point x="865" y="1415" type="curve" smooth="yes"/>
      <point x="865" y="1542"/>
      <point x="740" y="1582"/>
      <point x="621" y="1582" type="curve" smooth="yes"/>
      <point x="437" y="1582"/>
      <point x="317" y="1563"/>
      <point x="270" y="1340" type="curve"/>
      <point x="359" y="1340" type="line"/>
      <point x="396" y="1491"/>
      <point x="472" y="1504"/>
      <point x="607" y="1504" type="curve" smooth="yes"/>
      <point x="704" y="1504"/>
      <point x="752" y="1472"/>
      <point x="752" y="1408" type="curve" smooth="yes"/>
      <point x="752" y="1399"/>
      <point x="751" y="1390"/>
      <point x="749" y="1380" type="curve" smooth="yes"/>
      <point x="731" y="1278"/>
      <point x="710" y="1233"/>
      <point x="490" y="1233" type="curve"/>
      <point x="477" y="1158" type="line"/>
      <point x="663" y="1158"/>
      <point x="724" y="1132"/>
    </contour>
  </outline>
</glyph>
<glyph name="acute" format="1">
  <advance width="653"/>
  <unicode hex="00B4"/>
  <outline>
    <contour>
      <point x="229" y="1196" type="line"/>
      <point x="344" y="1196" type="line"/>
      <point x="648" y="1586" type="line"/>
      <point x="449" y="1586" type="line"/>
    </contour>
    <contour>
      <point x="245" y="1052" type="move" name="_top"/>
    </contour>
  </outline>
</glyph>
<glyph name="paragraph" format="1">
  <advance width="1267"/>
  <unicode hex="00B6"/>
  <outline>
    <contour>
      <point x="366" y="-336" type="line"/>
      <point x="480" y="-336" type="line"/>
      <point x="776" y="1340" type="line"/>
      <point x="950" y="1340" type="line"/>
      <point x="654" y="-336" type="line"/>
      <point x="768" y="-336" type="line"/>
      <point x="1080" y="1428" type="line"/>
      <point x="704" y="1428" type="line" smooth="yes"/>
      <point x="510" y="1428"/>
      <point x="356" y="1362"/>
      <point x="318" y="1146" type="curve" smooth="yes"/>
      <point x="315" y="1131"/>
      <point x="314" y="1117"/>
      <point x="314" y="1103" type="curve" smooth="yes"/>
      <point x="314" y="967"/>
      <point x="438" y="882"/>
      <point x="580" y="877" type="curve"/>
    </contour>
  </outline>
</glyph>
<glyph name="periodcentered" format="1">
  <advance width="867"/>
  <unicode hex="00B7"/>
  <outline>
    <contour>
      <point x="512" y="527" type="line"/>
      <point x="691" y="527" type="line"/>
      <point x="723" y="710" type="line"/>
      <point x="544" y="710" type="line"/>
    </contour>
    <contour>
      <point x="164" y="601" type="move" name="_mid"/>
    </contour>
  </outline>
</glyph>
<glyph name="cedilla" format="1">
  <advance width="512"/>
  <unicode hex="00B8"/>
  <outline>
    <contour>
      <point x="224" y="0" type="move" name="_bot"/>
    </contour>
    <contour>
      <point x="325" y="-263" type="curve" smooth="yes"/>
      <point x="325" y="-331"/>
      <point x="266" y="-387"/>
      <point x="151" y="-387" type="curve" smooth="yes"/>
      <point x="128" y="-387"/>
      <point x="104" y="-385"/>
      <point x="78" y="-380" type="curve"/>
      <point x="63" y="-464" type="line"/>
      <point x="95" y="-469"/>
      <point x="126" y="-471"/>
      <point x="154" y="-471" type="curve" smooth="yes"/>
      <point x="319" y="-471"/>
      <point x="417" y="-382"/>
      <point x="434" y="-288" type="curve" smooth="yes"/>
      <point x="435" y="-281"/>
      <point x="436" y="-273"/>
      <point x="436" y="-266" type="curve" smooth="yes"/>
      <point x="436" y="-185"/>
      <point x="362" y="-104"/>
      <point x="232" y="-80" type="curve"/>
      <point x="241" y="10" type="line"/>
      <point x="205" y="10" type="line"/>
      <point x="179" y="-140" type="line"/>
      <point x="271" y="-143"/>
      <point x="325" y="-203"/>
    </contour>
  </outline>
</glyph>
<glyph name="onesuperior" format="1">
  <advance width="1004"/>
  <unicode hex="00B9"/>
  <outline>
    <contour>
      <point x="132" y="736" type="line"/>
      <point x="713" y="736" type="line"/>
      <point x="727" y="815" type="line"/>
      <point x="507" y="815" type="line"/>
      <point x="635" y="1538" type="line"/>
      <point x="545" y="1538" type="line"/>
      <point x="281" y="1514" type="line"/>
      <point x="276" y="1433" type="line"/>
      <point x="527" y="1454" type="line"/>
      <point x="414" y="815" type="line"/>
      <point x="146" y="815" type="line"/>
    </contour>
  </outline>
</glyph>
<glyph name="onequarter" format="1">
  <advance width="1815"/>
  <unicode hex="00BC"/>
  <outline>
    <contour>
      <point x="1327" y="0" type="line"/>
      <point x="1413" y="0" type="line"/>
      <point x="1449" y="205" type="line"/>
      <point x="1578" y="205" type="line"/>
      <point x="1590" y="273" type="line"/>
      <point x="1461" y="273" type="line"/>
      <point x="1498" y="484" type="line"/>
      <point x="1412" y="484" type="line"/>
      <point x="1375" y="273" type="line"/>
      <point x="1086" y="273" type="line"/>
      <point x="1425" y="783" type="line"/>
      <point x="1338" y="783" type="line"/>
      <point x="978" y="257" type="line"/>
      <point x="969" y="205" type="line"/>
      <point x="1363" y="205" type="line"/>
    </contour>
    <contour>
      <point x="190" y="793" type="line"/>
      <point x="772" y="793" type="line"/>
      <point x="785" y="867" type="line"/>
      <point x="563" y="867" type="line"/>
      <point x="678" y="1522" type="line"/>
      <point x="595" y="1522" type="line"/>
      <point x="325" y="1501" type="line"/>
      <point x="320" y="1421" type="line"/>
      <point x="582" y="1440" type="line"/>
      <point x="481" y="867" type="line"/>
      <point x="203" y="867" type="line"/>
    </contour>
    <contour>
      <point x="398" y="0" type="line"/>
      <point x="485" y="0" type="line"/>
      <point x="1457" y="1428" type="line"/>
      <point x="1376" y="1428" type="line"/>
    </contour>
  </outline>
</glyph>
<glyph name="onehalf" format="1">
  <advance width="1728"/>
  <unicode hex="00BD"/>
  <outline>
    <contour>
      <point x="1011" y="0" type="line"/>
      <point x="1467" y="0" type="line"/>
      <point x="1479" y="69" type="line"/>
      <point x="1139" y="69" type="line"/>
      <point x="1388" y="279" type="line" smooth="yes"/>
      <point x="1483" y="358"/>
      <point x="1566" y="434"/>
      <point x="1566" y="588" type="curve" smooth="yes"/>
      <point x="1566" y="674"/>
      <point x="1524" y="745"/>
      <point x="1381" y="745" type="curve"/>
      <point x="1192" y="745"/>
      <point x="1116" y="684"/>
      <point x="1091" y="540" type="curve"/>
      <point x="1179" y="540" type="line"/>
      <point x="1201" y="666"/>
      <point x="1276" y="673"/>
      <point x="1370" y="673" type="curve" smooth="yes"/>
      <point x="1447" y="673"/>
      <point x="1481" y="638"/>
      <point x="1481" y="573" type="curve" smooth="yes"/>
      <point x="1481" y="560"/>
      <point x="1480" y="546"/>
      <point x="1477" y="530" type="curve" smooth="yes"/>
      <point x="1464" y="452"/>
      <point x="1444" y="420"/>
      <point x="1346" y="336" type="curve" smooth="yes"/>
      <point x="1021" y="58" type="line"/>
    </contour>
    <contour>
      <point x="190" y="793" type="line"/>
      <point x="772" y="793" type="line"/>
      <point x="785" y="867" type="line"/>
      <point x="563" y="867" type="line"/>
      <point x="678" y="1522" type="line"/>
      <point x="595" y="1522" type="line"/>
      <point x="325" y="1501" type="line"/>
      <point x="320" y="1421" type="line"/>
      <point x="582" y="1440" type="line"/>
      <point x="481" y="867" type="line"/>
      <point x="203" y="867" type="line"/>
    </contour>
    <contour>
      <point x="398" y="0" type="line"/>
      <point x="485" y="0" type="line"/>
      <point x="1457" y="1428" type="line"/>
      <point x="1376" y="1428" type="line"/>
    </contour>
  </outline>
</glyph>
<glyph name="threequarters" format="1">
  <advance width="1546"/>
  <unicode hex="00BE"/>
  <outline>
    <contour>
      <point x="700" y="1041" type="curve" smooth="yes"/>
      <point x="700" y="909"/>
      <point x="626" y="853"/>
      <point x="490" y="853" type="curve" smooth="yes"/>
      <point x="370" y="853"/>
      <point x="321" y="877"/>
      <point x="321" y="989" type="curve" smooth="yes"/>
      <point x="321" y="1001"/>
      <point x="322" y="1013"/>
      <point x="323" y="1027" type="curve"/>
      <point x="239" y="1027" type="line"/>
      <point x="239" y="1000" type="line" smooth="yes"/>
      <point x="239" y="841"/>
      <point x="293" y="783"/>
      <point x="478" y="783" type="curve" smooth="yes"/>
      <point x="640" y="783"/>
      <point x="792" y="863"/>
      <point x="792" y="1044" type="curve" smooth="yes"/>
      <point x="792" y="1149"/>
      <point x="722" y="1172"/>
      <point x="657" y="1182" type="curve"/>
      <point x="735" y="1191"/>
      <point x="802" y="1227"/>
      <point x="822" y="1344" type="curve" smooth="yes"/>
      <point x="824" y="1356"/>
      <point x="825" y="1368"/>
      <point x="825" y="1379" type="curve" smooth="yes"/>
      <point x="825" y="1490"/>
      <point x="715" y="1526"/>
      <point x="609" y="1526" type="curve" smooth="yes"/>
      <point x="446" y="1526"/>
      <point x="340" y="1509"/>
      <point x="298" y="1311" type="curve"/>
      <point x="377" y="1311" type="line"/>
      <point x="409" y="1445"/>
      <point x="477" y="1457"/>
      <point x="596" y="1457" type="curve" smooth="yes"/>
      <point x="682" y="1457"/>
      <point x="725" y="1428"/>
      <point x="725" y="1371" type="curve" smooth="yes"/>
      <point x="725" y="1363"/>
      <point x="725" y="1356"/>
      <point x="723" y="1347" type="curve" smooth="yes"/>
      <point x="707" y="1256"/>
      <point x="688" y="1216"/>
      <point x="493" y="1216" type="curve"/>
      <point x="481" y="1150" type="line"/>
      <point x="646" y="1150"/>
      <point x="700" y="1126"/>
    </contour>
    <contour>
      <point x="1326" y="0" type="line"/>
      <point x="1412" y="0" type="line"/>
      <point x="1449" y="205" type="line"/>
      <point x="1578" y="205" type="line"/>
      <point x="1590" y="273" type="line"/>
      <point x="1461" y="273" type="line"/>
      <point x="1498" y="484" type="line"/>
      <point x="1412" y="484" type="line"/>
      <point x="1375" y="273" type="line"/>
      <point x="1086" y="273" type="line"/>
      <point x="1425" y="783" type="line"/>
      <point x="1338" y="783" type="line"/>
      <point x="978" y="257" type="line"/>
      <point x="969" y="205" type="line"/>
      <point x="1363" y="205" type="line"/>
    </contour>
    <contour>
      <point x="397" y="0" type="line"/>
      <point x="484" y="0" type="line"/>
      <point x="1456" y="1428" type="line"/>
      <point x="1375" y="1428" type="line"/>
    </contour>
  </outline>
</glyph>
<glyph name="AE" format="1">
  <advance width="1597"/>
  <unicode hex="00C6"/>
  <outline>
    <contour>
      <point x="1096" y="1428" type="move" name="top"/>
    </contour>
    <contour>
      <point x="-18" y="5" type="line"/>
      <point x="121" y="0" type="line"/>
      <point x="241" y="283" type="line"/>
      <point x="787" y="283" type="line"/>
      <point x="737" y="0" type="line"/>
      <point x="1342" y="0" type="line"/>
      <point x="1361" y="104" type="line"/>
      <point x="893" y="104" type="line"/>
      <point x="993" y="675" type="line"/>
      <point x="1397" y="675" type="line"/>
      <point x="1417" y="788" type="line"/>
      <point x="1013" y="788" type="line"/>
      <point x="1108" y="1324" type="line"/>
      <point x="1568" y="1324" type="line"/>
      <point x="1586" y="1427" type="line"/>
      <point x="590" y="1427" type="line"/>
    </contour>
    <contour>
      <point x="282" y="381" type="line"/>
      <point x="665" y="1324" type="line"/>
      <point x="971" y="1324" type="line"/>
      <point x="804" y="381" type="line"/>
    </contour>
  </outline>
</glyph>
<glyph name="multiply" format="1">
  <advance width="942"/>
  <unicode hex="00D7"/>
  <outline>
    <contour>
      <point x="159" y="216" type="line"/>
      <point x="450" y="458" type="line"/>
      <point x="655" y="216" type="line"/>
      <point x="787" y="344" type="line"/>
      <point x="592" y="576" type="line"/>
      <point x="868" y="806" type="line"/>
      <point x="783" y="937" type="line"/>
      <point x="492" y="694" type="line"/>
      <point x="287" y="937" type="line"/>
      <point x="154" y="806" type="line"/>
      <point x="350" y="576" type="line"/>
      <point x="73" y="344" type="line"/>
    </contour>
  </outline>
</glyph>
<glyph name="Oslash" format="1">
  <advance width="1510"/>
  <unicode hex="00D8"/>
  <outline>
    <component base="O"/>
    <contour>
      <point x="172" y="-140" type="line"/>
      <point x="1360" y="1564" type="line"/>
      <point x="1284" y="1600" type="line"/>
      <point x="122" y="-97" type="line"/>
    </contour>
  </outline>
</glyph>
<glyph name="Thorn" format="1">
  <advance width="1295"/>
  <unicode hex="00DE"/>
  <outline>
    <contour>
      <point x="84" y="0" type="line"/>
      <point x="229" y="0" type="line"/>
      <point x="285" y="316" type="line"/>
      <point x="722" y="316" type="line" smooth="yes"/>
      <point x="884" y="316"/>
      <point x="1089" y="402"/>
      <point x="1150" y="750" type="curve" smooth="yes"/>
      <point x="1158" y="798"/>
      <point x="1162" y="840"/>
      <point x="1162" y="879" type="curve" smooth="yes"/>
      <point x="1162" y="1107"/>
      <point x="1026" y="1189"/>
      <point x="861" y="1189" type="curve" smooth="yes"/>
      <point x="439" y="1189" type="line"/>
      <point x="481" y="1428" type="line"/>
      <point x="336" y="1428" type="line"/>
    </contour>
    <contour>
      <point x="306" y="434" type="line"/>
      <point x="417" y="1068" type="line"/>
      <point x="832" y="1068" type="line" smooth="yes"/>
      <point x="969" y="1068"/>
      <point x="1002" y="980"/>
      <point x="1002" y="882" type="curve" smooth="yes"/>
      <point x="1002" y="833"/>
      <point x="994" y="781"/>
      <point x="986" y="736" type="curve" smooth="yes"/>
      <point x="963" y="605"/>
      <point x="912" y="434"/>
      <point x="722" y="434" type="curve" smooth="yes"/>
    </contour>
  </outline>
</glyph>
<glyph name="germandbls" format="1">
  <advance width="1278"/>
  <unicode hex="00DF"/>
  <outline>
    <contour>
      <point x="90" y="0" type="line"/>
      <point x="205" y="0" type="line"/>
      <point x="405" y="1132" type="line" smooth="yes"/>
      <point x="441" y="1338"/>
      <point x="603" y="1340"/>
      <point x="748" y="1340" type="curve" smooth="yes"/>
      <point x="781" y="1340" type="line" smooth="yes"/>
      <point x="873" y="1340"/>
      <point x="965" y="1334"/>
      <point x="965" y="1198" type="curve" smooth="yes"/>
      <point x="965" y="1177"/>
      <point x="963" y="1152"/>
      <point x="958" y="1124" type="curve" smooth="yes"/>
      <point x="933" y="982"/>
      <point x="862" y="923"/>
      <point x="622" y="923" type="curve"/>
      <point x="602" y="810" type="line"/>
      <point x="634" y="811"/>
      <point x="665" y="812"/>
      <point x="695" y="812" type="curve" smooth="yes"/>
      <point x="878" y="812"/>
      <point x="1003" y="776"/>
      <point x="1003" y="605" type="curve" smooth="yes"/>
      <point x="1003" y="581"/>
      <point x="1000" y="553"/>
      <point x="995" y="523" type="curve" smooth="yes"/>
      <point x="926" y="133"/>
      <point x="645" y="167"/>
      <point x="360" y="135" type="curve"/>
      <point x="357" y="12" type="line"/>
      <point x="750" y="12"/>
      <point x="1026" y="97"/>
      <point x="1104" y="541" type="curve" smooth="yes"/>
      <point x="1113" y="593"/>
      <point x="1117" y="638"/>
      <point x="1117" y="675" type="curve" smooth="yes"/>
      <point x="1117" y="915"/>
      <point x="954" y="877"/>
      <point x="947" y="913" type="curve"/>
      <point x="1025" y="934"/>
      <point x="1064" y="972"/>
      <point x="1094" y="1143" type="curve" smooth="yes"/>
      <point x="1099" y="1172"/>
      <point x="1102" y="1199"/>
      <point x="1102" y="1224" type="curve" smooth="yes"/>
      <point x="1102" y="1384"/>
      <point x="1000" y="1469"/>
      <point x="805" y="1469" type="curve"/>
      <point x="587" y="1469"/>
      <point x="343" y="1432"/>
      <point x="283" y="1094" type="curve" smooth="yes"/>
    </contour>
  </outline>
</glyph>
<glyph name="ae" format="1">
  <advance width="1745"/>
  <unicode hex="00E6"/>
  <outline>
    <contour>
      <point x="402" y="-21" type="curve" smooth="yes"/>
      <point x="661" y="-21"/>
      <point x="774" y="90"/>
      <point x="809" y="207" type="curve"/>
      <point x="825" y="103"/>
      <point x="887" y="-21"/>
      <point x="1095" y="-21" type="curve" smooth="yes"/>
      <point x="1385" y="-21"/>
      <point x="1482" y="71"/>
      <point x="1552" y="297" type="curve"/>
      <point x="1431" y="297" type="line"/>
      <point x="1378" y="106"/>
      <point x="1304" y="94"/>
      <point x="1112" y="94" type="curve" smooth="yes"/>
      <point x="970" y="94"/>
      <point x="903" y="154"/>
      <point x="903" y="268" type="curve" smooth="yes"/>
      <point x="903" y="288"/>
      <point x="905" y="309"/>
      <point x="909" y="332" type="curve" smooth="yes"/>
      <point x="940" y="509" type="line"/>
      <point x="1597" y="509" type="line"/>
      <point x="1643" y="766" type="line" smooth="yes"/>
      <point x="1646" y="786"/>
      <point x="1648" y="804"/>
      <point x="1648" y="822" type="curve" smooth="yes"/>
      <point x="1648" y="979"/>
      <point x="1520" y="1070"/>
      <point x="1299" y="1070" type="curve" smooth="yes"/>
      <point x="1146" y="1070"/>
      <point x="1036" y="1026"/>
      <point x="962" y="922" type="curve"/>
      <point x="949" y="1022"/>
      <point x="837" y="1070"/>
      <point x="696" y="1070" type="curve" smooth="yes"/>
      <point x="428" y="1070"/>
      <point x="275" y="1011"/>
      <point x="232" y="767" type="curve" smooth="yes"/>
      <point x="227" y="738" type="line"/>
      <point x="363" y="738" type="line"/>
      <point x="367" y="760" type="line" smooth="yes"/>
      <point x="386" y="868"/>
      <point x="404" y="953"/>
      <point x="662" y="953" type="curve" smooth="yes"/>
      <point x="828" y="953"/>
      <point x="861" y="899"/>
      <point x="861" y="841" type="curve" smooth="yes"/>
      <point x="861" y="815"/>
      <point x="854" y="791"/>
      <point x="851" y="767" type="curve"/>
      <point x="836" y="685"/>
      <point x="820" y="616"/>
      <point x="586" y="568" type="curve" smooth="yes"/>
      <point x="238" y="498"/>
      <point x="125" y="426"/>
      <point x="100" y="286" type="curve" smooth="yes"/>
      <point x="97" y="268"/>
      <point x="95" y="250"/>
      <point x="95" y="232" type="curve" smooth="yes"/>
      <point x="95" y="99"/>
      <point x="185" y="-21"/>
    </contour>
    <contour>
      <point x="419" y="98" type="curve" smooth="yes"/>
      <point x="312" y="98"/>
      <point x="228" y="131"/>
      <point x="228" y="235" type="curve" smooth="yes"/>
      <point x="228" y="401"/>
      <point x="377" y="395"/>
      <point x="570" y="450" type="curve" smooth="yes"/>
      <point x="748" y="499"/>
      <point x="815" y="556"/>
      <point x="819" y="582" type="curve" smooth="yes"/>
      <point x="820" y="585"/>
      <point x="819" y="588"/>
      <point x="818" y="590" type="curve"/>
      <point x="765" y="291" type="line"/>
      <point x="727" y="180"/>
      <point x="560" y="98"/>
    </contour>
    <contour>
      <point x="960" y="620" type="line"/>
      <point x="985" y="760" type="line"/>
      <point x="1009" y="901"/>
      <point x="1099" y="957"/>
      <point x="1274" y="957" type="curve" smooth="yes"/>
      <point x="1424" y="957"/>
      <point x="1526" y="926"/>
      <point x="1526" y="821" type="curve" smooth="yes"/>
      <point x="1526" y="810"/>
      <point x="1525" y="799"/>
      <point x="1523" y="786" type="curve" smooth="yes"/>
      <point x="1494" y="620" type="line"/>
    </contour>
    <contour>
      <point x="993" y="1052" type="move" name="top"/>
    </contour>
  </outline>
</glyph>
<glyph name="eth" format="1">
  <advance width="1066"/>
  <unicode hex="00F0"/>
  <outline>
    <contour>
      <point x="391" y="-18" type="curve" smooth="yes"/>
      <point x="769" y="-18"/>
      <point x="796" y="147"/>
      <point x="823" y="308" type="curve"/>
      <point x="858" y="506"/>
      <point x="893" y="703"/>
      <point x="928" y="901" type="curve" smooth="yes"/>
      <point x="939" y="960"/>
      <point x="950" y="1030"/>
      <point x="950" y="1100" type="curve" smooth="yes"/>
      <point x="950" y="1216"/>
      <point x="920" y="1335"/>
      <point x="808" y="1414" type="curve"/>
      <point x="945" y="1545" type="line"/>
      <point x="874" y="1594" type="line"/>
      <point x="741" y="1461" type="line"/>
      <point x="670" y="1479"/>
      <point x="602" y="1486"/>
      <point x="542" y="1486" type="curve" smooth="yes"/>
      <point x="451" y="1486"/>
      <point x="380" y="1471"/>
      <point x="346" y="1462" type="curve"/>
      <point x="296" y="1357" type="line"/>
      <point x="335" y="1363"/>
      <point x="394" y="1370"/>
      <point x="462" y="1370" type="curve" smooth="yes"/>
      <point x="513" y="1370"/>
      <point x="570" y="1366"/>
      <point x="627" y="1355" type="curve"/>
      <point x="428" y="1143" type="line"/>
      <point x="500" y="1094" type="line"/>
      <point x="711" y="1316" type="line"/>
      <point x="791" y="1253"/>
      <point x="836" y="1165"/>
      <point x="836" y="1046" type="curve" smooth="yes"/>
      <point x="836" y="1000"/>
      <point x="826" y="947"/>
      <point x="818" y="905" type="curve"/>
      <point x="795" y="928"/>
      <point x="730" y="975"/>
      <point x="584" y="975" type="curve" smooth="yes"/>
      <point x="321" y="975"/>
      <point x="150" y="846"/>
      <point x="118" y="663" type="curve" smooth="yes"/>
      <point x="53" y="297" type="line" smooth="yes"/>
      <point x="49" y="272"/>
      <point x="46" y="249"/>
      <point x="46" y="226" type="curve" smooth="yes"/>
      <point x="46" y="83"/>
      <point x="136" y="-18"/>
    </contour>
    <contour>
      <point x="409" y="87" type="curve" smooth="yes"/>
      <point x="288" y="87"/>
      <point x="182" y="124"/>
      <point x="182" y="248" type="curve" smooth="yes"/>
      <point x="182" y="262"/>
      <point x="183" y="277"/>
      <point x="186" y="293" type="curve" smooth="yes"/>
      <point x="253" y="676" type="line" smooth="yes"/>
      <point x="276" y="807"/>
      <point x="399" y="857"/>
      <point x="545" y="857" type="curve" smooth="yes"/>
      <point x="605" y="857"/>
      <point x="747" y="841"/>
      <point x="792" y="811" type="curve"/>
      <point x="792" y="814" type="line"/>
      <point x="779" y="814"/>
      <point x="693" y="312"/>
      <point x="685" y="279" type="curve" smooth="yes"/>
      <point x="668" y="184"/>
      <point x="624" y="87"/>
    </contour>
  </outline>
</glyph>
<glyph name="divide" format="1">
  <advance width="1038"/>
  <unicode hex="00F7"/>
  <outline>
    <contour>
      <point x="348" y="88" type="line"/>
      <point x="540" y="88" type="line"/>
      <point x="575" y="285" type="line"/>
      <point x="383" y="285" type="line"/>
    </contour>
    <contour>
      <point x="81" y="468" type="line"/>
      <point x="933" y="468" type="line"/>
      <point x="955" y="589" type="line"/>
      <point x="103" y="589" type="line"/>
    </contour>
    <contour>
      <point x="471" y="784" type="line"/>
      <point x="663" y="784" type="line"/>
      <point x="698" y="981" type="line"/>
      <point x="506" y="981" type="line"/>
    </contour>
  </outline>
</glyph>
<glyph name="oslash" format="1">
  <advance width="1140"/>
  <unicode hex="00F8"/>
  <outline>
    <contour>
      <point x="143" y="-157" type="line"/>
      <point x="1038" y="1183" type="line"/>
      <point x="982" y="1210" type="line"/>
      <point x="88" y="-130" type="line"/>
    </contour>
    <component base="o"/>
  </outline>
</glyph>
<glyph name="thorn" format="1">
  <advance width="1183"/>
  <unicode hex="00FE"/>
  <outline>
    <contour>
      <point x="20" y="-407" type="line"/>
      <point x="157" y="-407" type="line"/>
      <point x="236" y="44" type="line"/>
      <point x="281" y="16"/>
      <point x="362" y="-24"/>
      <point x="501" y="-24" type="curve" smooth="yes"/>
      <point x="761" y="-24"/>
      <point x="948" y="124"/>
      <point x="988" y="355" type="curve" smooth="yes"/>
      <point x="1052" y="716" type="line" smooth="yes"/>
      <point x="1057" y="743"/>
      <point x="1059" y="768"/>
      <point x="1059" y="793" type="curve" smooth="yes"/>
      <point x="1059" y="955"/>
      <point x="954" y="1065"/>
      <point x="713" y="1065" type="curve" smooth="yes"/>
      <point x="593" y="1065"/>
      <point x="467" y="1020"/>
      <point x="399" y="969" type="curve"/>
      <point x="493" y="1500" type="line"/>
      <point x="360" y="1500" type="line"/>
    </contour>
    <contour>
      <point x="515" y="88" type="curve" smooth="yes"/>
      <point x="404" y="88"/>
      <point x="318" y="120"/>
      <point x="257" y="159" type="curve"/>
      <point x="372" y="814" type="line"/>
      <point x="384" y="837"/>
      <point x="513" y="951"/>
      <point x="673" y="951" type="curve" smooth="yes"/>
      <point x="812" y="951"/>
      <point x="921" y="886"/>
      <point x="921" y="770" type="curve" smooth="yes"/>
      <point x="921" y="758"/>
      <point x="920" y="747"/>
      <point x="918" y="734" type="curve" smooth="yes"/>
      <point x="846" y="326" type="line" smooth="yes"/>
      <point x="821" y="184"/>
      <point x="678" y="88"/>
    </contour>
  </outline>
</glyph>
<glyph name="Hbar" format="1">
  <advance width="1444"/>
  <unicode hex="0126"/>
  <outline>
    <component base="H"/>
    <contour>
      <point x="190" y="1053" type="line"/>
      <point x="1363" y="1053" type="line"/>
      <point x="1377" y="1133" type="line"/>
      <point x="204" y="1133" type="line"/>
    </contour>
  </outline>
</glyph>
<glyph name="hbar" format="1">
  <advance width="1206"/>
  <unicode hex="0127"/>
  <outline>
    <component base="h"/>
    <contour>
      <point x="122" y="1256" type="line"/>
      <point x="668" y="1256" type="line"/>
      <point x="686" y="1357" type="line"/>
      <point x="140" y="1357" type="line"/>
    </contour>
  </outline>
</glyph>
<glyph name="dotlessi" format="1">
  <advance width="548"/>
  <unicode hex="0131"/>
  <outline>
    <contour>
      <point x="208" y="0" type="move" name="ogonek"/>
    </contour>
    <contour>
      <point x="383" y="1052" type="move" name="top"/>
    </contour>
    <contour>
      <point x="112" y="0" type="line"/>
      <point x="262" y="0" type="line"/>
      <point x="448" y="1052" type="line"/>
      <point x="298" y="1052" type="line"/>
    </contour>
  </outline>
</glyph>
<glyph name="kgreenlandic" format="1">
  <advance width="1109"/>
  <unicode hex="0138"/>
  <outline>
    <contour>
      <point x="102" y="0" type="line"/>
      <point x="239" y="0" type="line"/>
      <point x="298" y="335" type="line"/>
      <point x="507" y="507" type="line"/>
      <point x="837" y="0" type="line"/>
      <point x="988" y="0" type="line"/>
      <point x="609" y="570" type="line"/>
      <point x="1118" y="1052" type="line"/>
      <point x="980" y="1052" type="line"/>
      <point x="694" y="792"/>
      <point x="606" y="713"/>
      <point x="319" y="455" type="curve"/>
      <point x="425" y="1052" type="line"/>
      <point x="288" y="1052" type="line"/>
    </contour>
  </outline>
</glyph>
<glyph name="Lslash" format="1">
  <advance width="1129"/>
  <unicode hex="0141"/>
  <outline>
    <component base="L"/>
    <contour>
      <point x="12" y="500" type="line"/>
      <point x="665" y="871" type="line"/>
      <point x="687" y="995" type="line"/>
      <point x="32" y="614" type="line"/>
    </contour>
  </outline>
</glyph>
<glyph name="lslash" format="1">
  <advance width="708"/>
  <unicode hex="0142"/>
  <outline>
    <contour>
      <point x="48" y="658" type="line"/>
      <point x="557" y="940" type="line"/>
      <point x="579" y="1062" type="line"/>
      <point x="70" y="780" type="line"/>
    </contour>
    <component base="l"/>
  </outline>
</glyph>
<glyph name="Eng" format="1">
  <advance width="1547"/>
  <unicode hex="014A"/>
  <outline>
    <contour>
      <point x="615" y="-368" type="line"/>
      <point x="879" y="-368"/>
      <point x="1179" y="-283"/>
      <point x="1246" y="98" type="curve" smooth="yes"/>
      <point x="1480" y="1427" type="line"/>
      <point x="1357" y="1427" type="line"/>
      <point x="1179" y="416" type="line"/>
      <point x="493" y="1427" type="line"/>
      <point x="383" y="1427" type="line"/>
      <point x="132" y="0" type="line"/>
      <point x="255" y="0" type="line"/>
      <point x="461" y="1169" type="line"/>
      <point x="1129" y="212" type="line"/>
      <point x="1112" y="114" type="line"/>
      <point x="1053" y="-220"/>
      <point x="862" y="-233"/>
      <point x="606" y="-256" type="curve"/>
    </contour>
  </outline>
</glyph>
<glyph name="eng" format="1">
  <advance width="1209"/>
  <unicode hex="014B"/>
  <outline>
    <contour>
      <point x="574" y="-287" type="line"/>
      <point x="862" y="-287"/>
      <point x="926" y="-138"/>
      <point x="993" y="243" type="curve" smooth="yes"/>
      <point x="1083" y="756" type="line" smooth="yes"/>
      <point x="1087" y="781"/>
      <point x="1090" y="805"/>
      <point x="1090" y="829" type="curve" smooth="yes"/>
      <point x="1090" y="960"/>
      <point x="1016" y="1070"/>
      <point x="767" y="1070" type="curve" smooth="yes"/>
      <point x="610" y="1070"/>
      <point x="522" y="1028"/>
      <point x="440" y="962" type="curve"/>
      <point x="455" y="1052" type="line"/>
      <point x="318" y="1052" type="line"/>
      <point x="133" y="0" type="line"/>
      <point x="270" y="0" type="line"/>
      <point x="403" y="753" type="line" smooth="yes"/>
      <point x="420" y="853"/>
      <point x="503" y="953"/>
      <point x="738" y="953" type="curve" smooth="yes"/>
      <point x="881" y="953"/>
      <point x="955" y="901"/>
      <point x="955" y="818" type="curve" smooth="yes"/>
      <point x="955" y="809"/>
      <point x="954" y="799"/>
      <point x="952" y="789" type="curve" smooth="yes"/>
      <point x="855" y="236" type="line" smooth="yes"/>
      <point x="843" y="169"/>
      <point x="835" y="112"/>
      <point x="826" y="63" type="curve" smooth="yes"/>
      <point x="796" y="-106"/>
      <point x="765" y="-176"/>
      <point x="602" y="-176" type="curve" smooth="yes"/>
      <point x="591" y="-176"/>
      <point x="579" y="-176"/>
      <point x="566" y="-175" type="curve"/>
    </contour>
  </outline>
</glyph>
<glyph name="OE" format="1">
  <advance width="1511"/>
  <unicode hex="0152"/>
  <outline>
    <contour>
      <point x="684" y="0" type="curve" smooth="yes"/>
      <point x="1208" y="0" type="line"/>
      <point x="1230" y="126" type="line"/>
      <point x="764" y="126" type="line"/>
      <point x="859" y="663" type="line"/>
      <point x="1264" y="663" type="line"/>
      <point x="1286" y="788" type="line"/>
      <point x="881" y="788" type="line"/>
      <point x="972" y="1301" type="line"/>
      <point x="1425" y="1301" type="line"/>
      <point x="1447" y="1428" type="line"/>
      <point x="933" y="1428" type="line" smooth="yes"/>
      <point x="432" y="1428"/>
      <point x="284" y="1209"/>
      <point x="229" y="894" type="curve"/>
      <point x="161" y="512" type="line" smooth="yes"/>
      <point x="152" y="459"/>
      <point x="146" y="409"/>
      <point x="146" y="363" type="curve" smooth="yes"/>
      <point x="146" y="142"/>
      <point x="269" y="0"/>
    </contour>
    <contour>
      <point x="692" y="125" type="line" smooth="yes"/>
      <point x="461" y="125"/>
      <point x="309" y="166"/>
      <point x="309" y="385" type="curve" smooth="yes"/>
      <point x="309" y="419"/>
      <point x="313" y="457"/>
      <point x="320" y="500" type="curve" smooth="yes"/>
      <point x="393" y="915" type="line" smooth="yes"/>
      <point x="450" y="1234"/>
      <point x="634" y="1305"/>
      <point x="899" y="1305" type="curve" smooth="yes"/>
      <point x="812" y="1305" type="line"/>
      <point x="604" y="125" type="line"/>
    </contour>
  </outline>
</glyph>
<glyph name="oe" format="1">
  <advance width="1706"/>
  <unicode hex="0153"/>
  <outline>
    <contour>
      <point x="464" y="-18" type="curve" smooth="yes"/>
      <point x="632" y="-18"/>
      <point x="728" y="41"/>
      <point x="802" y="141" type="curve"/>
      <point x="839" y="45"/>
      <point x="932" y="-18"/>
      <point x="1088" y="-18" type="curve" smooth="yes"/>
      <point x="1378" y="-18"/>
      <point x="1456" y="90"/>
      <point x="1526" y="315" type="curve"/>
      <point x="1406" y="315" type="line"/>
      <point x="1354" y="124"/>
      <point x="1297" y="94"/>
      <point x="1105" y="94" type="curve" smooth="yes"/>
      <point x="964" y="94"/>
      <point x="900" y="152"/>
      <point x="900" y="264" type="curve" smooth="yes"/>
      <point x="900" y="285"/>
      <point x="903" y="307"/>
      <point x="907" y="332" type="curve" smooth="yes"/>
      <point x="937" y="502" type="line"/>
      <point x="1560" y="502" type="line"/>
      <point x="1606" y="766" type="line" smooth="yes"/>
      <point x="1610" y="788"/>
      <point x="1612" y="810"/>
      <point x="1612" y="830" type="curve" smooth="yes"/>
      <point x="1612" y="983"/>
      <point x="1498" y="1070"/>
      <point x="1281" y="1070" type="curve" smooth="yes"/>
      <point x="1127" y="1070"/>
      <point x="1019" y="1032"/>
      <point x="943" y="934" type="curve"/>
      <point x="895" y="1033"/>
      <point x="798" y="1070"/>
      <point x="656" y="1070" type="curve" smooth="yes"/>
      <point x="401" y="1070"/>
      <point x="238" y="933"/>
      <point x="205" y="746" type="curve" smooth="yes"/>
      <point x="128" y="312" type="line" smooth="yes"/>
      <point x="123" y="284"/>
      <point x="120" y="257"/>
      <point x="120" y="231" type="curve" smooth="yes"/>
      <point x="120" y="86"/>
      <point x="207" y="-18"/>
    </contour>
    <contour>
      <point x="484" y="94" type="curve" smooth="yes"/>
      <point x="341" y="94"/>
      <point x="258" y="137"/>
      <point x="258" y="247" type="curve" smooth="yes"/>
      <point x="258" y="261"/>
      <point x="259" y="276"/>
      <point x="262" y="293" type="curve" smooth="yes"/>
      <point x="345" y="764" type="line" smooth="yes"/>
      <point x="370" y="908"/>
      <point x="482" y="957"/>
      <point x="636" y="957" type="curve" smooth="yes"/>
      <point x="775" y="957"/>
      <point x="850" y="912"/>
      <point x="850" y="810" type="curve" smooth="yes"/>
      <point x="850" y="796"/>
      <point x="849" y="780"/>
      <point x="846" y="764" type="curve" smooth="yes"/>
      <point x="763" y="293" type="line" smooth="yes"/>
      <point x="738" y="151"/>
      <point x="638" y="94"/>
    </contour>
    <contour>
      <point x="958" y="620" type="line"/>
      <point x="982" y="760" type="line" smooth="yes"/>
      <point x="1007" y="901"/>
      <point x="1082" y="957"/>
      <point x="1257" y="957" type="curve" smooth="yes"/>
      <point x="1403" y="957"/>
      <point x="1477" y="928"/>
      <point x="1477" y="830" type="curve" smooth="yes"/>
      <point x="1477" y="817"/>
      <point x="1476" y="802"/>
      <point x="1473" y="786" type="curve" smooth="yes"/>
      <point x="1444" y="620" type="line"/>
    </contour>
  </outline>
</glyph>
<glyph name="florin" format="1">
  <advance width="810"/>
  <unicode hex="0192"/>
  <outline>
    <contour>
      <point x="27" y="-187" type="curve" smooth="yes"/>
      <point x="167" y="-187"/>
      <point x="307" y="-136"/>
      <point x="346" y="85" type="curve" smooth="yes"/>
      <point x="451" y="676" type="line"/>
      <point x="660" y="676" type="line"/>
      <point x="674" y="755" type="line"/>
      <point x="465" y="755" type="line"/>
      <point x="536" y="1159" type="line" smooth="yes"/>
      <point x="560" y="1298"/>
      <point x="618" y="1373"/>
      <point x="753" y="1373" type="curve" smooth="yes"/>
      <point x="768" y="1373"/>
      <point x="783" y="1372"/>
      <point x="800" y="1370" type="curve"/>
      <point x="814" y="1447" type="line"/>
      <point x="783" y="1450"/>
      <point x="752" y="1453"/>
      <point x="721" y="1453" type="curve" smooth="yes"/>
      <point x="580" y="1453"/>
      <point x="446" y="1401"/>
      <point x="400" y="1139" type="curve" smooth="yes"/>
      <point x="333" y="755" type="line"/>
      <point x="134" y="755" type="line"/>
      <point x="120" y="676" type="line"/>
      <point x="319" y="676" type="line"/>
      <point x="209" y="56" type="line" smooth="yes"/>
      <point x="187" y="-70"/>
      <point x="89" y="-98"/>
      <point x="-40" y="-98" type="curve" smooth="yes"/>
      <point x="-54" y="-98" type="line"/>
      <point x="-68" y="-180" type="line"/>
      <point x="-37" y="-184"/>
      <point x="-5" y="-187"/>
    </contour>
  </outline>
</glyph>
<glyph name="dotlessj" format="1">
  <advance width="548"/>
  <unicode hex="0237"/>
  <outline>
    <contour>
      <point x="423" y="1052" type="move" name="top"/>
    </contour>
    <contour>
      <point x="-78" y="-359" type="line"/>
      <point x="4" y="-356" type="line" smooth="yes"/>
      <point x="185" y="-349"/>
      <point x="250" y="-310"/>
      <point x="304" y="-7" type="curve" smooth="yes"/>
      <point x="490" y="1052" type="line"/>
      <point x="352" y="1052" type="line"/>
      <point x="161" y="-32" type="line" smooth="yes"/>
      <point x="129" y="-213"/>
      <point x="105" y="-233"/>
      <point x="-11" y="-237" type="curve" smooth="yes"/>
      <point x="-64" y="-239" type="line"/>
    </contour>
  </outline>
</glyph>
<glyph name="uni02BC" format="1">
  <advance width="600"/>
  <unicode hex="02BC"/>
  <outline>
    <component base="comma" xOffset="-200" yOffset="1611"/>
    <contour>
      <point x="13" y="1052" type="move" name="_top"/>
    </contour>
  </outline>
</glyph>
<glyph name="circumflex" format="1">
  <advance width="512"/>
  <unicode hex="02C6"/>
  <outline>
    <contour>
      <point x="-30" y="1206" type="line"/>
      <point x="120" y="1206" type="line"/>
      <point x="262" y="1350" type="line"/>
      <point x="344" y="1206" type="line"/>
      <point x="490" y="1206" type="line"/>
      <point x="331" y="1452" type="line"/>
      <point x="226" y="1452" type="line"/>
    </contour>
    <contour>
      <point x="200" y="1052" type="move" name="_top"/>
    </contour>
  </outline>
</glyph>
<glyph name="caron" format="1">
  <advance width="512"/>
  <unicode hex="02C7"/>
  <outline>
    <contour>
      <point x="215" y="1052" type="move" name="_top"/>
    </contour>
    <contour>
      <point x="290" y="1189" type="line"/>
      <point x="537" y="1435" type="line"/>
      <point x="391" y="1435" type="line"/>
      <point x="257" y="1291" type="line"/>
      <point x="167" y="1435" type="line"/>
      <point x="17" y="1435" type="line"/>
      <point x="185" y="1189" type="line"/>
    </contour>
  </outline>
</glyph>
<glyph name="firsttonechinese" format="1">
  <advance width="514"/>
  <unicode hex="02C9"/>
  <outline>
    <contour>
      <point x="5" y="1265" type="line"/>
      <point x="489" y="1265" type="line"/>
      <point x="509" y="1376" type="line"/>
      <point x="25" y="1376" type="line"/>
    </contour>
    <contour>
      <point x="257" y="1325" type="move" name="_mid"/>
    </contour>
    <contour>
      <point x="210" y="1052" type="move" name="_top"/>
    </contour>
  </outline>
</glyph>
<glyph name="breve" format="1">
  <advance width="512"/>
  <unicode hex="02D8"/>
  <outline>
    <contour>
      <point x="240" y="1173" type="curve" smooth="yes"/>
      <point x="386" y="1173"/>
      <point x="469" y="1293"/>
      <point x="480" y="1357" type="curve"/>
      <point x="365" y="1357" type="line"/>
      <point x="356" y="1307"/>
      <point x="303" y="1273"/>
      <point x="257" y="1273" type="curve" smooth="yes"/>
      <point x="215" y="1273"/>
      <point x="178" y="1301"/>
      <point x="178" y="1343" type="curve" smooth="yes"/>
      <point x="178" y="1347"/>
      <point x="178" y="1352"/>
      <point x="179" y="1357" type="curve"/>
      <point x="64" y="1357" type="line"/>
      <point x="63" y="1351"/>
      <point x="62" y="1343"/>
      <point x="62" y="1336" type="curve" smooth="yes"/>
      <point x="62" y="1270"/>
      <point x="109" y="1173"/>
    </contour>
    <contour>
      <point x="229" y="1052" type="move" name="_top"/>
    </contour>
  </outline>
</glyph>
<glyph name="dotaccent" format="1">
  <advance width="526"/>
  <unicode hex="02D9"/>
  <outline>
    <contour>
      <point x="158" y="1243" type="line"/>
      <point x="296" y="1243" type="line"/>
      <point x="328" y="1423" type="line"/>
      <point x="190" y="1423" type="line"/>
    </contour>
    <contour>
      <point x="196" y="1052" type="move" name="_top"/>
    </contour>
  </outline>
</glyph>
<glyph name="ring" format="1">
  <advance width="464"/>
  <unicode hex="02DA"/>
  <outline>
    <contour>
      <point x="339" y="1326" type="curve" smooth="yes"/>
      <point x="339" y="1230"/>
      <point x="269" y="1192"/>
      <point x="213" y="1192" type="curve" smooth="yes"/>
      <point x="169" y="1192"/>
      <point x="126" y="1212"/>
      <point x="126" y="1273" type="curve" smooth="yes"/>
      <point x="126" y="1370"/>
      <point x="197" y="1406"/>
      <point x="252" y="1406" type="curve" smooth="yes"/>
      <point x="298" y="1406"/>
      <point x="339" y="1386"/>
    </contour>
    <contour>
      <point x="260" y="1457" type="curve" smooth="yes"/>
      <point x="181" y="1457"/>
      <point x="57" y="1403"/>
      <point x="57" y="1268" type="curve" smooth="yes"/>
      <point x="57" y="1177"/>
      <point x="137" y="1142"/>
      <point x="204" y="1142" type="curve" smooth="yes"/>
      <point x="284" y="1142"/>
      <point x="407" y="1195"/>
      <point x="407" y="1330" type="curve" smooth="yes"/>
      <point x="407" y="1421"/>
      <point x="328" y="1457"/>
    </contour>
    <contour>
      <point x="245" y="1380" type="move" name="top"/>
    </contour>
    <contour>
      <point x="187" y="1052" type="move" name="_top"/>
    </contour>
  </outline>
</glyph>
<glyph name="ogonek" format="1">
  <advance width="529"/>
  <unicode hex="02DB"/>
  <outline>
    <contour>
      <point x="365" y="-457" type="curve"/>
      <point x="369" y="-386" type="line"/>
      <point x="264" y="-386"/>
      <point x="224" y="-345"/>
      <point x="224" y="-284" type="curve" smooth="yes"/>
      <point x="224" y="-275"/>
      <point x="225" y="-265"/>
      <point x="227" y="-255" type="curve" smooth="yes"/>
      <point x="246" y="-152"/>
      <point x="355" y="-44"/>
      <point x="446" y="11" type="curve"/>
      <point x="386" y="11" type="line"/>
      <point x="216" y="-84"/>
      <point x="149" y="-205"/>
      <point x="137" y="-273" type="curve" smooth="yes"/>
      <point x="135" y="-283"/>
      <point x="134" y="-292"/>
      <point x="134" y="-302" type="curve" smooth="yes"/>
      <point x="134" y="-381"/>
      <point x="196" y="-456"/>
    </contour>
    <contour>
      <point x="415" y="0" type="move" name="_ogonek"/>
    </contour>
  </outline>
</glyph>
<glyph name="tilde" format="1">
  <advance width="364"/>
  <unicode hex="02DC"/>
  <outline>
    <contour>
      <point x="131" y="1052" type="move" name="_top"/>
    </contour>
    <contour>
      <point x="310" y="1420" type="curve"/>
      <point x="178" y="1420"/>
      <point x="125" y="1310"/>
      <point x="54" y="1310" type="curve" smooth="yes"/>
      <point x="20" y="1310"/>
      <point x="0" y="1337"/>
      <point x="0" y="1380" type="curve" smooth="yes"/>
      <point x="0" y="1389"/>
      <point x="1" y="1398"/>
      <point x="3" y="1408" type="curve"/>
      <point x="-81" y="1408" type="line"/>
      <point x="-86" y="1381"/>
      <point x="-88" y="1357"/>
      <point x="-88" y="1337" type="curve" smooth="yes"/>
      <point x="-88" y="1242"/>
      <point x="-38" y="1212"/>
      <point x="53" y="1212" type="curve" smooth="yes"/>
      <point x="180" y="1212"/>
      <point x="244" y="1310"/>
      <point x="297" y="1322" type="curve" smooth="yes"/>
      <point x="302" y="1323"/>
      <point x="306" y="1324"/>
      <point x="310" y="1324" type="curve" smooth="yes"/>
      <point x="342" y="1324"/>
      <point x="361" y="1295"/>
      <point x="361" y="1252" type="curve" smooth="yes"/>
      <point x="361" y="1243"/>
      <point x="361" y="1235"/>
      <point x="359" y="1225" type="curve"/>
      <point x="443" y="1225" type="line"/>
      <point x="447" y="1248"/>
      <point x="449" y="1269"/>
      <point x="449" y="1288" type="curve" smooth="yes"/>
      <point x="449" y="1380"/>
      <point x="356" y="1377"/>
    </contour>
  </outline>
</glyph>
<glyph name="hungarumlaut" format="1">
  <advance width="1024"/>
  <unicode hex="02DD"/>
  <outline>
    <contour>
      <point x="185" y="1215" type="line"/>
      <point x="280" y="1215" type="line"/>
      <point x="584" y="1605" type="line"/>
      <point x="405" y="1605" type="line"/>
    </contour>
    <contour>
      <point x="525" y="1215" type="line"/>
      <point x="625" y="1215" type="line"/>
      <point x="979" y="1605" type="line"/>
      <point x="795" y="1605" type="line"/>
    </contour>
    <contour>
      <point x="393" y="1052" type="move" name="_top"/>
    </contour>
  </outline>
</glyph>
<glyph name="uni0307" format="1">
  <advance width="299"/>
  <unicode hex="0307"/>
  <outline>
    <contour>
      <point x="48" y="1327" type="line"/>
      <point x="241" y="1327" type="line"/>
      <point x="277" y="1535" type="line"/>
      <point x="84" y="1535" type="line"/>
    </contour>
    <contour>
      <point x="106" y="1052" type="move" name="_top"/>
    </contour>
  </outline>
</glyph>
<glyph name="uni030F" format="1">
  <advance width="1024"/>
  <unicode hex="030F"/>
  <outline>
    <contour>
      <point x="565" y="1052" type="move" name="_top"/>
    </contour>
    <contour>
      <point x="568" y="1605" type="line"/>
      <point x="736" y="1215" type="line"/>
      <point x="831" y="1215" type="line"/>
      <point x="747" y="1605" type="line"/>
    </contour>
    <contour>
      <point x="173" y="1605" type="line"/>
      <point x="391" y="1215" type="line"/>
      <point x="491" y="1215" type="line"/>
      <point x="357" y="1605" type="line"/>
    </contour>
  </outline>
</glyph>
<glyph name="uni0311" format="1">
  <advance width="474"/>
  <unicode hex="0311"/>
  <outline>
    <contour>
      <point x="197" y="1052" type="move" name="_top"/>
    </contour>
    <contour>
      <point x="12" y="1246" type="curve"/>
      <point x="127" y="1246" type="line"/>
      <point x="136" y="1297"/>
      <point x="188" y="1330"/>
      <point x="235" y="1330" type="curve" smooth="yes"/>
      <point x="277" y="1330"/>
      <point x="313" y="1303"/>
      <point x="313" y="1260" type="curve" smooth="yes"/>
      <point x="313" y="1255"/>
      <point x="313" y="1251"/>
      <point x="312" y="1246" type="curve"/>
      <point x="428" y="1246" type="line"/>
      <point x="429" y="1252"/>
      <point x="430" y="1260"/>
      <point x="430" y="1267" type="curve" smooth="yes"/>
      <point x="430" y="1333"/>
      <point x="383" y="1430"/>
      <point x="252" y="1430" type="curve" smooth="yes"/>
      <point x="106" y="1430"/>
      <point x="23" y="1310"/>
    </contour>
  </outline>
</glyph>
<glyph name="uni0358" format="1">
  <advance width="600"/>
  <unicode hex="0358"/>
  <outline>
    <contour>
      <point x="248" y="1052" type="move" name="_top"/>
    </contour>
    <contour>
      <point x="181" y="1279" type="line"/>
      <point x="374" y="1279" type="line"/>
      <point x="410" y="1487" type="line"/>
      <point x="217" y="1487" type="line"/>
    </contour>
  </outline>
</glyph>
<glyph name="Delta" format="1">
  <advance width="1433"/>
  <unicode hex="0394"/>
  <outline>
    <contour>
      <point x="67" y="0" type="line"/>
      <point x="1105" y="0" type="line"/>
      <point x="911" y="1428" type="line"/>
      <point x="758" y="1428" type="line"/>
    </contour>
    <contour>
      <point x="293" y="110" type="line"/>
      <point x="829" y="1229" type="line"/>
      <point x="972" y="110" type="line"/>
    </contour>
  </outline>
</glyph>
<glyph name="Sigma" format="1">
  <advance width="1132"/>
  <unicode hex="03A3"/>
  <outline>
    <contour>
      <point x="942" y="0" type="line"/>
      <point x="964" y="124" type="line"/>
      <point x="142" y="124" type="line"/>
      <point x="724" y="740" type="line"/>
      <point x="735" y="804" type="line"/>
      <point x="342" y="1306" type="line"/>
      <point x="1172" y="1306" type="line"/>
      <point x="1194" y="1428" type="line"/>
      <point x="250" y="1428" type="line"/>
      <point x="228" y="1302" type="line"/>
      <point x="620" y="763" type="line"/>
      <point x="22" y="133" type="line"/>
      <point x="-2" y="0" type="line"/>
    </contour>
  </outline>
</glyph>
<glyph name="Omega" format="1">
  <advance width="1557"/>
  <unicode hex="03A9"/>
  <outline>
    <contour>
      <point x="907" y="1455" type="curve" smooth="yes"/>
      <point x="564" y="1455"/>
      <point x="319" y="1344"/>
      <point x="205" y="698" type="curve" smooth="yes"/>
      <point x="187" y="598"/>
      <point x="179" y="514"/>
      <point x="179" y="444" type="curve" smooth="yes"/>
      <point x="179" y="243"/>
      <point x="248" y="155"/>
      <point x="361" y="102" type="curve"/>
      <point x="121" y="102" type="line"/>
      <point x="103" y="0" type="line"/>
      <point x="546" y="0" type="line"/>
      <point x="565" y="110" type="line"/>
      <point x="399" y="161"/>
      <point x="316" y="248"/>
      <point x="316" y="461" type="curve" smooth="yes"/>
      <point x="316" y="530"/>
      <point x="325" y="612"/>
      <point x="342" y="710" type="curve" smooth="yes"/>
      <point x="439" y="1258"/>
      <point x="607" y="1324"/>
      <point x="884" y="1324" type="curve" smooth="yes"/>
      <point x="1098" y="1324"/>
      <point x="1238" y="1283"/>
      <point x="1238" y="991" type="curve" smooth="yes"/>
      <point x="1238" y="915"/>
      <point x="1229" y="823"/>
      <point x="1209" y="710" type="curve" smooth="yes"/>
      <point x="1138" y="308"/>
      <point x="1019" y="177"/>
      <point x="774" y="110" type="curve"/>
      <point x="755" y="0" type="line"/>
      <point x="1198" y="0" type="line"/>
      <point x="1216" y="102" type="line"/>
      <point x="977" y="102" type="line"/>
      <point x="1152" y="173"/>
      <point x="1273" y="309"/>
      <point x="1342" y="698" type="curve" smooth="yes"/>
      <point x="1363" y="818"/>
      <point x="1373" y="918"/>
      <point x="1373" y="1004" type="curve" smooth="yes"/>
      <point x="1373" y="1381"/>
      <point x="1181" y="1455"/>
    </contour>
  </outline>
</glyph>
<glyph name="mu" format="1">
  <advance width="1211"/>
  <unicode hex="03BC"/>
  <outline>
    <contour>
      <point x="1002" y="1052" type="line"/>
      <point x="870" y="304" type="line" smooth="yes"/>
      <point x="856" y="222"/>
      <point x="761" y="96"/>
      <point x="526" y="96" type="curve" smooth="yes"/>
      <point x="385" y="96"/>
      <point x="322" y="159"/>
      <point x="322" y="244" type="curve" smooth="yes"/>
      <point x="322" y="255"/>
      <point x="323" y="267"/>
      <point x="325" y="278" type="curve" smooth="yes"/>
      <point x="461" y="1052" type="line"/>
      <point x="324" y="1052" type="line"/>
      <point x="56" y="-471" type="line"/>
      <point x="205" y="-471" type="line"/>
      <point x="290" y="10" type="line"/>
      <point x="330" y="-11"/>
      <point x="391" y="-24"/>
      <point x="476" y="-24" type="curve" smooth="yes"/>
      <point x="641" y="-24"/>
      <point x="759" y="36"/>
      <point x="840" y="132" type="curve"/>
      <point x="845" y="0" type="line"/>
      <point x="954" y="0" type="line"/>
      <point x="1139" y="1052" type="line"/>
    </contour>
  </outline>
</glyph>
<glyph name="pi" format="1">
  <advance width="1134"/>
  <unicode hex="03C0"/>
  <outline>
    <contour>
      <point x="99" y="919" type="line"/>
      <point x="95" y="916"/>
      <point x="94" y="915"/>
      <point x="93" y="914" type="curve"/>
      <point x="93" y="914"/>
      <point x="93" y="913"/>
      <point x="94" y="913" type="curve" smooth="yes"/>
      <point x="107" y="913"/>
      <point x="227" y="961"/>
      <point x="324" y="961" type="curve" smooth="yes"/>
      <point x="338" y="961" type="line"/>
      <point x="168" y="0" type="line"/>
      <point x="317" y="0" type="line"/>
      <point x="487" y="960" type="line"/>
      <point x="818" y="960" type="line"/>
      <point x="692" y="249" type="line" smooth="yes"/>
      <point x="685" y="210"/>
      <point x="682" y="177"/>
      <point x="682" y="148" type="curve" smooth="yes"/>
      <point x="682" y="13"/>
      <point x="756" y="-21"/>
      <point x="909" y="-23" type="curve"/>
      <point x="982" y="105" type="line"/>
      <point x="881" y="130"/>
      <point x="844" y="147"/>
      <point x="844" y="224" type="curve" smooth="yes"/>
      <point x="844" y="250"/>
      <point x="848" y="284"/>
      <point x="856" y="327" type="curve" smooth="yes"/>
      <point x="968" y="960" type="line"/>
      <point x="1150" y="960" type="line"/>
      <point x="1166" y="1052" type="line"/>
      <point x="302" y="1052" type="line" smooth="yes"/>
      <point x="191" y="1052"/>
      <point x="115" y="1002"/>
      <point x="110" y="1002" type="curve" smooth="yes"/>
      <point x="109" y="1002"/>
      <point x="110" y="1004"/>
      <point x="115" y="1008" type="curve"/>
    </contour>
  </outline>
</glyph>
<glyph name="endash" format="1">
  <advance width="433"/>
  <unicode hex="2013"/>
  <outline>
    <contour>
      <point x="-83" y="702" type="line"/>
      <point x="494" y="702" type="line"/>
      <point x="512" y="804" type="line"/>
      <point x="-65" y="804" type="line"/>
    </contour>
  </outline>
</glyph>
<glyph name="emdash" format="1">
  <advance width="1185"/>
  <unicode hex="2014"/>
  <outline>
    <contour>
      <point x="-10" y="413" type="line"/>
      <point x="1172" y="413" type="line"/>
      <point x="1194" y="543" type="line"/>
      <point x="12" y="543" type="line"/>
    </contour>
  </outline>
</glyph>
<glyph name="quoteleft" format="1">
  <advance width="706"/>
  <unicode hex="2018"/>
  <outline>
    <contour>
      <point x="537" y="1447" type="line"/>
      <point x="472" y="1394"/>
      <point x="349" y="1276"/>
      <point x="317" y="1091" type="curve" smooth="yes"/>
      <point x="289" y="932" type="line"/>
      <point x="507" y="932" type="line"/>
      <point x="543" y="1140" type="line"/>
      <point x="417" y="1140" type="line"/>
      <point x="440" y="1268"/>
      <point x="541" y="1351"/>
      <point x="595" y="1404" type="curve"/>
    </contour>
  </outline>
</glyph>
<glyph name="quoteright" format="1">
  <advance width="730"/>
  <unicode hex="2019"/>
  <outline>
    <contour>
      <point x="169" y="932" type="line"/>
      <point x="234" y="985"/>
      <point x="357" y="1102"/>
      <point x="389" y="1287" type="curve" smooth="yes"/>
      <point x="417" y="1446" type="line"/>
      <point x="199" y="1446" type="line"/>
      <point x="163" y="1239" type="line"/>
      <point x="289" y="1239" type="line"/>
      <point x="266" y="1111"/>
      <point x="165" y="1028"/>
      <point x="111" y="975" type="curve"/>
    </contour>
  </outline>
</glyph>
<glyph name="quotesinglbase" format="1">
  <advance width="706"/>
  <unicode hex="201A"/>
  <outline>
    <contour>
      <point x="145" y="-307" type="line"/>
      <point x="210" y="-255"/>
      <point x="333" y="-137"/>
      <point x="365" y="48" type="curve" smooth="yes"/>
      <point x="393" y="207" type="line"/>
      <point x="175" y="207" type="line"/>
      <point x="139" y="0" type="line"/>
      <point x="265" y="0" type="line"/>
      <point x="242" y="-128"/>
      <point x="141" y="-211"/>
      <point x="87" y="-265" type="curve"/>
    </contour>
  </outline>
</glyph>
<glyph name="quotedblleft" format="1">
  <advance width="1104"/>
  <unicode hex="201C"/>
  <outline>
    <contour>
      <point x="561" y="1440" type="line"/>
      <point x="496" y="1387"/>
      <point x="373" y="1269"/>
      <point x="341" y="1084" type="curve" smooth="yes"/>
      <point x="313" y="925" type="line"/>
      <point x="531" y="925" type="line"/>
      <point x="567" y="1132" type="line"/>
      <point x="441" y="1132" type="line"/>
      <point x="464" y="1261"/>
      <point x="565" y="1344"/>
      <point x="619" y="1397" type="curve"/>
    </contour>
    <contour>
      <point x="935" y="1440" type="line"/>
      <point x="870" y="1387"/>
      <point x="747" y="1269"/>
      <point x="715" y="1084" type="curve" smooth="yes"/>
      <point x="687" y="925" type="line"/>
      <point x="905" y="925" type="line"/>
      <point x="941" y="1132" type="line"/>
      <point x="814" y="1132" type="line"/>
      <point x="837" y="1261"/>
      <point x="938" y="1344"/>
      <point x="993" y="1397" type="curve"/>
    </contour>
  </outline>
</glyph>
<glyph name="quotedblright" format="1">
  <advance width="1080"/>
  <unicode hex="201D"/>
  <outline>
    <contour>
      <point x="145" y="925" type="line"/>
      <point x="210" y="977"/>
      <point x="333" y="1095"/>
      <point x="365" y="1280" type="curve" smooth="yes"/>
      <point x="393" y="1439" type="line"/>
      <point x="175" y="1439" type="line"/>
      <point x="139" y="1232" type="line"/>
      <point x="265" y="1232" type="line"/>
      <point x="242" y="1104"/>
      <point x="141" y="1021"/>
      <point x="87" y="967" type="curve"/>
    </contour>
    <contour>
      <point x="519" y="925" type="line"/>
      <point x="583" y="977"/>
      <point x="706" y="1095"/>
      <point x="738" y="1280" type="curve" smooth="yes"/>
      <point x="766" y="1439" type="line"/>
      <point x="548" y="1439" type="line"/>
      <point x="512" y="1232" type="line"/>
      <point x="639" y="1232" type="line"/>
      <point x="616" y="1104"/>
      <point x="515" y="1021"/>
      <point x="460" y="967" type="curve"/>
    </contour>
  </outline>
</glyph>
<glyph name="quotedblbase" format="1">
  <advance width="1066"/>
  <unicode hex="201E"/>
  <outline>
    <contour>
      <point x="505" y="-307" type="line"/>
      <point x="569" y="-255"/>
      <point x="692" y="-137"/>
      <point x="724" y="48" type="curve" smooth="yes"/>
      <point x="752" y="207" type="line"/>
      <point x="534" y="207" type="line"/>
      <point x="498" y="0" type="line"/>
      <point x="625" y="0" type="line"/>
      <point x="602" y="-128"/>
      <point x="501" y="-211"/>
      <point x="446" y="-265" type="curve"/>
    </contour>
    <contour>
      <point x="145" y="-307" type="line"/>
      <point x="210" y="-255"/>
      <point x="333" y="-137"/>
      <point x="365" y="48" type="curve" smooth="yes"/>
      <point x="393" y="207" type="line"/>
      <point x="175" y="207" type="line"/>
      <point x="139" y="0" type="line"/>
      <point x="265" y="0" type="line"/>
      <point x="242" y="-128"/>
      <point x="141" y="-211"/>
      <point x="87" y="-265" type="curve"/>
    </contour>
  </outline>
</glyph>
<glyph name="dagger" format="1">
  <advance width="810"/>
  <unicode hex="2020"/>
  <outline>
    <contour>
      <point x="177" y="0" type="line"/>
      <point x="355" y="0" type="line"/>
      <point x="527" y="975" type="line"/>
      <point x="802" y="975" type="line"/>
      <point x="822" y="1088" type="line"/>
      <point x="547" y="1088" type="line"/>
      <point x="623" y="1519" type="line"/>
      <point x="445" y="1519" type="line"/>
      <point x="369" y="1088" type="line"/>
      <point x="103" y="1088" type="line"/>
      <point x="83" y="975" type="line"/>
      <point x="349" y="975" type="line"/>
    </contour>
  </outline>
</glyph>
<glyph name="daggerdbl" format="1">
  <advance width="886"/>
  <unicode hex="2021"/>
  <outline>
    <contour>
      <point x="216" y="0" type="line"/>
      <point x="394" y="0" type="line"/>
      <point x="469" y="425" type="line"/>
      <point x="779" y="425" type="line"/>
      <point x="796" y="519" type="line"/>
      <point x="486" y="519" type="line"/>
      <point x="564" y="966" type="line"/>
      <point x="874" y="966" type="line"/>
      <point x="891" y="1061" type="line"/>
      <point x="581" y="1061" type="line"/>
      <point x="662" y="1519" type="line"/>
      <point x="484" y="1519" type="line"/>
      <point x="403" y="1061" type="line"/>
      <point x="101" y="1061" type="line"/>
      <point x="84" y="966" type="line"/>
      <point x="386" y="966" type="line"/>
      <point x="308" y="519" type="line"/>
      <point x="6" y="519" type="line"/>
      <point x="-11" y="425" type="line"/>
      <point x="291" y="425" type="line"/>
    </contour>
  </outline>
</glyph>
<glyph name="bullet" format="1">
  <advance width="946"/>
  <unicode hex="2022"/>
  <outline>
    <contour>
      <point x="420" y="243" type="curve"/>
      <point x="667" y="243"/>
      <point x="738" y="334"/>
      <point x="773" y="534" type="curve" smooth="yes"/>
      <point x="780" y="576"/>
      <point x="785" y="613"/>
      <point x="785" y="645" type="curve" smooth="yes"/>
      <point x="785" y="770"/>
      <point x="720" y="827"/>
      <point x="523" y="827" type="curve" smooth="yes"/>
      <point x="279" y="827"/>
      <point x="209" y="737"/>
      <point x="173" y="534" type="curve" smooth="yes"/>
      <point x="166" y="492"/>
      <point x="161" y="455"/>
      <point x="161" y="423" type="curve" smooth="yes"/>
      <point x="161" y="299"/>
      <point x="225" y="243"/>
    </contour>
  </outline>
</glyph>
